  0
SECTION
  2
HEADER
  9
$ACADVER
  1
AC1014
  9
$HANDSEED
  5
FFFF
  9
$MEASUREMENT
 70
     1
  0
ENDSEC
  0
SECTION
  2
TABLES
  0
TABLE
  2
VPORT
  5
8
330
0
100
AcDbSymbolTable
 70
     4
  0
VPORT
  5
2E
330
8
100
AcDbSymbolTableRecord
100
AcDbViewportTableRecord
  2
*ACTIVE
 70
     0
 10
0.0
 20
0.0
 11
1.0
 21
1.0
 12
210.0
 22
148.5
 13
0.0
 23
0.0
 14
10.0
 24
10.0
 15
10.0
 25
10.0
 16
0.0
 26
0.0
 36
1.0
 17
0.0
 27
0.0
 37
0.0
 40
341.0
 41
1.24
 42
50.0
 43
0.0
 44
0.0
 50
0.0
 51
0.0
 71
     0
 72
   100
 73
     1
 74
     3
 75
     0
 76
     0
 77
     0
 78
     0
  0
ENDTAB
  0
TABLE
  2
LTYPE
  5
5
330
0
100
AcDbSymbolTable
 70
     1
  0
LTYPE
  5
14
330
5
100
AcDbSymbolTableRecord
100
AcDbLinetypeTableRecord
  2
BYBLOCK
 70
     0
  3

 72
    65
 73
     0
 40
0.0
  0
LTYPE
  5
15
330
5
100
AcDbSymbolTableRecord
100
AcDbLinetypeTableRecord
  2
BYLAYER
 70
     0
  3

 72
    65
 73
     0
 40
0.0
  0
LTYPE
  5
16
330
5
100
AcDbSymbolTableRecord
100
AcDbLinetypeTableRecord
  2
CONTINUOUS
 70
     0
  3
Solid line
 72
    65
 73
     0
 40
0.0
  0
ENDTAB
  0
TABLE
  2
LAYER
  5
2
100
AcDbSymbolTable
 70
1
  0
LAYER
  5
50
100
AcDbSymbolTableRecord
100
AcDbLayerTableRecord
  2
0
 70
0
  6
CONTINUOUS
  0
ENDTAB
  0
TABLE
  2
STYLE
  5
3
330
0
100
AcDbSymbolTable
 70
     1
  0
STYLE
  5
11
330
3
100
AcDbSymbolTableRecord
100
AcDbTextStyleTableRecord
  2
STANDARD
 70
     0
 40
0.0
 41
1.0
 50
0.0
 71
     0
 42
2.5
  3
txt
  4

  0
ENDTAB
  0
TABLE
  2
VIEW
  5
6
330
0
100
AcDbSymbolTable
 70
     0
  0
ENDTAB
  0
TABLE
  2
UCS
  5
7
330
0
100
AcDbSymbolTable
 70
     0
  0
ENDTAB
  0
TABLE
  2
APPID
  5
9
330
0
100
AcDbSymbolTable
 70
     2
  0
APPID
  5
12
330
9
100
AcDbSymbolTableRecord
100
AcDbRegAppTableRecord
  2
ACAD
 70
     0
  0
ENDTAB
  0
TABLE
  2
DIMSTYLE
  5
A
330
0
100
AcDbSymbolTable
 70
     1
  0
DIMSTYLE
105
27
330
A
100
AcDbSymbolTableRecord
100
AcDbDimStyleTableRecord
  2
ISO-25
 70
     0
  3

  4

  5

  6

  7

 40
1.0
 41
2.5
 42
0.625
 43
3.75
 44
1.25
 45
0.0
 46
0.0
 47
0.0
 48
0.0
140
2.5
141
2.5
142
0.0
143
0.03937007874016
144
1.0
145
0.0
146
1.0
147
0.625
 71
     0
 72
     0
 73
     0
 74
     0
 75
     0
 76
     0
 77
     1
 78
     8
170
     0
171
     3
172
     1
173
     0
174
     0
175
     0
176
     0
177
     0
178
     0
270
     2
271
     2
272
     2
273
     2
274
     3
340
11
275
     0
280
     0
281
     0
282
     0
283
     0
284
     8
285
     0
286
     0
287
     3
288
     0
  0
ENDTAB
  0
TABLE
  2
BLOCK_RECORD
  5
1
330
0
100
AcDbSymbolTable
 70
     1
  0
BLOCK_RECORD
  5
1F
330
1
100
AcDbSymbolTableRecord
100
AcDbBlockTableRecord
  2
*MODEL_SPACE
  0
BLOCK_RECORD
  5
1B
330
1
100
AcDbSymbolTableRecord
100
AcDbBlockTableRecord
  2
*PAPER_SPACE
  0
ENDTAB
  0
ENDSEC
  0
SECTION
  2
BLOCKS
  0
BLOCK
  5
20
330
1F
100
AcDbEntity
  8
0
100
AcDbBlockBegin
  2
*MODEL_SPACE
 70
     0
 10
0.0
 20
0.0
 30
0.0
  3
*MODEL_SPACE
  1

  0
ENDBLK
  5
21
330
1F
100
AcDbEntity
  8
0
100
AcDbBlockEnd
  0
BLOCK
  5
1C
330
1B
100
AcDbEntity
 67
     1
  8
0
100
AcDbBlockBegin
  2
*PAPER_SPACE
  1

  0
ENDBLK
  5
1D
330
1B
100
AcDbEntity
 67
     1
  8
0
100
AcDbBlockEnd
  0
ENDSEC
  0
SECTION
  2
ENTITIES
  0
SPLINE
  5
100
100
AcDbEntity
  8
0
 62
7
100
AcDbSpline
 70
8
 71
3
 72
8
 73
4
 74
0
 40
0
 40
0
 40
0
 40
0
 40
1
 40
1
 40
1
 40
1
 10
375.270000
 20
1.125000
 30
0.0
 10
374.410050
 20
1.727325
 30
0.0
 10
373.291575
 20
3.221775
 30
0.0
 10
372.784425
 20
4.446075
 30
0.0
  0
SPLINE
  5
101
100
AcDbEntity
  8
0
 62
7
100
AcDbSpline
 70
8
 71
3
 72
8
 73
4
 74
0
 40
0
 40
0
 40
0
 40
0
 40
1
 40
1
 40
1
 40
1
 10
372.784425
 20
4.446075
 30
0.0
 10
371.208450
 20
8.250825
 30
0.0
 10
366.956100
 20
8.048625
 30
0.0
 10
358.471425
 20
3.765525
 30
0.0
  0
SPLINE
  5
102
100
AcDbEntity
  8
0
 62
7
100
AcDbSpline
 70
8
 71
3
 72
8
 73
4
 74
0
 40
0
 40
0
 40
0
 40
0
 40
1
 40
1
 40
1
 40
1
 10
358.471425
 20
3.765525
 30
0.0
 10
350.078925
 20
-0.470850
 30
0.0
 10
340.499925
 20
1.528500
 30
0.0
 10
340.499925
 20
7.516275
 30
0.0
  0
SPLINE
  5
103
100
AcDbEntity
  8
0
 62
7
100
AcDbSpline
 70
8
 71
3
 72
8
 73
4
 74
0
 40
0
 40
0
 40
0
 40
0
 40
1
 40
1
 40
1
 40
1
 10
340.499925
 20
7.516275
 30
0.0
 10
340.499925
 20
9.986025
 30
0.0
 10
339.013950
 20
10.783200
 30
0.0
 10
336.319575
 20
9.758775
 30
0.0
  0
SPLINE
  5
104
100
AcDbEntity
  8
0
 62
7
100
AcDbSpline
 70
8
 71
3
 72
8
 73
4
 74
0
 40
0
 40
0
 40
0
 40
0
 40
1
 40
1
 40
1
 40
1
 10
336.319575
 20
9.758775
 30
0.0
 10
331.013400
 20
7.741425
 30
0.0
 10
329.865150
 20
8.978625
 30
0.0
 10
332.325975
 20
14.062050
 30
0.0
  0
SPLINE
  5
105
100
AcDbEntity
  8
0
 62
7
100
AcDbSpline
 70
8
 71
3
 72
8
 73
4
 74
0
 40
0
 40
0
 40
0
 40
0
 40
1
 40
1
 40
1
 40
1
 10
332.325975
 20
14.062050
 30
0.0
 10
334.064400
 20
17.653200
 30
0.0
 10
333.553125
 20
19.237800
 30
0.0
 10
330.515625
 20
19.672350
 30
0.0
  0
SPLINE
  5
106
100
AcDbEntity
  8
0
 62
7
100
AcDbSpline
 70
8
 71
3
 72
8
 73
4
 74
0
 40
0
 40
0
 40
0
 40
0
 40
1
 40
1
 40
1
 40
1
 10
330.515625
 20
19.672350
 30
0.0
 10
327.898800
 20
20.046675
 30
0.0
 10
328.177050
 20
22.232175
 30
0.0
 10
331.469175
 20
27.162225
 30
0.0
  0
SPLINE
  5
107
100
AcDbEntity
  8
0
 62
7
100
AcDbSpline
 70
8
 71
3
 72
8
 73
4
 74
0
 40
0
 40
0
 40
0
 40
0
 40
1
 40
1
 40
1
 40
1
 10
331.469175
 20
27.162225
 30
0.0
 10
335.547675
 20
33.269850
 30
0.0
 10
334.852875
 20
33.890325
 30
0.0
 10
326.825850
 20
31.308525
 30
0.0
  0
SPLINE
  5
108
100
AcDbEntity
  8
0
 62
7
100
AcDbSpline
 70
8
 71
3
 72
8
 73
4
 74
0
 40
0
 40
0
 40
0
 40
0
 40
1
 40
1
 40
1
 40
1
 10
326.825850
 20
31.308525
 30
0.0
 10
318.637350
 20
28.674750
 30
0.0
 10
315.315600
 20
28.241775
 30
0.0
 10
311.249850
 20
29.278125
 30
0.0
  0
SPLINE
  5
109
100
AcDbEntity
  8
0
 62
7
100
AcDbSpline
 70
8
 71
3
 72
8
 73
4
 74
0
 40
0
 40
0
 40
0
 40
0
 40
1
 40
1
 40
1
 40
1
 10
311.249850
 20
29.278125
 30
0.0
 10
309.393600
 20
29.751375
 30
0.0
 10
305.634825
 20
30.563250
 30
0.0
 10
302.897100
 20
31.082400
 30
0.0
  0
SPLINE
  5
10a
100
AcDbEntity
  8
0
 62
7
100
AcDbSpline
 70
8
 71
3
 72
8
 73
4
 74
0
 40
0
 40
0
 40
0
 40
0
 40
1
 40
1
 40
1
 40
1
 10
302.897100
 20
31.082400
 30
0.0
 10
299.763675
 20
31.676625
 30
0.0
 10
296.589750
 20
32.907000
 30
0.0
 10
294.331350
 20
34.403100
 30
0.0
  0
SPLINE
  5
10b
100
AcDbEntity
  8
0
 62
7
100
AcDbSpline
 70
8
 71
3
 72
8
 73
4
 74
0
 40
0
 40
0
 40
0
 40
0
 40
1
 40
1
 40
1
 40
1
 10
294.331350
 20
34.403100
 30
0.0
 10
291.094050
 20
36.547425
 30
0.0
 10
290.187150
 20
36.779850
 30
0.0
 10
285.059100
 20
36.779850
 30
0.0
  0
SPLINE
  5
10c
100
AcDbEntity
  8
0
 62
7
100
AcDbSpline
 70
8
 71
3
 72
8
 73
4
 74
0
 40
0
 40
0
 40
0
 40
0
 40
1
 40
1
 40
1
 40
1
 10
285.059100
 20
36.779850
 30
0.0
 10
279.208125
 20
36.779850
 30
0.0
 10
269.559600
 20
38.420550
 30
0.0
 10
268.361100
 20
39.619350
 30
0.0
  0
SPLINE
  5
10d
100
AcDbEntity
  8
0
 62
7
100
AcDbSpline
 70
8
 71
3
 72
8
 73
4
 74
0
 40
0
 40
0
 40
0
 40
0
 40
1
 40
1
 40
1
 40
1
 10
268.361100
 20
39.619350
 30
0.0
 10
267.958898
 20
40.021575
 30
0.0
 10
268.020570
 20
42.396750
 30
0.0
 10
268.513148
 20
45.475425
 30
0.0
  0
SPLINE
  5
10e
100
AcDbEntity
  8
0
 62
7
100
AcDbSpline
 70
8
 71
3
 72
8
 73
4
 74
0
 40
0
 40
0
 40
0
 40
0
 40
1
 40
1
 40
1
 40
1
 10
268.513148
 20
45.475425
 30
0.0
 10
269.294123
 20
50.356725
 30
0.0
 10
269.252880
 20
50.714100
 30
0.0
 10
267.796222
 20
51.683850
 30
0.0
  0
SPLINE
  5
10f
100
AcDbEntity
  8
0
 62
7
100
AcDbSpline
 70
8
 71
3
 72
8
 73
4
 74
0
 40
0
 40
0
 40
0
 40
0
 40
1
 40
1
 40
1
 40
1
 10
267.796222
 20
51.683850
 30
0.0
 10
266.237798
 20
52.721325
 30
0.0
 10
265.735748
 20
54.442500
 30
0.0
 10
266.856773
 20
54.904875
 30
0.0
  0
SPLINE
  5
110
100
AcDbEntity
  8
0
 62
7
100
AcDbSpline
 70
8
 71
3
 72
8
 73
4
 74
0
 40
0
 40
0
 40
0
 40
0
 40
1
 40
1
 40
1
 40
1
 10
266.856773
 20
54.904875
 30
0.0
 10
268.251023
 20
55.479900
 30
0.0
 10
272.250623
 20
62.327700
 30
0.0
 10
272.250623
 20
64.139625
 30
0.0
  0
SPLINE
  5
111
100
AcDbEntity
  8
0
 62
7
100
AcDbSpline
 70
8
 71
3
 72
8
 73
4
 74
0
 40
0
 40
0
 40
0
 40
0
 40
1
 40
1
 40
1
 40
1
 10
272.250623
 20
64.139625
 30
0.0
 10
272.250623
 20
67.042650
 30
0.0
 10
273.893423
 20
69.672900
 30
0.0
 10
278.567873
 20
74.254125
 30
0.0
  0
SPLINE
  5
112
100
AcDbEntity
  8
0
 62
7
100
AcDbSpline
 70
8
 71
3
 72
8
 73
4
 74
0
 40
0
 40
0
 40
0
 40
0
 40
1
 40
1
 40
1
 40
1
 10
278.567873
 20
74.254125
 30
0.0
 10
280.868423
 20
76.508850
 30
0.0
 10
282.750623
 20
78.746700
 30
0.0
 10
282.750623
 20
79.227225
 30
0.0
  0
SPLINE
  5
113
100
AcDbEntity
  8
0
 62
7
100
AcDbSpline
 70
8
 71
3
 72
8
 73
4
 74
0
 40
0
 40
0
 40
0
 40
0
 40
1
 40
1
 40
1
 40
1
 10
282.750623
 20
79.227225
 30
0.0
 10
282.750623
 20
83.433900
 30
0.0
 10
302.446373
 20
98.333475
 30
0.0
 10
309.634373
 20
99.564225
 30
0.0
  0
SPLINE
  5
114
100
AcDbEntity
  8
0
 62
7
100
AcDbSpline
 70
8
 71
3
 72
8
 73
4
 74
0
 40
0
 40
0
 40
0
 40
0
 40
1
 40
1
 40
1
 40
1
 10
309.634373
 20
99.564225
 30
0.0
 10
314.600048
 20
100.414725
 30
0.0
 10
315.598073
 20
100.882725
 30
0.0
 10
318.766373
 20
103.846500
 30
0.0
  0
SPLINE
  5
115
100
AcDbEntity
  8
0
 62
7
100
AcDbSpline
 70
8
 71
3
 72
8
 73
4
 74
0
 40
0
 40
0
 40
0
 40
0
 40
1
 40
1
 40
1
 40
1
 10
318.766373
 20
103.846500
 30
0.0
 10
321.050273
 20
105.982800
 30
0.0
 10
323.496323
 20
107.470950
 30
0.0
 10
325.599698
 20
108.003675
 30
0.0
  0
SPLINE
  5
116
100
AcDbEntity
  8
0
 62
7
100
AcDbSpline
 70
8
 71
3
 72
8
 73
4
 74
0
 40
0
 40
0
 40
0
 40
0
 40
1
 40
1
 40
1
 40
1
 10
325.599698
 20
108.003675
 30
0.0
 10
327.401498
 20
108.459975
 30
0.0
 10
330.394448
 20
109.356225
 30
0.0
 10
332.250698
 20
109.995375
 30
0.0
  0
SPLINE
  5
117
100
AcDbEntity
  8
0
 62
7
100
AcDbSpline
 70
8
 71
3
 72
8
 73
4
 74
0
 40
0
 40
0
 40
0
 40
0
 40
1
 40
1
 40
1
 40
1
 10
332.250698
 20
109.995375
 30
0.0
 10
334.106948
 20
110.634450
 30
0.0
 10
337.481948
 20
111.573000
 30
0.0
 10
339.750698
 20
112.081125
 30
0.0
  0
SPLINE
  5
118
100
AcDbEntity
  8
0
 62
7
100
AcDbSpline
 70
8
 71
3
 72
8
 73
4
 74
0
 40
0
 40
0
 40
0
 40
0
 40
1
 40
1
 40
1
 40
1
 10
339.750698
 20
112.081125
 30
0.0
 10
345.641348
 20
113.400375
 30
0.0
 10
346.081823
 20
113.697825
 30
0.0
 10
348.369698
 20
117.901800
 30
0.0
  0
SPLINE
  5
119
100
AcDbEntity
  8
0
 62
7
100
AcDbSpline
 70
8
 71
3
 72
8
 73
4
 74
0
 40
0
 40
0
 40
0
 40
0
 40
1
 40
1
 40
1
 40
1
 10
348.369698
 20
117.901800
 30
0.0
 10
349.502798
 20
119.983575
 30
0.0
 10
352.074098
 20
123.859275
 30
0.0
 10
354.083723
 20
126.514050
 30
0.0
  0
SPLINE
  5
11a
100
AcDbEntity
  8
0
 62
7
100
AcDbSpline
 70
8
 71
3
 72
8
 73
4
 74
0
 40
0
 40
0
 40
0
 40
0
 40
1
 40
1
 40
1
 40
1
 10
354.083723
 20
126.514050
 30
0.0
 10
356.093348
 20
129.169125
 30
0.0
 10
357.952598
 20
132.255525
 30
0.0
 10
358.215398
 20
133.372800
 30
0.0
  0
SPLINE
  5
11b
100
AcDbEntity
  8
0
 62
7
100
AcDbSpline
 70
8
 71
3
 72
8
 73
4
 74
0
 40
0
 40
0
 40
0
 40
0
 40
1
 40
1
 40
1
 40
1
 10
358.215398
 20
133.372800
 30
0.0
 10
358.478190
 20
134.490000
 30
0.0
 10
359.281898
 20
136.416600
 30
0.0
 10
360.001298
 20
137.654100
 30
0.0
  0
SPLINE
  5
11c
100
AcDbEntity
  8
0
 62
7
100
AcDbSpline
 70
8
 71
3
 72
8
 73
4
 74
0
 40
0
 40
0
 40
0
 40
0
 40
1
 40
1
 40
1
 40
1
 10
360.001298
 20
137.654100
 30
0.0
 10
360.720765
 20
138.891600
 30
0.0
 10
361.528973
 20
141.362250
 30
0.0
 10
361.797248
 20
143.144400
 30
0.0
  0
SPLINE
  5
11d
100
AcDbEntity
  8
0
 62
7
100
AcDbSpline
 70
8
 71
3
 72
8
 73
4
 74
0
 40
0
 40
0
 40
0
 40
0
 40
1
 40
1
 40
1
 40
1
 10
361.797248
 20
143.144400
 30
0.0
 10
362.065560
 20
144.926550
 30
0.0
 10
362.731073
 20
147.120300
 30
0.0
 10
363.276173
 20
148.019400
 30
0.0
  0
SPLINE
  5
11e
100
AcDbEntity
  8
0
 62
7
100
AcDbSpline
 70
8
 71
3
 72
8
 73
4
 74
0
 40
0
 40
0
 40
0
 40
0
 40
1
 40
1
 40
1
 40
1
 10
363.276173
 20
148.019400
 30
0.0
 10
363.821250
 20
148.918500
 30
0.0
 10
364.674473
 20
152.016600
 30
0.0
 10
365.172248
 20
154.904100
 30
0.0
  0
SPLINE
  5
11f
100
AcDbEntity
  8
0
 62
7
100
AcDbSpline
 70
8
 71
3
 72
8
 73
4
 74
0
 40
0
 40
0
 40
0
 40
0
 40
1
 40
1
 40
1
 40
1
 10
365.172248
 20
154.904100
 30
0.0
 10
365.669993
 20
157.791600
 30
0.0
 10
366.378548
 20
161.504100
 30
0.0
 10
366.746798
 20
163.154100
 30
0.0
  0
SPLINE
  5
120
100
AcDbEntity
  8
0
 62
7
100
AcDbSpline
 70
8
 71
3
 72
8
 73
4
 74
0
 40
0
 40
0
 40
0
 40
0
 40
1
 40
1
 40
1
 40
1
 10
366.746798
 20
163.154100
 30
0.0
 10
367.115048
 20
164.804100
 30
0.0
 10
367.608998
 20
170.204100
 30
0.0
 10
367.844423
 20
175.154100
 30
0.0
  0
SPLINE
  5
121
100
AcDbEntity
  8
0
 62
7
100
AcDbSpline
 70
8
 71
3
 72
8
 73
4
 74
0
 40
0
 40
0
 40
0
 40
0
 40
1
 40
1
 40
1
 40
1
 10
367.844423
 20
175.154100
 30
0.0
 10
368.079878
 20
180.104100
 30
0.0
 10
368.619098
 20
186.305100
 30
0.0
 10
369.042698
 20
188.933100
 30
0.0
  0
SPLINE
  5
122
100
AcDbEntity
  8
0
 62
7
100
AcDbSpline
 70
8
 71
3
 72
8
 73
4
 74
0
 40
0
 40
0
 40
0
 40
0
 40
1
 40
1
 40
1
 40
1
 10
369.042698
 20
188.933100
 30
0.0
 10
369.625538
 20
192.549900
 30
0.0
 10
369.548573
 20
195.650700
 30
0.0
 10
368.726220
 20
201.683100
 30
0.0
  0
SPLINE
  5
123
100
AcDbEntity
  8
0
 62
7
100
AcDbSpline
 70
8
 71
3
 72
8
 73
4
 74
0
 40
0
 40
0
 40
0
 40
0
 40
1
 40
1
 40
1
 40
1
 10
368.726220
 20
201.683100
 30
0.0
 10
368.128575
 20
206.067075
 30
0.0
 10
367.591845
 20
212.691600
 30
0.0
 10
367.533570
 20
216.404100
 30
0.0
  0
SPLINE
  5
124
100
AcDbEntity
  8
0
 62
7
100
AcDbSpline
 70
8
 71
3
 72
8
 73
4
 74
0
 40
0
 40
0
 40
0
 40
0
 40
1
 40
1
 40
1
 40
1
 10
367.533570
 20
216.404100
 30
0.0
 10
367.475220
 20
220.116600
 30
0.0
 10
367.077248
 20
225.347850
 30
0.0
 10
366.649170
 20
228.029100
 30
0.0
  0
SPLINE
  5
125
100
AcDbEntity
  8
0
 62
7
100
AcDbSpline
 70
8
 71
3
 72
8
 73
4
 74
0
 40
0
 40
0
 40
0
 40
0
 40
1
 40
1
 40
1
 40
1
 10
366.649170
 20
228.029100
 30
0.0
 10
365.920590
 20
232.592400
 30
0.0
 10
363.978045
 20
248.676600
 30
0.0
 10
363.343095
 20
255.404100
 30
0.0
  0
SPLINE
  5
126
100
AcDbEntity
  8
0
 62
7
100
AcDbSpline
 70
8
 71
3
 72
8
 73
4
 74
0
 40
0
 40
0
 40
0
 40
0
 40
1
 40
1
 40
1
 40
1
 10
363.343095
 20
255.404100
 30
0.0
 10
362.713703
 20
262.072275
 30
0.0
 10
359.318970
 20
278.283600
 30
0.0
 10
357.862545
 20
281.576100
 30
0.0
  0
SPLINE
  5
127
100
AcDbEntity
  8
0
 62
7
100
AcDbSpline
 70
8
 71
3
 72
8
 73
4
 74
0
 40
0
 40
0
 40
0
 40
0
 40
1
 40
1
 40
1
 40
1
 10
357.862545
 20
281.576100
 30
0.0
 10
356.584020
 20
284.466300
 30
0.0
 10
356.461995
 20
285.422550
 30
0.0
 10
357.172523
 20
286.982025
 30
0.0
  0
SPLINE
  5
128
100
AcDbEntity
  8
0
 62
7
100
AcDbSpline
 70
8
 71
3
 72
8
 73
4
 74
0
 40
0
 40
0
 40
0
 40
0
 40
1
 40
1
 40
1
 40
1
 10
357.172523
 20
286.982025
 30
0.0
 10
357.826800
 20
288.417975
 30
0.0
 10
357.819705
 20
289.684350
 30
0.0
 10
357.143198
 20
292.213725
 30
0.0
  0
SPLINE
  5
129
100
AcDbEntity
  8
0
 62
7
100
AcDbSpline
 70
8
 71
3
 72
8
 73
4
 74
0
 40
0
 40
0
 40
0
 40
0
 40
1
 40
1
 40
1
 40
1
 10
357.143198
 20
292.213725
 30
0.0
 10
356.652300
 20
294.049125
 30
0.0
 10
356.250623
 20
297.748200
 30
0.0
 10
356.250623
 20
300.433725
 30
0.0
  0
SPLINE
  5
12a
100
AcDbEntity
  8
0
 62
7
100
AcDbSpline
 70
8
 71
3
 72
8
 73
4
 74
0
 40
0
 40
0
 40
0
 40
0
 40
1
 40
1
 40
1
 40
1
 10
356.250623
 20
300.433725
 30
0.0
 10
356.250623
 20
303.451725
 30
0.0
 10
355.665030
 20
306.956700
 30
0.0
 10
354.717398
 20
309.610725
 30
0.0
  0
SPLINE
  5
12b
100
AcDbEntity
  8
0
 62
7
100
AcDbSpline
 70
8
 71
3
 72
8
 73
4
 74
0
 40
0
 40
0
 40
0
 40
0
 40
1
 40
1
 40
1
 40
1
 10
354.717398
 20
309.610725
 30
0.0
 10
353.658773
 20
312.575400
 30
0.0
 10
352.967723
 20
317.214225
 30
0.0
 10
352.484948
 20
324.597225
 30
0.0
  0
SPLINE
  5
12c
100
AcDbEntity
  8
0
 62
7
100
AcDbSpline
 70
8
 71
3
 72
8
 73
4
 74
0
 40
0
 40
0
 40
0
 40
0
 40
1
 40
1
 40
1
 40
1
 10
352.484948
 20
324.597225
 30
0.0
 10
352.100378
 20
330.478425
 30
0.0
 10
351.102848
 20
338.034225
 30
0.0
 10
350.268173
 20
341.387475
 30
0.0
  0
SPLINE
  5
12d
100
AcDbEntity
  8
0
 62
7
100
AcDbSpline
 70
8
 71
3
 72
8
 73
4
 74
0
 40
0
 40
0
 40
0
 40
0
 40
1
 40
1
 40
1
 40
1
 10
350.268173
 20
341.387475
 30
0.0
 10
349.433498
 20
344.741025
 30
0.0
 10
348.750623
 20
348.867600
 30
0.0
 10
348.750623
 20
350.557725
 30
0.0
  0
SPLINE
  5
12e
100
AcDbEntity
  8
0
 62
7
100
AcDbSpline
 70
8
 71
3
 72
8
 73
4
 74
0
 40
0
 40
0
 40
0
 40
0
 40
1
 40
1
 40
1
 40
1
 10
348.750623
 20
350.557725
 30
0.0
 10
348.750623
 20
356.065425
 30
0.0
 10
345.545948
 20
377.724225
 30
0.0
 10
342.799523
 20
390.778725
 30
0.0
  0
SPLINE
  5
12f
100
AcDbEntity
  8
0
 62
7
100
AcDbSpline
 70
8
 71
3
 72
8
 73
4
 74
0
 40
0
 40
0
 40
0
 40
0
 40
1
 40
1
 40
1
 40
1
 10
342.799523
 20
390.778725
 30
0.0
 10
341.975123
 20
394.697475
 30
0.0
 10
340.597523
 20
402.291225
 30
0.0
 10
339.738173
 20
407.653725
 30
0.0
  0
SPLINE
  5
130
100
AcDbEntity
  8
0
 62
7
100
AcDbSpline
 70
8
 71
3
 72
8
 73
4
 74
0
 40
0
 40
0
 40
0
 40
0
 40
1
 40
1
 40
1
 40
1
 10
339.738173
 20
407.653725
 30
0.0
 10
338.878898
 20
413.016225
 30
0.0
 10
337.649573
 20
420.103725
 30
0.0
 10
337.006373
 20
423.403725
 30
0.0
  0
SPLINE
  5
131
100
AcDbEntity
  8
0
 62
7
100
AcDbSpline
 70
8
 71
3
 72
8
 73
4
 74
0
 40
0
 40
0
 40
0
 40
0
 40
1
 40
1
 40
1
 40
1
 10
337.006373
 20
423.403725
 30
0.0
 10
336.363188
 20
426.703725
 30
0.0
 10
335.553548
 20
431.597475
 30
0.0
 10
335.207273
 20
434.278725
 30
0.0
  0
SPLINE
  5
132
100
AcDbEntity
  8
0
 62
7
100
AcDbSpline
 70
8
 71
3
 72
8
 73
4
 74
0
 40
0
 40
0
 40
0
 40
0
 40
1
 40
1
 40
1
 40
1
 10
335.207273
 20
434.278725
 30
0.0
 10
334.860938
 20
436.959975
 30
0.0
 10
334.207298
 20
441.178725
 30
0.0
 10
333.754823
 20
443.653725
 30
0.0
  0
SPLINE
  5
133
100
AcDbEntity
  8
0
 62
7
100
AcDbSpline
 70
8
 71
3
 72
8
 73
4
 74
0
 40
0
 40
0
 40
0
 40
0
 40
1
 40
1
 40
1
 40
1
 10
333.754823
 20
443.653725
 30
0.0
 10
333.302288
 20
446.128725
 30
0.0
 10
332.609423
 20
450.347475
 30
0.0
 10
332.215073
 20
453.028725
 30
0.0
  0
SPLINE
  5
134
100
AcDbEntity
  8
0
 62
7
100
AcDbSpline
 70
8
 71
3
 72
8
 73
4
 74
0
 40
0
 40
0
 40
0
 40
0
 40
1
 40
1
 40
1
 40
1
 10
332.215073
 20
453.028725
 30
0.0
 10
331.820760
 20
455.709975
 30
0.0
 10
331.176023
 20
459.759975
 30
0.0
 10
330.782273
 20
462.028725
 30
0.0
  0
SPLINE
  5
135
100
AcDbEntity
  8
0
 62
7
100
AcDbSpline
 70
8
 71
3
 72
8
 73
4
 74
0
 40
0
 40
0
 40
0
 40
0
 40
1
 40
1
 40
1
 40
1
 10
330.782273
 20
462.028725
 30
0.0
 10
330.388553
 20
464.297475
 30
0.0
 10
329.680223
 20
468.853725
 30
0.0
 10
329.208098
 20
472.153725
 30
0.0
  0
SPLINE
  5
136
100
AcDbEntity
  8
0
 62
7
100
AcDbSpline
 70
8
 71
3
 72
8
 73
4
 74
0
 40
0
 40
0
 40
0
 40
0
 40
1
 40
1
 40
1
 40
1
 10
329.208098
 20
472.153725
 30
0.0
 10
328.736033
 20
475.453725
 30
0.0
 10
328.021373
 20
480.178725
 30
0.0
 10
327.619898
 20
482.653725
 30
0.0
  0
SPLINE
  5
137
100
AcDbEntity
  8
0
 62
7
100
AcDbSpline
 70
8
 71
3
 72
8
 73
4
 74
0
 40
0
 40
0
 40
0
 40
0
 40
1
 40
1
 40
1
 40
1
 10
327.619898
 20
482.653725
 30
0.0
 10
326.759423
 20
487.958850
 30
0.0
 10
326.316623
 20
492.632475
 30
0.0
 10
325.964348
 20
500.127225
 30
0.0
  0
SPLINE
  5
138
100
AcDbEntity
  8
0
 62
7
100
AcDbSpline
 70
8
 71
3
 72
8
 73
4
 74
0
 40
0
 40
0
 40
0
 40
0
 40
1
 40
1
 40
1
 40
1
 10
325.964348
 20
500.127225
 30
0.0
 10
324.725648
 20
526.479225
 30
0.0
 10
322.955423
 20
540.538725
 30
0.0
 10
319.749248
 20
549.488475
 30
0.0
  0
SPLINE
  5
139
100
AcDbEntity
  8
0
 62
7
100
AcDbSpline
 70
8
 71
3
 72
8
 73
4
 74
0
 40
0
 40
0
 40
0
 40
0
 40
1
 40
1
 40
1
 40
1
 10
319.749248
 20
549.488475
 30
0.0
 10
318.286748
 20
553.515975
 30
0.0
 10
316.666748
 20
558.368475
 30
0.0
 10
316.156748
 20
560.228475
 30
0.0
  0
SPLINE
  5
13a
100
AcDbEntity
  8
0
 62
7
100
AcDbSpline
 70
8
 71
3
 72
8
 73
4
 74
0
 40
0
 40
0
 40
0
 40
0
 40
1
 40
1
 40
1
 40
1
 10
316.156748
 20
560.228475
 30
0.0
 10
315.639473
 20
562.084725
 30
0.0
 10
314.028848
 20
565.797225
 30
0.0
 10
312.577598
 20
568.478475
 30
0.0
  0
SPLINE
  5
13b
100
AcDbEntity
  8
0
 62
7
100
AcDbSpline
 70
8
 71
3
 72
8
 73
4
 74
0
 40
0
 40
0
 40
0
 40
0
 40
1
 40
1
 40
1
 40
1
 10
312.577598
 20
568.478475
 30
0.0
 10
311.126348
 20
571.159725
 30
0.0
 10
309.036098
 20
575.715975
 30
0.0
 10
307.932698
 20
578.603475
 30
0.0
  0
SPLINE
  5
13c
100
AcDbEntity
  8
0
 62
7
100
AcDbSpline
 70
8
 71
3
 72
8
 73
4
 74
0
 40
0
 40
0
 40
0
 40
0
 40
1
 40
1
 40
1
 40
1
 10
307.932698
 20
578.603475
 30
0.0
 10
306.829298
 20
581.490975
 30
0.0
 10
305.609048
 20
584.359725
 30
0.0
 10
305.221148
 20
584.978475
 30
0.0
  0
SPLINE
  5
13d
100
AcDbEntity
  8
0
 62
7
100
AcDbSpline
 70
8
 71
3
 72
8
 73
4
 74
0
 40
0
 40
0
 40
0
 40
0
 40
1
 40
1
 40
1
 40
1
 10
305.221148
 20
584.978475
 30
0.0
 10
302.366948
 20
589.530825
 30
0.0
 10
298.912223
 20
597.337725
 30
0.0
 10
296.242148
 20
605.268975
 30
0.0
  0
SPLINE
  5
13e
100
AcDbEntity
  8
0
 62
7
100
AcDbSpline
 70
8
 71
3
 72
8
 73
4
 74
0
 40
0
 40
0
 40
0
 40
0
 40
1
 40
1
 40
1
 40
1
 10
296.242148
 20
605.268975
 30
0.0
 10
294.513698
 20
610.402800
 30
0.0
 10
292.251848
 20
616.797225
 30
0.0
 10
291.215948
 20
619.478475
 30
0.0
  0
SPLINE
  5
13f
100
AcDbEntity
  8
0
 62
7
100
AcDbSpline
 70
8
 71
3
 72
8
 73
4
 74
0
 40
0
 40
0
 40
0
 40
0
 40
1
 40
1
 40
1
 40
1
 10
291.215948
 20
619.478475
 30
0.0
 10
284.075348
 20
637.959975
 30
0.0
 10
281.539448
 20
645.110475
 30
0.0
 10
279.379448
 20
652.853475
 30
0.0
  0
SPLINE
  5
140
100
AcDbEntity
  8
0
 62
7
100
AcDbSpline
 70
8
 71
3
 72
8
 73
4
 74
0
 40
0
 40
0
 40
0
 40
0
 40
1
 40
1
 40
1
 40
1
 10
279.379448
 20
652.853475
 30
0.0
 10
277.838648
 20
658.377225
 30
0.0
 10
275.403548
 20
665.436225
 30
0.0
 10
272.097623
 20
673.962975
 30
0.0
  0
SPLINE
  5
141
100
AcDbEntity
  8
0
 62
7
100
AcDbSpline
 70
8
 71
3
 72
8
 73
4
 74
0
 40
0
 40
0
 40
0
 40
0
 40
1
 40
1
 40
1
 40
1
 10
272.097623
 20
673.962975
 30
0.0
 10
270.881648
 20
677.099100
 30
0.0
 10
270.201098
 20
677.902200
 30
0.0
 10
268.465223
 20
678.249375
 30
0.0
  0
SPLINE
  5
142
100
AcDbEntity
  8
0
 62
7
100
AcDbSpline
 70
8
 71
3
 72
8
 73
4
 74
0
 40
0
 40
0
 40
0
 40
0
 40
1
 40
1
 40
1
 40
1
 10
268.465223
 20
678.249375
 30
0.0
 10
266.297723
 20
678.676875
 30
0.0
 10
264.002723
 20
683.731875
 30
0.0
 10
264.002723
 20
688.051875
 30
0.0
  0
SPLINE
  5
143
100
AcDbEntity
  8
0
 62
7
100
AcDbSpline
 70
8
 71
3
 72
8
 73
4
 74
0
 40
0
 40
0
 40
0
 40
0
 40
1
 40
1
 40
1
 40
1
 10
264.002723
 20
688.051875
 30
0.0
 10
264.002723
 20
689.490900
 30
0.0
 10
261.095873
 20
694.176600
 30
0.0
 10
257.136548
 20
699.119625
 30
0.0
  0
SPLINE
  5
144
100
AcDbEntity
  8
0
 62
7
100
AcDbSpline
 70
8
 71
3
 72
8
 73
4
 74
0
 40
0
 40
0
 40
0
 40
0
 40
1
 40
1
 40
1
 40
1
 10
257.136548
 20
699.119625
 30
0.0
 10
256.243748
 20
700.234350
 30
0.0
 10
255.087773
 20
703.103100
 30
0.0
 10
254.567798
 20
705.494625
 30
0.0
  0
SPLINE
  5
145
100
AcDbEntity
  8
0
 62
7
100
AcDbSpline
 70
8
 71
3
 72
8
 73
4
 74
0
 40
0
 40
0
 40
0
 40
0
 40
1
 40
1
 40
1
 40
1
 10
254.567798
 20
705.494625
 30
0.0
 10
254.047778
 20
707.886150
 30
0.0
 10
253.276148
 20
710.855400
 30
0.0
 10
252.853073
 20
712.092900
 30
0.0
  0
SPLINE
  5
146
100
AcDbEntity
  8
0
 62
7
100
AcDbSpline
 70
8
 71
3
 72
8
 73
4
 74
0
 40
0
 40
0
 40
0
 40
0
 40
1
 40
1
 40
1
 40
1
 10
252.853073
 20
712.092900
 30
0.0
 10
252.429990
 20
713.330400
 30
0.0
 10
251.711873
 20
716.367900
 30
0.0
 10
251.257298
 20
718.842900
 30
0.0
  0
SPLINE
  5
147
100
AcDbEntity
  8
0
 62
7
100
AcDbSpline
 70
8
 71
3
 72
8
 73
4
 74
0
 40
0
 40
0
 40
0
 40
0
 40
1
 40
1
 40
1
 40
1
 10
251.257298
 20
718.842900
 30
0.0
 10
250.802693
 20
721.317900
 30
0.0
 10
250.042448
 20
725.030400
 30
0.0
 10
249.567923
 20
727.092900
 30
0.0
  0
SPLINE
  5
148
100
AcDbEntity
  8
0
 62
7
100
AcDbSpline
 70
8
 71
3
 72
8
 73
4
 74
0
 40
0
 40
0
 40
0
 40
0
 40
1
 40
1
 40
1
 40
1
 10
249.567923
 20
727.092900
 30
0.0
 10
248.544473
 20
731.540850
 30
0.0
 10
248.638373
 20
742.074150
 30
0.0
 10
249.748403
 20
747.342900
 30
0.0
  0
SPLINE
  5
149
100
AcDbEntity
  8
0
 62
7
100
AcDbSpline
 70
8
 71
3
 72
8
 73
4
 74
0
 40
0
 40
0
 40
0
 40
0
 40
1
 40
1
 40
1
 40
1
 10
249.748403
 20
747.342900
 30
0.0
 10
250.182938
 20
749.405400
 30
0.0
 10
250.833878
 20
753.117900
 30
0.0
 10
251.195003
 20
755.592900
 30
0.0
  0
SPLINE
  5
14a
100
AcDbEntity
  8
0
 62
7
100
AcDbSpline
 70
8
 71
3
 72
8
 73
4
 74
0
 40
0
 40
0
 40
0
 40
0
 40
1
 40
1
 40
1
 40
1
 10
251.195003
 20
755.592900
 30
0.0
 10
251.556090
 20
758.067900
 30
0.0
 10
252.176528
 20
760.936650
 30
0.0
 10
252.573728
 20
761.967900
 30
0.0
  0
SPLINE
  5
14b
100
AcDbEntity
  8
0
 62
7
100
AcDbSpline
 70
8
 71
3
 72
8
 73
4
 74
0
 40
0
 40
0
 40
0
 40
0
 40
1
 40
1
 40
1
 40
1
 10
252.573728
 20
761.967900
 30
0.0
 10
253.770878
 20
765.075900
 30
0.0
 10
254.733728
 20
775.300650
 30
0.0
 10
255.257528
 20
790.467900
 30
0.0
  0
SPLINE
  5
14c
100
AcDbEntity
  8
0
 62
7
100
AcDbSpline
 70
8
 71
3
 72
8
 73
4
 74
0
 40
0
 40
0
 40
0
 40
0
 40
1
 40
1
 40
1
 40
1
 10
255.257528
 20
790.467900
 30
0.0
 10
255.435608
 20
795.624150
 30
0.0
 10
255.911588
 20
800.686650
 30
0.0
 10
256.315253
 20
801.717900
 30
0.0
  0
SPLINE
  5
14d
100
AcDbEntity
  8
0
 62
7
100
AcDbSpline
 70
8
 71
3
 72
8
 73
4
 74
0
 40
0
 40
0
 40
0
 40
0
 40
1
 40
1
 40
1
 40
1
 10
256.315253
 20
801.717900
 30
0.0
 10
257.873378
 20
805.698375
 30
0.0
 10
255.341978
 20
836.436150
 30
0.0
 10
253.098728
 20
840.774150
 30
0.0
  0
SPLINE
  5
14e
100
AcDbEntity
  8
0
 62
7
100
AcDbSpline
 70
8
 71
3
 72
8
 73
4
 74
0
 40
0
 40
0
 40
0
 40
0
 40
1
 40
1
 40
1
 40
1
 10
253.098728
 20
840.774150
 30
0.0
 10
252.521565
 20
841.890225
 30
0.0
 10
251.684378
 20
844.781100
 30
0.0
 10
251.238353
 20
847.198275
 30
0.0
  0
SPLINE
  5
14f
100
AcDbEntity
  8
0
 62
7
100
AcDbSpline
 70
8
 71
3
 72
8
 73
4
 74
0
 40
0
 40
0
 40
0
 40
0
 40
1
 40
1
 40
1
 40
1
 10
251.238353
 20
847.198275
 30
0.0
 10
250.792305
 20
849.615450
 30
0.0
 10
250.145078
 20
853.111875
 30
0.0
 10
249.800078
 20
854.968275
 30
0.0
  0
SPLINE
  5
150
100
AcDbEntity
  8
0
 62
7
100
AcDbSpline
 70
8
 71
3
 72
8
 73
4
 74
0
 40
0
 40
0
 40
0
 40
0
 40
1
 40
1
 40
1
 40
1
 10
249.800078
 20
854.968275
 30
0.0
 10
248.925128
 20
859.675500
 30
0.0
 10
246.992528
 20
866.459025
 30
0.0
 10
245.347403
 20
870.597525
 30
0.0
  0
SPLINE
  5
151
100
AcDbEntity
  8
0
 62
7
100
AcDbSpline
 70
8
 71
3
 72
8
 73
4
 74
0
 40
0
 40
0
 40
0
 40
0
 40
1
 40
1
 40
1
 40
1
 10
245.347403
 20
870.597525
 30
0.0
 10
244.583078
 20
872.520225
 30
0.0
 10
243.554603
 20
875.780850
 30
0.0
 10
243.062003
 20
877.843350
 30
0.0
  0
SPLINE
  5
152
100
AcDbEntity
  8
0
 62
7
100
AcDbSpline
 70
8
 71
3
 72
8
 73
4
 74
0
 40
0
 40
0
 40
0
 40
0
 40
1
 40
1
 40
1
 40
1
 10
243.062003
 20
877.843350
 30
0.0
 10
242.569343
 20
879.905850
 30
0.0
 10
241.716278
 20
882.499500
 30
0.0
 10
241.166303
 20
883.607100
 30
0.0
  0
SPLINE
  5
153
100
AcDbEntity
  8
0
 62
7
100
AcDbSpline
 70
8
 71
3
 72
8
 73
4
 74
0
 40
0
 40
0
 40
0
 40
0
 40
1
 40
1
 40
1
 40
1
 10
241.166303
 20
883.607100
 30
0.0
 10
240.616343
 20
884.714700
 30
0.0
 10
239.742053
 20
887.414700
 30
0.0
 10
239.223428
 20
889.607100
 30
0.0
  0
SPLINE
  5
154
100
AcDbEntity
  8
0
 62
7
100
AcDbSpline
 70
8
 71
3
 72
8
 73
4
 74
0
 40
0
 40
0
 40
0
 40
0
 40
1
 40
1
 40
1
 40
1
 10
239.223428
 20
889.607100
 30
0.0
 10
238.704825
 20
891.799500
 30
0.0
 10
237.355403
 20
896.124600
 30
0.0
 10
236.224778
 20
899.218350
 30
0.0
  0
SPLINE
  5
155
100
AcDbEntity
  8
0
 62
7
100
AcDbSpline
 70
8
 71
3
 72
8
 73
4
 74
0
 40
0
 40
0
 40
0
 40
0
 40
1
 40
1
 40
1
 40
1
 10
236.224778
 20
899.218350
 30
0.0
 10
235.094078
 20
902.312100
 30
0.0
 10
233.814428
 20
906.193350
 30
0.0
 10
233.381078
 20
907.843350
 30
0.0
  0
SPLINE
  5
156
100
AcDbEntity
  8
0
 62
7
100
AcDbSpline
 70
8
 71
3
 72
8
 73
4
 74
0
 40
0
 40
0
 40
0
 40
0
 40
1
 40
1
 40
1
 40
1
 10
233.381078
 20
907.843350
 30
0.0
 10
232.173578
 20
912.441075
 30
0.0
 10
228.781628
 20
923.742600
 30
0.0
 10
226.853003
 20
929.593350
 30
0.0
  0
SPLINE
  5
157
100
AcDbEntity
  8
0
 62
7
100
AcDbSpline
 70
8
 71
3
 72
8
 73
4
 74
0
 40
0
 40
0
 40
0
 40
0
 40
1
 40
1
 40
1
 40
1
 10
226.853003
 20
929.593350
 30
0.0
 10
225.741428
 20
932.965725
 30
0.0
 10
224.814578
 20
938.464350
 30
0.0
 10
224.261528
 20
944.968350
 30
0.0
  0
SPLINE
  5
158
100
AcDbEntity
  8
0
 62
7
100
AcDbSpline
 70
8
 71
3
 72
8
 73
4
 74
0
 40
0
 40
0
 40
0
 40
0
 40
1
 40
1
 40
1
 40
1
 10
224.261528
 20
944.968350
 30
0.0
 10
223.787970
 20
950.537100
 30
0.0
 10
223.097828
 20
956.443350
 30
0.0
 10
222.727928
 20
958.093350
 30
0.0
  0
SPLINE
  5
159
100
AcDbEntity
  8
0
 62
7
100
AcDbSpline
 70
8
 71
3
 72
8
 73
4
 74
0
 40
0
 40
0
 40
0
 40
0
 40
1
 40
1
 40
1
 40
1
 10
222.727928
 20
958.093350
 30
0.0
 10
222.358020
 20
959.743350
 30
0.0
 10
221.650478
 20
963.118350
 30
0.0
 10
221.155628
 20
965.593350
 30
0.0
  0
SPLINE
  5
15a
100
AcDbEntity
  8
0
 62
7
100
AcDbSpline
 70
8
 71
3
 72
8
 73
4
 74
0
 40
0
 40
0
 40
0
 40
0
 40
1
 40
1
 40
1
 40
1
 10
221.155628
 20
965.593350
 30
0.0
 10
220.660770
 20
968.068350
 30
0.0
 10
219.865478
 20
970.937100
 30
0.0
 10
219.388253
 20
971.968350
 30
0.0
  0
SPLINE
  5
15b
100
AcDbEntity
  8
0
 62
7
100
AcDbSpline
 70
8
 71
3
 72
8
 73
4
 74
0
 40
0
 40
0
 40
0
 40
0
 40
1
 40
1
 40
1
 40
1
 10
219.388253
 20
971.968350
 30
0.0
 10
218.911058
 20
972.999600
 30
0.0
 10
218.447228
 20
977.049600
 30
0.0
 10
218.357603
 20
980.968350
 30
0.0
  0
SPLINE
  5
15c
100
AcDbEntity
  8
0
 62
7
100
AcDbSpline
 70
8
 71
3
 72
8
 73
4
 74
0
 40
0
 40
0
 40
0
 40
0
 40
1
 40
1
 40
1
 40
1
 10
218.357603
 20
980.968350
 30
0.0
 10
218.032050
 20
995.196600
 30
0.0
 10
215.404328
 20
1013.869350
 30
0.0
 10
213.027578
 20
1018.843350
 30
0.0
  0
SPLINE
  5
15d
100
AcDbEntity
  8
0
 62
7
100
AcDbSpline
 70
8
 71
3
 72
8
 73
4
 74
0
 40
0
 40
0
 40
0
 40
0
 40
1
 40
1
 40
1
 40
1
 10
213.027578
 20
1018.843350
 30
0.0
 10
211.844978
 20
1021.318350
 30
0.0
 10
210.127028
 20
1025.705850
 30
0.0
 10
209.209853
 20
1028.593350
 30
0.0
  0
SPLINE
  5
15e
100
AcDbEntity
  8
0
 62
7
100
AcDbSpline
 70
8
 71
3
 72
8
 73
4
 74
0
 40
0
 40
0
 40
0
 40
0
 40
1
 40
1
 40
1
 40
1
 10
209.209853
 20
1028.593350
 30
0.0
 10
205.534853
 20
1040.165850
 30
0.0
 10
198.942353
 20
1048.558350
 30
0.0
 10
192.004853
 20
1050.493350
 30
0.0
  0
SPLINE
  5
15f
100
AcDbEntity
  8
0
 62
7
100
AcDbSpline
 70
8
 71
3
 72
8
 73
4
 74
0
 40
0
 40
0
 40
0
 40
0
 40
1
 40
1
 40
1
 40
1
 10
192.004853
 20
1050.493350
 30
0.0
 10
184.182353
 20
1052.681700
 30
0.0
 10
182.981603
 20
1052.601825
 30
0.0
 10
178.864853
 20
1049.619600
 30
0.0
  0
SPLINE
  5
160
100
AcDbEntity
  8
0
 62
7
100
AcDbSpline
 70
8
 71
3
 72
8
 73
4
 74
0
 40
0
 40
0
 40
0
 40
0
 40
1
 40
1
 40
1
 40
1
 10
178.864853
 20
1049.619600
 30
0.0
 10
168.502103
 20
1042.112850
 30
0.0
 10
146.664353
 20
1038.218100
 30
0.0
 10
138.733853
 20
1042.461975
 30
0.0
  0
SPLINE
  5
161
100
AcDbEntity
  8
0
 62
7
100
AcDbSpline
 70
8
 71
3
 72
8
 73
4
 74
0
 40
0
 40
0
 40
0
 40
0
 40
1
 40
1
 40
1
 40
1
 10
138.733853
 20
1042.461975
 30
0.0
 10
137.825828
 20
1042.947953
 30
0.0
 10
136.100528
 20
1042.952550
 30
0.0
 10
133.738478
 20
1042.475325
 30
0.0
  0
SPLINE
  5
162
100
AcDbEntity
  8
0
 62
7
100
AcDbSpline
 70
8
 71
3
 72
8
 73
4
 74
0
 40
0
 40
0
 40
0
 40
0
 40
1
 40
1
 40
1
 40
1
 10
133.738478
 20
1042.475325
 30
0.0
 10
131.753903
 20
1042.074345
 30
0.0
 10
124.898978
 20
1041.393525
 30
0.0
 10
118.505228
 20
1040.962425
 30
0.0
  0
SPLINE
  5
163
100
AcDbEntity
  8
0
 62
7
100
AcDbSpline
 70
8
 71
3
 72
8
 73
4
 74
0
 40
0
 40
0
 40
0
 40
0
 40
1
 40
1
 40
1
 40
1
 10
118.505228
 20
1040.962425
 30
0.0
 10
106.127228
 20
1040.127750
 30
0.0
 10
100.679228
 20
1039.218225
 30
0.0
 10
97.260728
 20
1037.415750
 30
0.0
  0
SPLINE
  5
164
100
AcDbEntity
  8
0
 62
7
100
AcDbSpline
 70
8
 71
3
 72
8
 73
4
 74
0
 40
0
 40
0
 40
0
 40
0
 40
1
 40
1
 40
1
 40
1
 10
97.260728
 20
1037.415750
 30
0.0
 10
96.094778
 20
1036.801005
 30
0.0
 10
93.563528
 20
1036.340400
 30
0.0
 10
91.635728
 20
1036.392150
 30
0.0
  0
SPLINE
  5
165
100
AcDbEntity
  8
0
 62
7
100
AcDbSpline
 70
8
 71
3
 72
8
 73
4
 74
0
 40
0
 40
0
 40
0
 40
0
 40
1
 40
1
 40
1
 40
1
 10
91.635728
 20
1036.392150
 30
0.0
 10
89.707928
 20
1036.443900
 30
0.0
 10
86.780603
 20
1036.522492
 30
0.0
 10
85.130603
 20
1036.566773
 30
0.0
  0
SPLINE
  5
166
100
AcDbEntity
  8
0
 62
7
100
AcDbSpline
 70
8
 71
3
 72
8
 73
4
 74
0
 40
0
 40
0
 40
0
 40
0
 40
1
 40
1
 40
1
 40
1
 10
85.130603
 20
1036.566773
 30
0.0
 10
83.480603
 20
1036.611098
 30
0.0
 10
73.693103
 20
1036.545623
 30
0.0
 10
63.380603
 20
1036.421280
 30
0.0
  0
SPLINE
  5
167
100
AcDbEntity
  8
0
 62
7
100
AcDbSpline
 70
8
 71
3
 72
8
 73
4
 74
0
 40
0
 40
0
 40
0
 40
0
 40
1
 40
1
 40
1
 40
1
 10
63.380603
 20
1036.421280
 30
0.0
 10
43.974353
 20
1036.187355
 30
0.0
 10
41.032853
 20
1036.503885
 30
0.0
 10
35.260103
 20
1039.447905
 30
0.0
  0
SPLINE
  5
168
100
AcDbEntity
  8
0
 62
7
100
AcDbSpline
 70
8
 71
3
 72
8
 73
4
 74
0
 40
0
 40
0
 40
0
 40
0
 40
1
 40
1
 40
1
 40
1
 10
35.260103
 20
1039.447905
 30
0.0
 10
31.852103
 20
1041.187905
 30
0.0
 10
21.364853
 20
1044.705405
 30
0.0
 10
19.601603
 20
1044.705405
 30
0.0
  0
SPLINE
  5
169
100
AcDbEntity
  8
0
 62
7
100
AcDbSpline
 70
8
 71
3
 72
8
 73
4
 74
0
 40
0
 40
0
 40
0
 40
0
 40
1
 40
1
 40
1
 40
1
 10
19.601603
 20
1044.705405
 30
0.0
 10
18.852398
 20
1044.705405
 30
0.0
 10
16.809278
 20
1046.231280
 30
0.0
 10
15.061328
 20
1048.096155
 30
0.0
  0
SPLINE
  5
16a
100
AcDbEntity
  8
0
 62
7
100
AcDbSpline
 70
8
 71
3
 72
8
 73
4
 74
0
 40
0
 40
0
 40
0
 40
0
 40
1
 40
1
 40
1
 40
1
 10
15.061328
 20
1048.096155
 30
0.0
 10
13.313378
 20
1049.961105
 30
0.0
 10
10.258628
 20
1052.310180
 30
0.0
 10
8.273078
 20
1053.316305
 30
0.0
  0
SPLINE
  5
16b
100
AcDbEntity
  8
0
 62
7
100
AcDbSpline
 70
8
 71
3
 72
8
 73
4
 74
0
 40
0
 40
0
 40
0
 40
0
 40
1
 40
1
 40
1
 40
1
 10
8.273078
 20
1053.316305
 30
0.0
 10
4.449128
 20
1055.251305
 30
0.0
 10
2.995328
 20
1057.703805
 30
0.0
 10
2.995328
 20
1062.196305
 30
0.0
  0
SPLINE
  5
16c
100
AcDbEntity
  8
0
 62
7
100
AcDbSpline
 70
8
 71
3
 72
8
 73
4
 74
0
 40
0
 40
0
 40
0
 40
0
 40
1
 40
1
 40
1
 40
1
 10
2.995328
 20
1062.196305
 30
0.0
 10
2.995328
 20
1063.442880
 30
0.0
 10
2.449163
 20
1065.066330
 30
0.0
 10
1.781603
 20
1065.803955
 30
0.0
  0
SPLINE
  5
16d
100
AcDbEntity
  8
0
 62
7
100
AcDbSpline
 70
8
 71
3
 72
8
 73
4
 74
0
 40
0
 40
0
 40
0
 40
0
 40
1
 40
1
 40
1
 40
1
 10
1.781603
 20
1065.803955
 30
0.0
 10
-1.210297
 20
1069.110030
 30
0.0
 10
-0.486847
 20
1076.089455
 30
0.0
 10
3.320078
 20
1080.645705
 30
0.0
  0
SPLINE
  5
16e
100
AcDbEntity
  8
0
 62
7
100
AcDbSpline
 70
8
 71
3
 72
8
 73
4
 74
0
 40
0
 40
0
 40
0
 40
0
 40
1
 40
1
 40
1
 40
1
 10
3.320078
 20
1080.645705
 30
0.0
 10
4.741778
 20
1082.347305
 30
0.0
 10
6.098828
 20
1084.322580
 30
0.0
 10
6.335753
 20
1085.035155
 30
0.0
  0
SPLINE
  5
16f
100
AcDbEntity
  8
0
 62
7
100
AcDbSpline
 70
8
 71
3
 72
8
 73
4
 74
0
 40
0
 40
0
 40
0
 40
0
 40
1
 40
1
 40
1
 40
1
 10
6.335753
 20
1085.035155
 30
0.0
 10
6.820860
 20
1086.493905
 30
0.0
 10
11.105153
 20
1089.728805
 30
0.0
 10
16.991753
 20
1093.080405
 30
0.0
  0
SPLINE
  5
170
100
AcDbEntity
  8
0
 62
7
100
AcDbSpline
 70
8
 71
3
 72
8
 73
4
 74
0
 40
0
 40
0
 40
0
 40
0
 40
1
 40
1
 40
1
 40
1
 10
16.991753
 20
1093.080405
 30
0.0
 10
22.076303
 20
1095.975780
 30
0.0
 10
31.907753
 20
1103.576655
 30
0.0
 10
38.722253
 20
1109.879655
 30
0.0
  0
SPLINE
  5
171
100
AcDbEntity
  8
0
 62
7
100
AcDbSpline
 70
8
 71
3
 72
8
 73
4
 74
0
 40
0
 40
0
 40
0
 40
0
 40
1
 40
1
 40
1
 40
1
 10
38.722253
 20
1109.879655
 30
0.0
 10
54.782003
 20
1124.735655
 30
0.0
 10
63.460253
 20
1131.692655
 30
0.0
 10
65.943503
 20
1131.701655
 30
0.0
  0
SPLINE
  5
172
100
AcDbEntity
  8
0
 62
7
100
AcDbSpline
 70
8
 71
3
 72
8
 73
4
 74
0
 40
0
 40
0
 40
0
 40
0
 40
1
 40
1
 40
1
 40
1
 10
65.943503
 20
1131.701655
 30
0.0
 10
67.123403
 20
1131.706155
 30
0.0
 10
73.847003
 20
1135.924380
 30
0.0
 10
82.385753
 20
1142.017905
 30
0.0
  0
SPLINE
  5
173
100
AcDbEntity
  8
0
 62
7
100
AcDbSpline
 70
8
 71
3
 72
8
 73
4
 74
0
 40
0
 40
0
 40
0
 40
0
 40
1
 40
1
 40
1
 40
1
 10
82.385753
 20
1142.017905
 30
0.0
 10
85.420403
 20
1144.183530
 30
0.0
 10
88.343528
 20
1145.955405
 30
0.0
 10
88.881503
 20
1145.955405
 30
0.0
  0
SPLINE
  5
174
100
AcDbEntity
  8
0
 62
7
100
AcDbSpline
 70
8
 71
3
 72
8
 73
4
 74
0
 40
0
 40
0
 40
0
 40
0
 40
1
 40
1
 40
1
 40
1
 10
88.881503
 20
1145.955405
 30
0.0
 10
89.419508
 20
1145.955405
 30
0.0
 10
92.210378
 20
1147.896030
 30
0.0
 10
95.083403
 20
1150.267905
 30
0.0
  0
SPLINE
  5
175
100
AcDbEntity
  8
0
 62
7
100
AcDbSpline
 70
8
 71
3
 72
8
 73
4
 74
0
 40
0
 40
0
 40
0
 40
0
 40
1
 40
1
 40
1
 40
1
 10
95.083403
 20
1150.267905
 30
0.0
 10
97.956428
 20
1152.639780
 30
0.0
 10
102.367253
 20
1155.842655
 30
0.0
 10
104.885153
 20
1157.385330
 30
0.0
  0
SPLINE
  5
176
100
AcDbEntity
  8
0
 62
7
100
AcDbSpline
 70
8
 71
3
 72
8
 73
4
 74
0
 40
0
 40
0
 40
0
 40
0
 40
1
 40
1
 40
1
 40
1
 10
104.885153
 20
1157.385330
 30
0.0
 10
108.274928
 20
1159.462230
 30
0.0
 10
109.570328
 20
1160.727555
 30
0.0
 10
109.875803
 20
1162.260330
 30
0.0
  0
SPLINE
  5
177
100
AcDbEntity
  8
0
 62
7
100
AcDbSpline
 70
8
 71
3
 72
8
 73
4
 74
0
 40
0
 40
0
 40
0
 40
0
 40
1
 40
1
 40
1
 40
1
 10
109.875803
 20
1162.260330
 30
0.0
 10
110.102700
 20
1163.398905
 30
0.0
 10
110.603955
 20
1165.303680
 30
0.0
 10
110.989703
 20
1166.493180
 30
0.0
  0
SPLINE
  5
178
100
AcDbEntity
  8
0
 62
7
100
AcDbSpline
 70
8
 71
3
 72
8
 73
4
 74
0
 40
0
 40
0
 40
0
 40
0
 40
1
 40
1
 40
1
 40
1
 10
110.989703
 20
1166.493180
 30
0.0
 10
111.447038
 20
1167.903480
 30
0.0
 10
111.418253
 20
1169.165730
 30
0.0
 10
110.906963
 20
1170.121080
 30
0.0
  0
SPLINE
  5
179
100
AcDbEntity
  8
0
 62
7
100
AcDbSpline
 70
8
 71
3
 72
8
 73
4
 74
0
 40
0
 40
0
 40
0
 40
0
 40
1
 40
1
 40
1
 40
1
 10
110.906963
 20
1170.121080
 30
0.0
 10
109.644488
 20
1172.479980
 30
0.0
 10
110.903213
 20
1178.934330
 30
0.0
 10
113.332463
 20
1182.555330
 30
0.0
  0
SPLINE
  5
17a
100
AcDbEntity
  8
0
 62
7
100
AcDbSpline
 70
8
 71
3
 72
8
 73
4
 74
0
 40
0
 40
0
 40
0
 40
0
 40
1
 40
1
 40
1
 40
1
 10
113.332463
 20
1182.555330
 30
0.0
 10
116.014538
 20
1186.554030
 30
0.0
 10
116.011688
 20
1186.794480
 30
0.0
 10
113.245665
 20
1189.944780
 30
0.0
  0
SPLINE
  5
17b
100
AcDbEntity
  8
0
 62
7
100
AcDbSpline
 70
8
 71
3
 72
8
 73
4
 74
0
 40
0
 40
0
 40
0
 40
0
 40
1
 40
1
 40
1
 40
1
 10
113.245665
 20
1189.944780
 30
0.0
 10
110.050665
 20
1193.597280
 30
0.0
 10
111.033165
 20
1199.957280
 30
0.0
 10
114.805665
 20
1199.957280
 30
0.0
  0
SPLINE
  5
17c
100
AcDbEntity
  8
0
 62
7
100
AcDbSpline
 70
8
 71
3
 72
8
 73
4
 74
0
 40
0
 40
0
 40
0
 40
0
 40
1
 40
1
 40
1
 40
1
 10
114.805665
 20
1199.957280
 30
0.0
 10
116.805015
 20
1199.957280
 30
0.0
 10
121.745115
 20
1202.478630
 30
0.0
 10
126.381165
 20
1205.865405
 30
0.0
  0
SPLINE
  5
17d
100
AcDbEntity
  8
0
 62
7
100
AcDbSpline
 70
8
 71
3
 72
8
 73
4
 74
0
 40
0
 40
0
 40
0
 40
0
 40
1
 40
1
 40
1
 40
1
 10
126.381165
 20
1205.865405
 30
0.0
 10
131.959665
 20
1209.940380
 30
0.0
 10
142.014165
 20
1216.253655
 30
0.0
 10
146.631165
 20
1218.581655
 30
0.0
  0
SPLINE
  5
17e
100
AcDbEntity
  8
0
 62
7
100
AcDbSpline
 70
8
 71
3
 72
8
 73
4
 74
0
 40
0
 40
0
 40
0
 40
0
 40
1
 40
1
 40
1
 40
1
 10
146.631165
 20
1218.581655
 30
0.0
 10
147.868665
 20
1219.205475
 30
0.0
 10
149.893665
 20
1220.462955
 30
0.0
 10
151.131165
 20
1221.376005
 30
0.0
  0
SPLINE
  5
17f
100
AcDbEntity
  8
0
 62
7
100
AcDbSpline
 70
8
 71
3
 72
8
 73
4
 74
0
 40
0
 40
0
 40
0
 40
0
 40
1
 40
1
 40
1
 40
1
 10
151.131165
 20
1221.376005
 30
0.0
 10
152.368665
 20
1222.289055
 30
0.0
 10
154.899915
 20
1223.795805
 30
0.0
 10
156.756165
 20
1224.724305
 30
0.0
  0
SPLINE
  5
180
100
AcDbEntity
  8
0
 62
7
100
AcDbSpline
 70
8
 71
3
 72
8
 73
4
 74
0
 40
0
 40
0
 40
0
 40
0
 40
1
 40
1
 40
1
 40
1
 10
156.756165
 20
1224.724305
 30
0.0
 10
158.612415
 20
1225.652805
 30
0.0
 10
161.085165
 20
1227.210105
 30
0.0
 10
162.251190
 20
1228.184955
 30
0.0
  0
SPLINE
  5
181
100
AcDbEntity
  8
0
 62
7
100
AcDbSpline
 70
8
 71
3
 72
8
 73
4
 74
0
 40
0
 40
0
 40
0
 40
0
 40
1
 40
1
 40
1
 40
1
 10
162.251190
 20
1228.184955
 30
0.0
 10
163.413690
 20
1229.159955
 30
0.0
 10
164.981190
 20
1229.957955
 30
0.0
 10
165.723690
 20
1229.957955
 30
0.0
  0
SPLINE
  5
182
100
AcDbEntity
  8
0
 62
7
100
AcDbSpline
 70
8
 71
3
 72
8
 73
4
 74
0
 40
0
 40
0
 40
0
 40
0
 40
1
 40
1
 40
1
 40
1
 10
165.723690
 20
1229.957955
 30
0.0
 10
166.468868
 20
1229.957955
 30
0.0
 10
168.208290
 20
1231.429530
 30
0.0
 10
169.589040
 20
1233.228180
 30
0.0
  0
SPLINE
  5
183
100
AcDbEntity
  8
0
 62
7
100
AcDbSpline
 70
8
 71
3
 72
8
 73
4
 74
0
 40
0
 40
0
 40
0
 40
0
 40
1
 40
1
 40
1
 40
1
 10
169.589040
 20
1233.228180
 30
0.0
 10
170.969790
 20
1235.026830
 30
0.0
 10
174.637365
 20
1238.149230
 30
0.0
 10
177.739290
 20
1240.166880
 30
0.0
  0
SPLINE
  5
184
100
AcDbEntity
  8
0
 62
7
100
AcDbSpline
 70
8
 71
3
 72
8
 73
4
 74
0
 40
0
 40
0
 40
0
 40
0
 40
1
 40
1
 40
1
 40
1
 10
183.938205
 20
1250.553330
 30
0.0
 10
186.413130
 20
1280.281080
 30
0.0
 10
205.374705
 20
1297.231830
 30
0.0
 10
220.733955
 20
1283.446830
 30
0.0
  0
SPLINE
  5
185
100
AcDbEntity
  8
0
 62
7
100
AcDbSpline
 70
8
 71
3
 72
8
 73
4
 74
0
 40
0
 40
0
 40
0
 40
0
 40
1
 40
1
 40
1
 40
1
 10
220.733955
 20
1283.446830
 30
0.0
 10
222.304305
 20
1282.037430
 30
0.0
 10
225.341805
 20
1279.699680
 30
0.0
 10
227.483955
 20
1278.251805
 30
0.0
  0
SPLINE
  5
186
100
AcDbEntity
  8
0
 62
7
100
AcDbSpline
 70
8
 71
3
 72
8
 73
4
 74
0
 40
0
 40
0
 40
0
 40
0
 40
1
 40
1
 40
1
 40
1
 10
227.483955
 20
1278.251805
 30
0.0
 10
229.626105
 20
1276.803930
 30
0.0
 10
233.020005
 20
1274.457930
 30
0.0
 10
235.025955
 20
1273.038480
 30
0.0
  0
SPLINE
  5
187
100
AcDbEntity
  8
0
 62
7
100
AcDbSpline
 70
8
 71
3
 72
8
 73
4
 74
0
 40
0
 40
0
 40
0
 40
0
 40
1
 40
1
 40
1
 40
1
 10
235.025955
 20
1273.038480
 30
0.0
 10
237.384930
 20
1271.369205
 30
0.0
 10
239.538030
 20
1270.457655
 30
0.0
 10
241.121655
 20
1270.457655
 30
0.0
  0
SPLINE
  5
188
100
AcDbEntity
  8
0
 62
7
100
AcDbSpline
 70
8
 71
3
 72
8
 73
4
 74
0
 40
0
 40
0
 40
0
 40
0
 40
1
 40
1
 40
1
 40
1
 10
241.121655
 20
1270.457655
 30
0.0
 10
242.468280
 20
1270.457655
 30
0.0
 10
244.019655
 20
1269.915960
 30
0.0
 10
244.569105
 20
1269.253905
 30
0.0
  0
SPLINE
  5
189
100
AcDbEntity
  8
0
 62
7
100
AcDbSpline
 70
8
 71
3
 72
8
 73
4
 74
0
 40
0
 40
0
 40
0
 40
0
 40
1
 40
1
 40
1
 40
1
 10
244.569105
 20
1269.253905
 30
0.0
 10
245.389980
 20
1268.264805
 30
0.0
 10
246.376080
 20
1268.151780
 30
0.0
 10
250.098405
 20
1268.619915
 30
0.0
  0
SPLINE
  5
18a
100
AcDbEntity
  8
0
 62
7
100
AcDbSpline
 70
8
 71
3
 72
8
 73
4
 74
0
 40
0
 40
0
 40
0
 40
0
 40
1
 40
1
 40
1
 40
1
 10
250.098405
 20
1268.619915
 30
0.0
 10
257.354505
 20
1269.532515
 30
0.0
 10
275.953905
 20
1269.018615
 30
0.0
 10
277.798155
 20
1267.854540
 30
0.0
  0
SPLINE
  5
18b
100
AcDbEntity
  8
0
 62
7
100
AcDbSpline
 70
8
 71
3
 72
8
 73
4
 74
0
 40
0
 40
0
 40
0
 40
0
 40
1
 40
1
 40
1
 40
1
 10
277.798155
 20
1267.854540
 30
0.0
 10
278.667555
 20
1267.305787
 30
0.0
 10
281.195955
 20
1266.479640
 30
0.0
 10
283.416855
 20
1266.018615
 30
0.0
  0
LWPOLYLINE
  5
18c
100
AcDbEntity
  8
0
 62
7
100
AcDbPolyline
 90
3
 70
0
 10
177.739290
 20
1240.166880
 30
0.0
 10
183.378915
 20
1243.835280
 30
0.0
 10
183.938205
 20
1250.553330
 30
0.0
  0
SPLINE
  5
18d
100
AcDbEntity
  8
0
 62
7
100
AcDbSpline
 70
8
 71
3
 72
8
 73
4
 74
0
 40
0
 40
0
 40
0
 40
0
 40
1
 40
1
 40
1
 40
1
 10
291.291855
 20
1268.108565
 30
0.0
 10
295.271055
 20
1271.145240
 30
0.0
 10
303.748605
 20
1275.151590
 30
0.0
 10
308.172855
 20
1276.086315
 30
0.0
  0
SPLINE
  5
18e
100
AcDbEntity
  8
0
 62
7
100
AcDbSpline
 70
8
 71
3
 72
8
 73
4
 74
0
 40
0
 40
0
 40
0
 40
0
 40
1
 40
1
 40
1
 40
1
 10
308.172855
 20
1276.086315
 30
0.0
 10
309.572280
 20
1276.381942
 30
0.0
 10
312.192030
 20
1277.983215
 30
0.0
 10
313.994505
 20
1279.644765
 30
0.0
  0
SPLINE
  5
18f
100
AcDbEntity
  8
0
 62
7
100
AcDbSpline
 70
8
 71
3
 72
8
 73
4
 74
0
 40
0
 40
0
 40
0
 40
0
 40
1
 40
1
 40
1
 40
1
 10
313.994505
 20
1279.644765
 30
0.0
 10
317.933955
 20
1283.276040
 30
0.0
 10
322.321005
 20
1283.325465
 30
0.0
 10
329.338005
 20
1279.817460
 30
0.0
  0
SPLINE
  5
190
100
AcDbEntity
  8
0
 62
7
100
AcDbSpline
 70
8
 71
3
 72
8
 73
4
 74
0
 40
0
 40
0
 40
0
 40
0
 40
1
 40
1
 40
1
 40
1
 10
329.338005
 20
1279.817460
 30
0.0
 10
333.170130
 20
1277.901735
 30
0.0
 10
334.633980
 20
1276.762860
 30
0.0
 10
339.003255
 20
1272.297960
 30
0.0
  0
SPLINE
  5
191
100
AcDbEntity
  8
0
 62
7
100
AcDbSpline
 70
8
 71
3
 72
8
 73
4
 74
0
 40
0
 40
0
 40
0
 40
0
 40
1
 40
1
 40
1
 40
1
 10
339.003255
 20
1272.297960
 30
0.0
 10
340.034505
 20
1271.244135
 30
0.0
 10
342.892830
 20
1268.458410
 30
0.0
 10
345.355005
 20
1266.107460
 30
0.0
  0
SPLINE
  5
192
100
AcDbEntity
  8
0
 62
7
100
AcDbSpline
 70
8
 71
3
 72
8
 73
4
 74
0
 40
0
 40
0
 40
0
 40
0
 40
1
 40
1
 40
1
 40
1
 10
345.355005
 20
1266.107460
 30
0.0
 10
347.817255
 20
1263.756510
 30
0.0
 10
351.103230
 20
1260.585210
 30
0.0
 10
352.657230
 20
1259.060160
 30
0.0
  0
SPLINE
  5
193
100
AcDbEntity
  8
0
 62
7
100
AcDbSpline
 70
8
 71
3
 72
8
 73
4
 74
0
 40
0
 40
0
 40
0
 40
0
 40
1
 40
1
 40
1
 40
1
 10
352.657230
 20
1259.060160
 30
0.0
 10
354.211230
 20
1257.535110
 30
0.0
 10
356.921730
 20
1255.582785
 30
0.0
 10
358.680480
 20
1254.721710
 30
0.0
  0
SPLINE
  5
194
100
AcDbEntity
  8
0
 62
7
100
AcDbSpline
 70
8
 71
3
 72
8
 73
4
 74
0
 40
0
 40
0
 40
0
 40
0
 40
1
 40
1
 40
1
 40
1
 10
358.680480
 20
1254.721710
 30
0.0
 10
363.577980
 20
1252.323960
 30
0.0
 10
366.318480
 20
1250.727585
 30
0.0
 10
368.361480
 20
1249.083060
 30
0.0
  0
SPLINE
  5
195
100
AcDbEntity
  8
0
 62
7
100
AcDbSpline
 70
8
 71
3
 72
8
 73
4
 74
0
 40
0
 40
0
 40
0
 40
0
 40
1
 40
1
 40
1
 40
1
 10
368.361480
 20
1249.083060
 30
0.0
 10
385.835730
 20
1235.014560
 30
0.0
 10
371.946630
 20
1197.054060
 30
0.0
 10
348.535230
 20
1194.894810
 30
0.0
  0
SPLINE
  5
196
100
AcDbEntity
  8
0
 62
7
100
AcDbSpline
 70
8
 71
3
 72
8
 73
4
 74
0
 40
0
 40
0
 40
0
 40
0
 40
1
 40
1
 40
1
 40
1
 10
348.535230
 20
1194.894810
 30
0.0
 10
343.367280
 20
1194.418208
 30
0.0
 10
341.866830
 20
1192.798185
 30
0.0
 10
343.825305
 20
1189.809285
 30
0.0
  0
SPLINE
  5
197
100
AcDbEntity
  8
0
 62
7
100
AcDbSpline
 70
8
 71
3
 72
8
 73
4
 74
0
 40
0
 40
0
 40
0
 40
0
 40
1
 40
1
 40
1
 40
1
 10
343.825305
 20
1189.809285
 30
0.0
 10
344.473373
 20
1188.820185
 30
0.0
 10
345.003630
 20
1187.006535
 30
0.0
 10
345.003630
 20
1185.778860
 30
0.0
  0
SPLINE
  5
198
100
AcDbEntity
  8
0
 62
7
100
AcDbSpline
 70
8
 71
3
 72
8
 73
4
 74
0
 40
0
 40
0
 40
0
 40
0
 40
1
 40
1
 40
1
 40
1
 10
345.003630
 20
1185.778860
 30
0.0
 10
345.003630
 20
1184.551185
 30
0.0
 10
345.347550
 20
1183.334160
 30
0.0
 10
345.767880
 20
1183.074360
 30
0.0
  0
SPLINE
  5
199
100
AcDbEntity
  8
0
 62
7
100
AcDbSpline
 70
8
 71
3
 72
8
 73
4
 74
0
 40
0
 40
0
 40
0
 40
0
 40
1
 40
1
 40
1
 40
1
 10
345.767880
 20
1183.074360
 30
0.0
 10
346.188218
 20
1182.814575
 30
0.0
 10
347.409105
 20
1180.854060
 30
0.0
 10
348.480930
 20
1178.717610
 30
0.0
  0
SPLINE
  5
19a
100
AcDbEntity
  8
0
 62
7
100
AcDbSpline
 70
8
 71
3
 72
8
 73
4
 74
0
 40
0
 40
0
 40
0
 40
0
 40
1
 40
1
 40
1
 40
1
 10
348.480930
 20
1178.717610
 30
0.0
 10
349.552755
 20
1176.581160
 30
0.0
 10
351.549030
 20
1173.260310
 30
0.0
 10
352.917180
 20
1171.337910
 30
0.0
  0
SPLINE
  5
19b
100
AcDbEntity
  8
0
 62
7
100
AcDbSpline
 70
8
 71
3
 72
8
 73
4
 74
0
 40
0
 40
0
 40
0
 40
0
 40
1
 40
1
 40
1
 40
1
 10
352.917180
 20
1171.337910
 30
0.0
 10
355.879905
 20
1167.174735
 30
0.0
 10
358.503705
 20
1162.181910
 30
0.0
 10
358.503705
 20
1160.706660
 30
0.0
  0
SPLINE
  5
19c
100
AcDbEntity
  8
0
 62
7
100
AcDbSpline
 70
8
 71
3
 72
8
 73
4
 74
0
 40
0
 40
0
 40
0
 40
0
 40
1
 40
1
 40
1
 40
1
 10
358.503705
 20
1160.706660
 30
0.0
 10
358.503705
 20
1159.589235
 30
0.0
 10
365.006430
 20
1145.978160
 30
0.0
 10
369.491205
 20
1137.707910
 30
0.0
  0
SPLINE
  5
19d
100
AcDbEntity
  8
0
 62
7
100
AcDbSpline
 70
8
 71
3
 72
8
 73
4
 74
0
 40
0
 40
0
 40
0
 40
0
 40
1
 40
1
 40
1
 40
1
 10
369.491205
 20
1137.707910
 30
0.0
 10
372.143055
 20
1132.817910
 30
0.0
 10
373.954380
 20
1128.140160
 30
0.0
 10
378.058455
 20
1115.582910
 30
0.0
  0
SPLINE
  5
19e
100
AcDbEntity
  8
0
 62
7
100
AcDbSpline
 70
8
 71
3
 72
8
 73
4
 74
0
 40
0
 40
0
 40
0
 40
0
 40
1
 40
1
 40
1
 40
1
 10
378.058455
 20
1115.582910
 30
0.0
 10
379.271880
 20
1111.870410
 30
0.0
 10
380.665605
 20
1108.157910
 30
0.0
 10
381.155580
 20
1107.332910
 30
0.0
  0
SPLINE
  5
19f
100
AcDbEntity
  8
0
 62
7
100
AcDbSpline
 70
8
 71
3
 72
8
 73
4
 74
0
 40
0
 40
0
 40
0
 40
0
 40
1
 40
1
 40
1
 40
1
 10
381.155580
 20
1107.332910
 30
0.0
 10
384.501405
 20
1101.699735
 30
0.0
 10
386.228130
 20
1098.123660
 30
0.0
 10
386.239905
 20
1096.803660
 30
0.0
  0
SPLINE
  5
1a0
100
AcDbEntity
  8
0
 62
7
100
AcDbSpline
 70
8
 71
3
 72
8
 73
4
 74
0
 40
0
 40
0
 40
0
 40
0
 40
1
 40
1
 40
1
 40
1
 10
386.239905
 20
1096.803660
 30
0.0
 10
386.247405
 20
1095.962760
 30
0.0
 10
386.970938
 20
1093.937760
 30
0.0
 10
387.847830
 20
1092.303660
 30
0.0
  0
SPLINE
  5
1a1
100
AcDbEntity
  8
0
 62
7
100
AcDbSpline
 70
8
 71
3
 72
8
 73
4
 74
0
 40
0
 40
0
 40
0
 40
0
 40
1
 40
1
 40
1
 40
1
 10
387.847830
 20
1092.303660
 30
0.0
 10
388.724723
 20
1090.669560
 30
0.0
 10
389.698230
 20
1087.813860
 30
0.0
 10
390.011280
 20
1085.957610
 30
0.0
  0
SPLINE
  5
1a2
100
AcDbEntity
  8
0
 62
7
100
AcDbSpline
 70
8
 71
3
 72
8
 73
4
 74
0
 40
0
 40
0
 40
0
 40
0
 40
1
 40
1
 40
1
 40
1
 10
390.011280
 20
1085.957610
 30
0.0
 10
390.606510
 20
1082.427960
 30
0.0
 10
391.824705
 20
1078.631685
 30
0.0
 10
393.380580
 20
1075.457610
 30
0.0
  0
SPLINE
  5
1a3
100
AcDbEntity
  8
0
 62
7
100
AcDbSpline
 70
8
 71
3
 72
8
 73
4
 74
0
 40
0
 40
0
 40
0
 40
0
 40
1
 40
1
 40
1
 40
1
 10
393.380580
 20
1075.457610
 30
0.0
 10
393.886088
 20
1074.426360
 30
0.0
 10
394.517580
 20
1072.666935
 30
0.0
 10
394.783980
 20
1071.547710
 30
0.0
  0
SPLINE
  5
1a4
100
AcDbEntity
  8
0
 62
7
100
AcDbSpline
 70
8
 71
3
 72
8
 73
4
 74
0
 40
0
 40
0
 40
0
 40
0
 40
1
 40
1
 40
1
 40
1
 10
394.783980
 20
1071.547710
 30
0.0
 10
395.050328
 20
1070.428560
 30
0.0
 10
396.408105
 20
1067.559810
 30
0.0
 10
397.801305
 20
1065.172710
 30
0.0
  0
SPLINE
  5
1a5
100
AcDbEntity
  8
0
 62
7
100
AcDbSpline
 70
8
 71
3
 72
8
 73
4
 74
0
 40
0
 40
0
 40
0
 40
0
 40
1
 40
1
 40
1
 40
1
 10
397.801305
 20
1065.172710
 30
0.0
 10
399.194505
 20
1062.785610
 30
0.0
 10
400.873305
 20
1059.233460
 30
0.0
 10
401.532030
 20
1057.278960
 30
0.0
  0
SPLINE
  5
1a6
100
AcDbEntity
  8
0
 62
7
100
AcDbSpline
 70
8
 71
3
 72
8
 73
4
 74
0
 40
0
 40
0
 40
0
 40
0
 40
1
 40
1
 40
1
 40
1
 10
401.532030
 20
1057.278960
 30
0.0
 10
402.190740
 20
1055.324460
 30
0.0
 10
403.032705
 20
1053.130710
 30
0.0
 10
403.402980
 20
1052.403960
 30
0.0
  0
SPLINE
  5
1a7
100
AcDbEntity
  8
0
 62
7
100
AcDbSpline
 70
8
 71
3
 72
8
 73
4
 74
0
 40
0
 40
0
 40
0
 40
0
 40
1
 40
1
 40
1
 40
1
 10
403.402980
 20
1052.403960
 30
0.0
 10
403.773308
 20
1051.677173
 30
0.0
 10
404.463855
 20
1049.436510
 30
0.0
 10
404.937555
 20
1047.424635
 30
0.0
  0
SPLINE
  5
1a8
100
AcDbEntity
  8
0
 62
7
100
AcDbSpline
 70
8
 71
3
 72
8
 73
4
 74
0
 40
0
 40
0
 40
0
 40
0
 40
1
 40
1
 40
1
 40
1
 10
404.937555
 20
1047.424635
 30
0.0
 10
405.411233
 20
1045.412760
 30
0.0
 10
407.150130
 20
1041.452835
 30
0.0
 10
408.801855
 20
1038.624885
 30
0.0
  0
SPLINE
  5
1a9
100
AcDbEntity
  8
0
 62
7
100
AcDbSpline
 70
8
 71
3
 72
8
 73
4
 74
0
 40
0
 40
0
 40
0
 40
0
 40
1
 40
1
 40
1
 40
1
 10
408.801855
 20
1038.624885
 30
0.0
 10
412.288755
 20
1032.654435
 30
0.0
 10
416.253555
 20
1024.058385
 30
0.0
 10
416.253555
 20
1022.468385
 30
0.0
  0
SPLINE
  5
1aa
100
AcDbEntity
  8
0
 62
7
100
AcDbSpline
 70
8
 71
3
 72
8
 73
4
 74
0
 40
0
 40
0
 40
0
 40
0
 40
1
 40
1
 40
1
 40
1
 10
416.253555
 20
1022.468385
 30
0.0
 10
416.253555
 20
1021.863900
 30
0.0
 10
417.238905
 20
1020.123510
 30
0.0
 10
418.443105
 20
1018.600785
 30
0.0
  0
SPLINE
  5
1ab
100
AcDbEntity
  8
0
 62
7
100
AcDbSpline
 70
8
 71
3
 72
8
 73
4
 74
0
 40
0
 40
0
 40
0
 40
0
 40
1
 40
1
 40
1
 40
1
 10
418.443105
 20
1018.600785
 30
0.0
 10
419.647380
 20
1017.078135
 30
0.0
 10
422.784855
 20
1012.288485
 30
0.0
 10
425.415405
 20
1007.957535
 30
0.0
  0
SPLINE
  5
1ac
100
AcDbEntity
  8
0
 62
7
100
AcDbSpline
 70
8
 71
3
 72
8
 73
4
 74
0
 40
0
 40
0
 40
0
 40
0
 40
1
 40
1
 40
1
 40
1
 10
425.415405
 20
1007.957535
 30
0.0
 10
428.045880
 20
1003.626285
 30
0.0
 10
431.532405
 20
998.732535
 30
0.0
 10
433.163655
 20
997.082535
 30
0.0
  0
SPLINE
  5
1ad
100
AcDbEntity
  8
0
 62
7
100
AcDbSpline
 70
8
 71
3
 72
8
 73
4
 74
0
 40
0
 40
0
 40
0
 40
0
 40
1
 40
1
 40
1
 40
1
 10
433.163655
 20
997.082535
 30
0.0
 10
434.794530
 20
995.432535
 30
0.0
 10
437.202630
 20
992.502360
 30
0.0
 10
438.515055
 20
990.570960
 30
0.0
  0
SPLINE
  5
1ae
100
AcDbEntity
  8
0
 62
7
100
AcDbSpline
 70
8
 71
3
 72
8
 73
4
 74
0
 40
0
 40
0
 40
0
 40
0
 40
1
 40
1
 40
1
 40
1
 10
438.515055
 20
990.570960
 30
0.0
 10
441.449055
 20
986.253135
 30
0.0
 10
443.741430
 20
984.691860
 30
0.0
 10
447.912555
 20
984.170460
 30
0.0
  0
SPLINE
  5
1af
100
AcDbEntity
  8
0
 62
7
100
AcDbSpline
 70
8
 71
3
 72
8
 73
4
 74
0
 40
0
 40
0
 40
0
 40
0
 40
1
 40
1
 40
1
 40
1
 10
447.912555
 20
984.170460
 30
0.0
 10
449.681430
 20
983.949353
 30
0.0
 10
452.258805
 20
983.087910
 30
0.0
 10
453.640080
 20
982.256160
 30
0.0
  0
SPLINE
  5
1b0
100
AcDbEntity
  8
0
 62
7
100
AcDbSpline
 70
8
 71
3
 72
8
 73
4
 74
0
 40
0
 40
0
 40
0
 40
0
 40
1
 40
1
 40
1
 40
1
 10
453.640080
 20
982.256160
 30
0.0
 10
455.090880
 20
981.382560
 30
0.0
 10
458.416605
 20
980.490960
 30
0.0
 10
461.515080
 20
980.145060
 30
0.0
  0
SPLINE
  5
1b1
100
AcDbEntity
  8
0
 62
7
100
AcDbSpline
 70
8
 71
3
 72
8
 73
4
 74
0
 40
0
 40
0
 40
0
 40
0
 40
1
 40
1
 40
1
 40
1
 10
461.515080
 20
980.145060
 30
0.0
 10
464.465055
 20
979.815735
 30
0.0
 10
469.240830
 20
979.133310
 30
0.0
 10
472.128330
 20
978.628635
 30
0.0
  0
SPLINE
  5
1b2
100
AcDbEntity
  8
0
 62
7
100
AcDbSpline
 70
8
 71
3
 72
8
 73
4
 74
0
 40
0
 40
0
 40
0
 40
0
 40
1
 40
1
 40
1
 40
1
 10
472.128330
 20
978.628635
 30
0.0
 10
475.015830
 20
978.123900
 30
0.0
 10
478.968930
 20
977.776185
 30
0.0
 10
480.913080
 20
977.855985
 30
0.0
  0
SPLINE
  5
1b3
100
AcDbEntity
  8
0
 62
7
100
AcDbSpline
 70
8
 71
3
 72
8
 73
4
 74
0
 40
0
 40
0
 40
0
 40
0
 40
1
 40
1
 40
1
 40
1
 10
480.913080
 20
977.855985
 30
0.0
 10
482.857080
 20
977.935763
 30
0.0
 10
485.674080
 20
977.488613
 30
0.0
 10
487.173030
 20
976.862310
 30
0.0
  0
SPLINE
  5
1b4
100
AcDbEntity
  8
0
 62
7
100
AcDbSpline
 70
8
 71
3
 72
8
 73
4
 74
0
 40
0
 40
0
 40
0
 40
0
 40
1
 40
1
 40
1
 40
1
 10
487.173030
 20
976.862310
 30
0.0
 10
488.840880
 20
976.165448
 30
0.0
 10
493.580730
 20
975.547635
 30
0.0
 10
499.388280
 20
975.270060
 30
0.0
  0
SPLINE
  5
1b5
100
AcDbEntity
  8
0
 62
7
100
AcDbSpline
 70
8
 71
3
 72
8
 73
4
 74
0
 40
0
 40
0
 40
0
 40
0
 40
1
 40
1
 40
1
 40
1
 10
499.388280
 20
975.270060
 30
0.0
 10
505.765905
 20
974.965298
 30
0.0
 10
510.846030
 20
974.261760
 30
0.0
 10
514.878030
 20
973.124835
 30
0.0
  0
SPLINE
  5
1b6
100
AcDbEntity
  8
0
 62
7
100
AcDbSpline
 70
8
 71
3
 72
8
 73
4
 74
0
 40
0
 40
0
 40
0
 40
0
 40
1
 40
1
 40
1
 40
1
 10
514.878030
 20
973.124835
 30
0.0
 10
522.736530
 20
970.909185
 30
0.0
 10
529.257030
 20
969.690360
 30
0.0
 10
535.806780
 20
969.212985
 30
0.0
  0
SPLINE
  5
1b7
100
AcDbEntity
  8
0
 62
7
100
AcDbSpline
 70
8
 71
3
 72
8
 73
4
 74
0
 40
0
 40
0
 40
0
 40
0
 40
1
 40
1
 40
1
 40
1
 10
535.806780
 20
969.212985
 30
0.0
 10
538.733580
 20
968.999655
 30
0.0
 10
542.647005
 20
968.368635
 30
0.0
 10
544.503030
 20
967.810785
 30
0.0
  0
SPLINE
  5
1b8
100
AcDbEntity
  8
0
 62
7
100
AcDbSpline
 70
8
 71
3
 72
8
 73
4
 74
0
 40
0
 40
0
 40
0
 40
0
 40
1
 40
1
 40
1
 40
1
 10
544.503030
 20
967.810785
 30
0.0
 10
549.509955
 20
966.305985
 30
0.0
 10
559.388280
 20
965.809110
 30
0.0
 10
570.378030
 20
966.509235
 30
0.0
  0
SPLINE
  5
1b9
100
AcDbEntity
  8
0
 62
7
100
AcDbSpline
 70
8
 71
3
 72
8
 73
4
 74
0
 40
0
 40
0
 40
0
 40
0
 40
1
 40
1
 40
1
 40
1
 10
570.378030
 20
966.509235
 30
0.0
 10
580.170780
 20
967.133115
 30
0.0
 10
593.924280
 20
966.620055
 30
0.0
 10
603.003030
 20
965.292210
 30
0.0
  0
SPLINE
  5
1ba
100
AcDbEntity
  8
0
 62
7
100
AcDbSpline
 70
8
 71
3
 72
8
 73
4
 74
0
 40
0
 40
0
 40
0
 40
0
 40
1
 40
1
 40
1
 40
1
 10
603.003030
 20
965.292210
 30
0.0
 10
630.737280
 20
961.235685
 30
0.0
 10
665.982780
 20
959.811060
 30
0.0
 10
672.166530
 20
962.496510
 30
0.0
  0
SPLINE
  5
1bb
100
AcDbEntity
  8
0
 62
7
100
AcDbSpline
 70
8
 71
3
 72
8
 73
4
 74
0
 40
0
 40
0
 40
0
 40
0
 40
1
 40
1
 40
1
 40
1
 10
672.166530
 20
962.496510
 30
0.0
 10
673.700130
 20
963.162578
 30
0.0
 10
676.805580
 20
963.707535
 30
0.0
 10
679.067430
 20
963.707535
 30
0.0
  0
SPLINE
  5
1bc
100
AcDbEntity
  8
0
 62
7
100
AcDbSpline
 70
8
 71
3
 72
8
 73
4
 74
0
 40
0
 40
0
 40
0
 40
0
 40
1
 40
1
 40
1
 40
1
 10
679.067430
 20
963.707535
 30
0.0
 10
683.232480
 20
963.707535
 30
0.0
 10
690.148680
 20
965.180085
 30
0.0
 10
692.900430
 20
966.652635
 30
0.0
  0
SPLINE
  5
1bd
100
AcDbEntity
  8
0
 62
7
100
AcDbSpline
 70
8
 71
3
 72
8
 73
4
 74
0
 40
0
 40
0
 40
0
 40
0
 40
1
 40
1
 40
1
 40
1
 10
692.900430
 20
966.652635
 30
0.0
 10
693.727680
 20
967.095353
 30
0.0
 10
695.692305
 20
967.463460
 30
0.0
 10
697.266255
 20
967.470585
 30
0.0
  0
SPLINE
  5
1be
100
AcDbEntity
  8
0
 62
7
100
AcDbSpline
 70
8
 71
3
 72
8
 73
4
 74
0
 40
0
 40
0
 40
0
 40
0
 40
1
 40
1
 40
1
 40
1
 10
697.266255
 20
967.470585
 30
0.0
 10
698.840280
 20
967.478085
 30
0.0
 10
702.490530
 20
967.990680
 30
0.0
 10
705.378255
 20
968.610435
 30
0.0
  0
SPLINE
  5
1bf
100
AcDbEntity
  8
0
 62
7
100
AcDbSpline
 70
8
 71
3
 72
8
 73
4
 74
0
 40
0
 40
0
 40
0
 40
0
 40
1
 40
1
 40
1
 40
1
 10
705.378255
 20
968.610435
 30
0.0
 10
708.265755
 20
969.230190
 30
0.0
 10
712.822005
 20
970.063860
 30
0.0
 10
715.503255
 20
970.463085
 30
0.0
  0
SPLINE
  5
1c0
100
AcDbEntity
  8
0
 62
7
100
AcDbSpline
 70
8
 71
3
 72
8
 73
4
 74
0
 40
0
 40
0
 40
0
 40
0
 40
1
 40
1
 40
1
 40
1
 10
715.503255
 20
970.463085
 30
0.0
 10
724.972005
 20
971.872860
 30
0.0
 10
733.935255
 20
973.451235
 30
0.0
 10
738.753255
 20
974.557260
 30
0.0
  0
SPLINE
  5
1c1
100
AcDbEntity
  8
0
 62
7
100
AcDbSpline
 70
8
 71
3
 72
8
 73
4
 74
0
 40
0
 40
0
 40
0
 40
0
 40
1
 40
1
 40
1
 40
1
 10
738.753255
 20
974.557260
 30
0.0
 10
741.434505
 20
975.172740
 30
0.0
 10
744.978255
 20
975.695310
 30
0.0
 10
746.628255
 20
975.718560
 30
0.0
  0
SPLINE
  5
1c2
100
AcDbEntity
  8
0
 62
7
100
AcDbSpline
 70
8
 71
3
 72
8
 73
4
 74
0
 40
0
 40
0
 40
0
 40
0
 40
1
 40
1
 40
1
 40
1
 10
746.628255
 20
975.718560
 30
0.0
 10
750.939330
 20
975.779235
 30
0.0
 10
761.987505
 20
977.609310
 30
0.0
 10
764.628255
 20
978.700260
 30
0.0
  0
SPLINE
  5
1c3
100
AcDbEntity
  8
0
 62
7
100
AcDbSpline
 70
8
 71
3
 72
8
 73
4
 74
0
 40
0
 40
0
 40
0
 40
0
 40
1
 40
1
 40
1
 40
1
 10
764.628255
 20
978.700260
 30
0.0
 10
766.686705
 20
979.550535
 30
0.0
 10
776.235255
 20
980.443410
 30
0.0
 10
792.753255
 20
981.330135
 30
0.0
  0
SPLINE
  5
1c4
100
AcDbEntity
  8
0
 62
7
100
AcDbSpline
 70
8
 71
3
 72
8
 73
4
 74
0
 40
0
 40
0
 40
0
 40
0
 40
1
 40
1
 40
1
 40
1
 10
792.753255
 20
981.330135
 30
0.0
 10
796.259505
 20
981.518363
 30
0.0
 10
800.815755
 20
981.878513
 30
0.0
 10
802.878255
 20
982.130460
 30
0.0
  0
SPLINE
  5
1c5
100
AcDbEntity
  8
0
 62
7
100
AcDbSpline
 70
8
 71
3
 72
8
 73
4
 74
0
 40
0
 40
0
 40
0
 40
0
 40
1
 40
1
 40
1
 40
1
 10
802.878255
 20
982.130460
 30
0.0
 10
804.940755
 20
982.382423
 30
0.0
 10
810.678255
 20
982.732148
 30
0.0
 10
815.628255
 20
982.907610
 30
0.0
  0
SPLINE
  5
1c6
100
AcDbEntity
  8
0
 62
7
100
AcDbSpline
 70
8
 71
3
 72
8
 73
4
 74
0
 40
0
 40
0
 40
0
 40
0
 40
1
 40
1
 40
1
 40
1
 10
815.628255
 20
982.907610
 30
0.0
 10
820.578255
 20
983.083095
 30
0.0
 10
827.834505
 20
983.566343
 30
0.0
 10
831.753255
 20
983.981460
 30
0.0
  0
SPLINE
  5
1c7
100
AcDbEntity
  8
0
 62
7
100
AcDbSpline
 70
8
 71
3
 72
8
 73
4
 74
0
 40
0
 40
0
 40
0
 40
0
 40
1
 40
1
 40
1
 40
1
 10
831.753255
 20
983.981460
 30
0.0
 10
844.036005
 20
985.282635
 30
0.0
 10
853.665255
 20
985.483035
 30
0.0
 10
859.724505
 20
984.563505
 30
0.0
  0
SPLINE
  5
1c8
100
AcDbEntity
  8
0
 62
7
100
AcDbSpline
 70
8
 71
3
 72
8
 73
4
 74
0
 40
0
 40
0
 40
0
 40
0
 40
1
 40
1
 40
1
 40
1
 10
859.724505
 20
984.563505
 30
0.0
 10
864.310080
 20
983.867588
 30
0.0
 10
866.779455
 20
983.879400
 30
0.0
 10
871.177005
 20
984.618330
 30
0.0
  0
SPLINE
  5
1c9
100
AcDbEntity
  8
0
 62
7
100
AcDbSpline
 70
8
 71
3
 72
8
 73
4
 74
0
 40
0
 40
0
 40
0
 40
0
 40
1
 40
1
 40
1
 40
1
 10
871.177005
 20
984.618330
 30
0.0
 10
878.490180
 20
985.847130
 30
0.0
 10
922.201755
 20
986.481030
 30
0.0
 10
931.128255
 20
985.487730
 30
0.0
  0
SPLINE
  5
1ca
100
AcDbEntity
  8
0
 62
7
100
AcDbSpline
 70
8
 71
3
 72
8
 73
4
 74
0
 40
0
 40
0
 40
0
 40
0
 40
1
 40
1
 40
1
 40
1
 10
931.128255
 20
985.487730
 30
0.0
 10
934.840755
 20
985.074630
 30
0.0
 10
941.253255
 20
984.230505
 30
0.0
 10
945.378255
 20
983.611980
 30
0.0
  0
SPLINE
  5
1cb
100
AcDbEntity
  8
0
 62
7
100
AcDbSpline
 70
8
 71
3
 72
8
 73
4
 74
0
 40
0
 40
0
 40
0
 40
0
 40
1
 40
1
 40
1
 40
1
 10
945.378255
 20
983.611980
 30
0.0
 10
949.503255
 20
982.993410
 30
0.0
 10
957.097005
 20
981.962430
 30
0.0
 10
962.253255
 20
981.320805
 30
0.0
  0
SPLINE
  5
1cc
100
AcDbEntity
  8
0
 62
7
100
AcDbSpline
 70
8
 71
3
 72
8
 73
4
 74
0
 40
0
 40
0
 40
0
 40
0
 40
1
 40
1
 40
1
 40
1
 10
962.253255
 20
981.320805
 30
0.0
 10
979.843005
 20
979.132230
 30
0.0
 10
983.629005
 20
978.644655
 30
0.0
 10
988.878255
 20
977.892405
 30
0.0
  0
SPLINE
  5
1cd
100
AcDbEntity
  8
0
 62
7
100
AcDbSpline
 70
8
 71
3
 72
8
 73
4
 74
0
 40
0
 40
0
 40
0
 40
0
 40
1
 40
1
 40
1
 40
1
 10
988.878255
 20
977.892405
 30
0.0
 10
991.765755
 20
977.478570
 30
0.0
 10
995.309505
 20
977.126880
 30
0.0
 10
996.753255
 20
977.110830
 30
0.0
  0
SPLINE
  5
1ce
100
AcDbEntity
  8
0
 62
7
100
AcDbSpline
 70
8
 71
3
 72
8
 73
4
 74
0
 40
0
 40
0
 40
0
 40
0
 40
1
 40
1
 40
1
 40
1
 10
996.753255
 20
977.110830
 30
0.0
 10
998.197005
 20
977.094780
 30
0.0
 10
1002.584505
 20
976.397115
 30
0.0
 10
1006.503255
 20
975.560505
 30
0.0
  0
SPLINE
  5
1cf
100
AcDbEntity
  8
0
 62
7
100
AcDbSpline
 70
8
 71
3
 72
8
 73
4
 74
0
 40
0
 40
0
 40
0
 40
0
 40
1
 40
1
 40
1
 40
1
 10
1006.503255
 20
975.560505
 30
0.0
 10
1017.728505
 20
973.163955
 30
0.0
 10
1023.915255
 20
971.923830
 30
0.0
 10
1026.753255
 20
971.501505
 30
0.0
  0
SPLINE
  5
1d0
100
AcDbEntity
  8
0
 62
7
100
AcDbSpline
 70
8
 71
3
 72
8
 73
4
 74
0
 40
0
 40
0
 40
0
 40
0
 40
1
 40
1
 40
1
 40
1
 10
1026.753255
 20
971.501505
 30
0.0
 10
1031.457330
 20
970.801440
 30
0.0
 10
1042.047255
 20
968.120205
 30
0.0
 10
1045.501755
 20
966.754380
 30
0.0
  0
SPLINE
  5
1d1
100
AcDbEntity
  8
0
 62
7
100
AcDbSpline
 70
8
 71
3
 72
8
 73
4
 74
0
 40
0
 40
0
 40
0
 40
0
 40
1
 40
1
 40
1
 40
1
 10
1045.501755
 20
966.754380
 30
0.0
 10
1050.910155
 20
964.616430
 30
0.0
 10
1054.378755
 20
963.601080
 30
0.0
 10
1058.512005
 20
962.946405
 30
0.0
  0
SPLINE
  5
1d2
100
AcDbEntity
  8
0
 62
7
100
AcDbSpline
 70
8
 71
3
 72
8
 73
4
 74
0
 40
0
 40
0
 40
0
 40
0
 40
1
 40
1
 40
1
 40
1
 10
1058.512005
 20
962.946405
 30
0.0
 10
1060.638330
 20
962.609565
 30
0.0
 10
1064.740530
 20
961.439055
 30
0.0
 10
1067.628255
 20
960.345180
 30
0.0
  0
SPLINE
  5
1d3
100
AcDbEntity
  8
0
 62
7
100
AcDbSpline
 70
8
 71
3
 72
8
 73
4
 74
0
 40
0
 40
0
 40
0
 40
0
 40
1
 40
1
 40
1
 40
1
 10
1067.628255
 20
960.345180
 30
0.0
 10
1070.515755
 20
959.251380
 30
0.0
 10
1073.722005
 20
958.088730
 30
0.0
 10
1074.753255
 20
957.761505
 30
0.0
  0
SPLINE
  5
1d4
100
AcDbEntity
  8
0
 62
7
100
AcDbSpline
 70
8
 71
3
 72
8
 73
4
 74
0
 40
0
 40
0
 40
0
 40
0
 40
1
 40
1
 40
1
 40
1
 10
1074.753255
 20
957.761505
 30
0.0
 10
1075.784505
 20
957.434325
 30
0.0
 10
1078.297455
 20
956.107080
 30
0.0
 10
1080.337605
 20
954.812130
 30
0.0
  0
SPLINE
  5
1d5
100
AcDbEntity
  8
0
 62
7
100
AcDbSpline
 70
8
 71
3
 72
8
 73
4
 74
0
 40
0
 40
0
 40
0
 40
0
 40
1
 40
1
 40
1
 40
1
 10
1080.337605
 20
954.812130
 30
0.0
 10
1082.444055
 20
953.475105
 30
0.0
 10
1085.053005
 20
952.457655
 30
0.0
 10
1086.375105
 20
952.457655
 30
0.0
  0
SPLINE
  5
1d6
100
AcDbEntity
  8
0
 62
7
100
AcDbSpline
 70
8
 71
3
 72
8
 73
4
 74
0
 40
0
 40
0
 40
0
 40
0
 40
1
 40
1
 40
1
 40
1
 10
1086.375105
 20
952.457655
 30
0.0
 10
1087.655580
 20
952.457655
 30
0.0
 10
1089.023880
 20
952.139213
 30
0.0
 10
1089.415755
 20
951.750015
 30
0.0
  0
SPLINE
  5
1d7
100
AcDbEntity
  8
0
 62
7
100
AcDbSpline
 70
8
 71
3
 72
8
 73
4
 74
0
 40
0
 40
0
 40
0
 40
0
 40
1
 40
1
 40
1
 40
1
 10
1089.415755
 20
951.750015
 30
0.0
 10
1090.046955
 20
951.123113
 30
0.0
 10
1096.914330
 20
948.626715
 30
0.0
 10
1107.003255
 20
945.356790
 30
0.0
  0
SPLINE
  5
1d8
100
AcDbEntity
  8
0
 62
7
100
AcDbSpline
 70
8
 71
3
 72
8
 73
4
 74
0
 40
0
 40
0
 40
0
 40
0
 40
1
 40
1
 40
1
 40
1
 10
1107.003255
 20
945.356790
 30
0.0
 10
1108.859505
 20
944.755148
 30
0.0
 10
1113.919680
 20
943.363440
 30
0.0
 10
1118.248005
 20
942.264165
 30
0.0
  0
SPLINE
  5
1d9
100
AcDbEntity
  8
0
 62
7
100
AcDbSpline
 70
8
 71
3
 72
8
 73
4
 74
0
 40
0
 40
0
 40
0
 40
0
 40
1
 40
1
 40
1
 40
1
 10
1118.248005
 20
942.264165
 30
0.0
 10
1122.576405
 20
941.164890
 30
0.0
 10
1128.651255
 20
939.164715
 30
0.0
 10
1131.748005
 20
937.819440
 30
0.0
  0
SPLINE
  5
1da
100
AcDbEntity
  8
0
 62
7
100
AcDbSpline
 70
8
 71
3
 72
8
 73
4
 74
0
 40
0
 40
0
 40
0
 40
0
 40
1
 40
1
 40
1
 40
1
 10
1131.748005
 20
937.819440
 30
0.0
 10
1134.844680
 20
936.474165
 30
0.0
 10
1138.222005
 20
935.138940
 30
0.0
 10
1139.253255
 20
934.852290
 30
0.0
  0
SPLINE
  5
1db
100
AcDbEntity
  8
0
 62
7
100
AcDbSpline
 70
8
 71
3
 72
8
 73
4
 74
0
 40
0
 40
0
 40
0
 40
0
 40
1
 40
1
 40
1
 40
1
 10
1139.253255
 20
934.852290
 30
0.0
 10
1145.195880
 20
933.200640
 30
0.0
 10
1160.148255
 20
926.267040
 30
0.0
 10
1171.503255
 20
919.896540
 30
0.0
  0
SPLINE
  5
1dc
100
AcDbEntity
  8
0
 62
7
100
AcDbSpline
 70
8
 71
3
 72
8
 73
4
 74
0
 40
0
 40
0
 40
0
 40
0
 40
1
 40
1
 40
1
 40
1
 10
1171.503255
 20
919.896540
 30
0.0
 10
1175.009505
 20
917.929590
 30
0.0
 10
1180.357755
 20
915.329340
 30
0.0
 10
1183.387755
 20
914.118165
 30
0.0
  0
SPLINE
  5
1dd
100
AcDbEntity
  8
0
 62
7
100
AcDbSpline
 70
8
 71
3
 72
8
 73
4
 74
0
 40
0
 40
0
 40
0
 40
0
 40
1
 40
1
 40
1
 40
1
 10
1183.387755
 20
914.118165
 30
0.0
 10
1186.417755
 20
912.906990
 30
0.0
 10
1190.805255
 20
910.624140
 30
0.0
 10
1193.137755
 20
909.045165
 30
0.0
  0
SPLINE
  5
1de
100
AcDbEntity
  8
0
 62
7
100
AcDbSpline
 70
8
 71
3
 72
8
 73
4
 74
0
 40
0
 40
0
 40
0
 40
0
 40
1
 40
1
 40
1
 40
1
 10
1193.137755
 20
909.045165
 30
0.0
 10
1195.470255
 20
907.466190
 30
0.0
 10
1198.391130
 20
905.647140
 30
0.0
 10
1199.628630
 20
905.002890
 30
0.0
  0
SPLINE
  5
1df
100
AcDbEntity
  8
0
 62
7
100
AcDbSpline
 70
8
 71
3
 72
8
 73
4
 74
0
 40
0
 40
0
 40
0
 40
0
 40
1
 40
1
 40
1
 40
1
 10
1199.628630
 20
905.002890
 30
0.0
 10
1200.866130
 20
904.358640
 30
0.0
 10
1204.747380
 20
901.522890
 30
0.0
 10
1208.253630
 20
898.701240
 30
0.0
  0
SPLINE
  5
1e0
100
AcDbEntity
  8
0
 62
7
100
AcDbSpline
 70
8
 71
3
 72
8
 73
4
 74
0
 40
0
 40
0
 40
0
 40
0
 40
1
 40
1
 40
1
 40
1
 10
1208.253630
 20
898.701240
 30
0.0
 10
1211.759880
 20
895.879590
 30
0.0
 10
1217.919630
 20
891.419565
 30
0.0
 10
1221.941130
 20
888.789990
 30
0.0
  0
SPLINE
  5
1e1
100
AcDbEntity
  8
0
 62
7
100
AcDbSpline
 70
8
 71
3
 72
8
 73
4
 74
0
 40
0
 40
0
 40
0
 40
0
 40
1
 40
1
 40
1
 40
1
 10
1221.941130
 20
888.789990
 30
0.0
 10
1225.963005
 20
886.160490
 30
0.0
 10
1229.253630
 20
883.726890
 30
0.0
 10
1229.253630
 20
883.381890
 30
0.0
  0
SPLINE
  5
1e2
100
AcDbEntity
  8
0
 62
7
100
AcDbSpline
 70
8
 71
3
 72
8
 73
4
 74
0
 40
0
 40
0
 40
0
 40
0
 40
1
 40
1
 40
1
 40
1
 10
1229.253630
 20
883.381890
 30
0.0
 10
1229.253630
 20
883.036905
 30
0.0
 10
1231.194255
 20
881.340690
 30
0.0
 10
1233.566130
 20
879.612390
 30
0.0
  0
SPLINE
  5
1e3
100
AcDbEntity
  8
0
 62
7
100
AcDbSpline
 70
8
 71
3
 72
8
 73
4
 74
0
 40
0
 40
0
 40
0
 40
0
 40
1
 40
1
 40
1
 40
1
 10
1233.566130
 20
879.612390
 30
0.0
 10
1237.588680
 20
876.681465
 30
0.0
 10
1239.830880
 20
874.780815
 30
0.0
 10
1250.692380
 20
865.095390
 30
0.0
  0
SPLINE
  5
1e4
100
AcDbEntity
  8
0
 62
7
100
AcDbSpline
 70
8
 71
3
 72
8
 73
4
 74
0
 40
0
 40
0
 40
0
 40
0
 40
1
 40
1
 40
1
 40
1
 10
1250.692380
 20
865.095390
 30
0.0
 10
1252.997130
 20
863.040165
 30
0.0
 10
1255.899555
 20
859.833915
 30
0.0
 10
1257.142230
 20
857.970390
 30
0.0
  0
SPLINE
  5
1e5
100
AcDbEntity
  8
0
 62
7
100
AcDbSpline
 70
8
 71
3
 72
8
 73
4
 74
0
 40
0
 40
0
 40
0
 40
0
 40
1
 40
1
 40
1
 40
1
 10
1257.142230
 20
857.970390
 30
0.0
 10
1258.384830
 20
856.106865
 30
0.0
 10
1260.380805
 20
853.798290
 30
0.0
 10
1261.577730
 20
852.840240
 30
0.0
  0
SPLINE
  5
1e6
100
AcDbEntity
  8
0
 62
7
100
AcDbSpline
 70
8
 71
3
 72
8
 73
4
 74
0
 40
0
 40
0
 40
0
 40
0
 40
1
 40
1
 40
1
 40
1
 10
1261.577730
 20
852.840240
 30
0.0
 10
1262.774655
 20
851.882190
 30
0.0
 10
1263.753930
 20
850.780215
 30
0.0
 10
1263.753930
 20
850.391415
 30
0.0
  0
SPLINE
  5
1e7
100
AcDbEntity
  8
0
 62
7
100
AcDbSpline
 70
8
 71
3
 72
8
 73
4
 74
0
 40
0
 40
0
 40
0
 40
0
 40
1
 40
1
 40
1
 40
1
 10
1263.753930
 20
850.391415
 30
0.0
 10
1263.753930
 20
850.002563
 30
0.0
 10
1265.778930
 20
847.136190
 30
0.0
 10
1268.253930
 20
844.021665
 30
0.0
  0
SPLINE
  5
1e8
100
AcDbEntity
  8
0
 62
7
100
AcDbSpline
 70
8
 71
3
 72
8
 73
4
 74
0
 40
0
 40
0
 40
0
 40
0
 40
1
 40
1
 40
1
 40
1
 10
1268.253930
 20
844.021665
 30
0.0
 10
1270.728930
 20
840.907140
 30
0.0
 10
1272.753930
 20
838.019940
 30
0.0
 10
1272.753930
 20
837.605640
 30
0.0
  0
SPLINE
  5
1e9
100
AcDbEntity
  8
0
 62
7
100
AcDbSpline
 70
8
 71
3
 72
8
 73
4
 74
0
 40
0
 40
0
 40
0
 40
0
 40
1
 40
1
 40
1
 40
1
 10
1272.753930
 20
837.605640
 30
0.0
 10
1272.753930
 20
835.598865
 30
0.0
 10
1277.531805
 20
830.151465
 30
0.0
 10
1280.458680
 20
828.821640
 30
0.0
  0
SPLINE
  5
1ea
100
AcDbEntity
  8
0
 62
7
100
AcDbSpline
 70
8
 71
3
 72
8
 73
4
 74
0
 40
0
 40
0
 40
0
 40
0
 40
1
 40
1
 40
1
 40
1
 10
1280.458680
 20
828.821640
 30
0.0
 10
1286.158230
 20
826.231590
 30
0.0
 10
1293.353430
 20
818.125890
 30
0.0
 10
1297.189680
 20
809.974140
 30
0.0
  0
SPLINE
  5
1eb
100
AcDbEntity
  8
0
 62
7
100
AcDbSpline
 70
8
 71
3
 72
8
 73
4
 74
0
 40
0
 40
0
 40
0
 40
0
 40
1
 40
1
 40
1
 40
1
 10
1297.189680
 20
809.974140
 30
0.0
 10
1297.864755
 20
808.539690
 30
0.0
 10
1299.346155
 20
806.008440
 30
0.0
 10
1300.481730
 20
804.349140
 30
0.0
  0
SPLINE
  5
1ec
100
AcDbEntity
  8
0
 62
7
100
AcDbSpline
 70
8
 71
3
 72
8
 73
4
 74
0
 40
0
 40
0
 40
0
 40
0
 40
1
 40
1
 40
1
 40
1
 10
1300.481730
 20
804.349140
 30
0.0
 10
1303.811805
 20
799.483440
 30
0.0
 10
1316.254230
 20
773.627640
 30
0.0
 10
1316.254230
 20
771.573390
 30
0.0
  0
SPLINE
  5
1ed
100
AcDbEntity
  8
0
 62
7
100
AcDbSpline
 70
8
 71
3
 72
8
 73
4
 74
0
 40
0
 40
0
 40
0
 40
0
 40
1
 40
1
 40
1
 40
1
 10
1316.254230
 20
771.573390
 30
0.0
 10
1316.254230
 20
769.045215
 30
0.0
 10
1318.566855
 20
762.475890
 30
0.0
 10
1321.372980
 20
757.033140
 30
0.0
  0
SPLINE
  5
1ee
100
AcDbEntity
  8
0
 62
7
100
AcDbSpline
 70
8
 71
3
 72
8
 73
4
 74
0
 40
0
 40
0
 40
0
 40
0
 40
1
 40
1
 40
1
 40
1
 10
1321.372980
 20
757.033140
 30
0.0
 10
1322.635155
 20
754.585140
 30
0.0
 10
1323.889080
 20
751.668015
 30
0.0
 10
1324.159605
 20
750.550515
 30
0.0
  0
SPLINE
  5
1ef
100
AcDbEntity
  8
0
 62
7
100
AcDbSpline
 70
8
 71
3
 72
8
 73
4
 74
0
 40
0
 40
0
 40
0
 40
0
 40
1
 40
1
 40
1
 40
1
 10
1324.159605
 20
750.550515
 30
0.0
 10
1324.430055
 20
749.433090
 30
0.0
 10
1325.124555
 20
748.126140
 30
0.0
 10
1325.702805
 20
747.646215
 30
0.0
  0
SPLINE
  5
1f0
100
AcDbEntity
  8
0
 62
7
100
AcDbSpline
 70
8
 71
3
 72
8
 73
4
 74
0
 40
0
 40
0
 40
0
 40
0
 40
1
 40
1
 40
1
 40
1
 10
1325.702805
 20
747.646215
 30
0.0
 10
1326.281130
 20
747.166290
 30
0.0
 10
1326.754230
 20
746.031765
 30
0.0
 10
1326.754230
 20
745.125015
 30
0.0
  0
SPLINE
  5
1f1
100
AcDbEntity
  8
0
 62
7
100
AcDbSpline
 70
8
 71
3
 72
8
 73
4
 74
0
 40
0
 40
0
 40
0
 40
0
 40
1
 40
1
 40
1
 40
1
 10
1326.754230
 20
745.125015
 30
0.0
 10
1326.754230
 20
744.218265
 30
0.0
 10
1327.458330
 20
740.293965
 30
0.0
 10
1328.318880
 20
736.404015
 30
0.0
  0
SPLINE
  5
1f2
100
AcDbEntity
  8
0
 62
7
100
AcDbSpline
 70
8
 71
3
 72
8
 73
4
 74
0
 40
0
 40
0
 40
0
 40
0
 40
1
 40
1
 40
1
 40
1
 10
1328.318880
 20
736.404015
 30
0.0
 10
1329.179505
 20
732.514365
 30
0.0
 10
1330.124580
 20
727.307265
 30
0.0
 10
1330.419105
 20
724.832265
 30
0.0
  0
SPLINE
  5
1f3
100
AcDbEntity
  8
0
 62
7
100
AcDbSpline
 70
8
 71
3
 72
8
 73
4
 74
0
 40
0
 40
0
 40
0
 40
0
 40
1
 40
1
 40
1
 40
1
 10
1330.419105
 20
724.832265
 30
0.0
 10
1330.713555
 20
722.357265
 30
0.0
 10
1331.343855
 20
719.624340
 30
0.0
 10
1331.819580
 20
718.759065
 30
0.0
  0
SPLINE
  5
1f4
100
AcDbEntity
  8
0
 62
7
100
AcDbSpline
 70
8
 71
3
 72
8
 73
4
 74
0
 40
0
 40
0
 40
0
 40
0
 40
1
 40
1
 40
1
 40
1
 10
1331.819580
 20
718.759065
 30
0.0
 10
1332.295380
 20
717.893790
 30
0.0
 10
1333.033830
 20
715.193790
 30
0.0
 10
1333.460505
 20
712.759065
 30
0.0
  0
SPLINE
  5
1f5
100
AcDbEntity
  8
0
 62
7
100
AcDbSpline
 70
8
 71
3
 72
8
 73
4
 74
0
 40
0
 40
0
 40
0
 40
0
 40
1
 40
1
 40
1
 40
1
 10
1333.460505
 20
712.759065
 30
0.0
 10
1334.243955
 20
708.288990
 30
0.0
 10
1336.279305
 20
698.916315
 30
0.0
 10
1338.412005
 20
689.957565
 30
0.0
  0
SPLINE
  5
1f6
100
AcDbEntity
  8
0
 62
7
100
AcDbSpline
 70
8
 71
3
 72
8
 73
4
 74
0
 40
0
 40
0
 40
0
 40
0
 40
1
 40
1
 40
1
 40
1
 10
1338.412005
 20
689.957565
 30
0.0
 10
1339.050330
 20
687.276315
 30
0.0
 10
1339.947180
 20
682.888815
 30
0.0
 10
1340.405130
 20
680.207565
 30
0.0
  0
SPLINE
  5
1f7
100
AcDbEntity
  8
0
 62
7
100
AcDbSpline
 70
8
 71
3
 72
8
 73
4
 74
0
 40
0
 40
0
 40
0
 40
0
 40
1
 40
1
 40
1
 40
1
 10
1340.405130
 20
680.207565
 30
0.0
 10
1340.863005
 20
677.526315
 30
0.0
 10
1341.878655
 20
672.970065
 30
0.0
 10
1342.662030
 20
670.082565
 30
0.0
  0
SPLINE
  5
1f8
100
AcDbEntity
  8
0
 62
7
100
AcDbSpline
 70
8
 71
3
 72
8
 73
4
 74
0
 40
0
 40
0
 40
0
 40
0
 40
1
 40
1
 40
1
 40
1
 10
1342.662030
 20
670.082565
 30
0.0
 10
1344.768855
 20
662.317065
 30
0.0
 10
1345.287555
 20
660.187815
 30
0.0
 10
1346.681505
 20
653.582565
 30
0.0
  0
SPLINE
  5
1f9
100
AcDbEntity
  8
0
 62
7
100
AcDbSpline
 70
8
 71
3
 72
8
 73
4
 74
0
 40
0
 40
0
 40
0
 40
0
 40
1
 40
1
 40
1
 40
1
 10
1346.681505
 20
653.582565
 30
0.0
 10
1347.377880
 20
650.282565
 30
0.0
 10
1348.412430
 20
646.130490
 30
0.0
 10
1348.980405
 20
644.356065
 30
0.0
  0
SPLINE
  5
1fa
100
AcDbEntity
  8
0
 62
7
100
AcDbSpline
 70
8
 71
3
 72
8
 73
4
 74
0
 40
0
 40
0
 40
0
 40
0
 40
1
 40
1
 40
1
 40
1
 10
1348.980405
 20
644.356065
 30
0.0
 10
1349.548380
 20
642.581340
 30
0.0
 10
1349.809830
 20
640.319415
 30
0.0
 10
1349.561430
 20
639.329640
 30
0.0
  0
SPLINE
  5
1fb
100
AcDbEntity
  8
0
 62
7
100
AcDbSpline
 70
8
 71
3
 72
8
 73
4
 74
0
 40
0
 40
0
 40
0
 40
0
 40
1
 40
1
 40
1
 40
1
 10
1349.561430
 20
639.329640
 30
0.0
 10
1349.312955
 20
638.339790
 30
0.0
 10
1349.633430
 20
635.910615
 30
0.0
 10
1350.274005
 20
633.931440
 30
0.0
  0
SPLINE
  5
1fc
100
AcDbEntity
  8
0
 62
7
100
AcDbSpline
 70
8
 71
3
 72
8
 73
4
 74
0
 40
0
 40
0
 40
0
 40
0
 40
1
 40
1
 40
1
 40
1
 10
1350.274005
 20
633.931440
 30
0.0
 10
1350.914355
 20
631.952190
 30
0.0
 10
1351.816305
 20
627.478290
 30
0.0
 10
1352.278380
 20
623.989440
 30
0.0
  0
SPLINE
  5
1fd
100
AcDbEntity
  8
0
 62
7
100
AcDbSpline
 70
8
 71
3
 72
8
 73
4
 74
0
 40
0
 40
0
 40
0
 40
0
 40
1
 40
1
 40
1
 40
1
 10
1352.278380
 20
623.989440
 30
0.0
 10
1352.740455
 20
620.500515
 30
0.0
 10
1353.410880
 20
617.099490
 30
0.0
 10
1353.768330
 20
616.431690
 30
0.0
  0
SPLINE
  5
1fe
100
AcDbEntity
  8
0
 62
7
100
AcDbSpline
 70
8
 71
3
 72
8
 73
4
 74
0
 40
0
 40
0
 40
0
 40
0
 40
1
 40
1
 40
1
 40
1
 10
1353.768330
 20
616.431690
 30
0.0
 10
1354.125705
 20
615.763860
 30
0.0
 10
1354.633230
 20
613.387215
 30
0.0
 10
1354.896105
 20
611.150190
 30
0.0
  0
SPLINE
  5
1ff
100
AcDbEntity
  8
0
 62
7
100
AcDbSpline
 70
8
 71
3
 72
8
 73
4
 74
0
 40
0
 40
0
 40
0
 40
0
 40
1
 40
1
 40
1
 40
1
 10
1354.896105
 20
611.150190
 30
0.0
 10
1355.158905
 20
608.913240
 30
0.0
 10
1355.697780
 20
606.070440
 30
0.0
 10
1356.093480
 20
604.832940
 30
0.0
  0
SPLINE
  5
200
100
AcDbEntity
  8
0
 62
7
100
AcDbSpline
 70
8
 71
3
 72
8
 73
4
 74
0
 40
0
 40
0
 40
0
 40
0
 40
1
 40
1
 40
1
 40
1
 10
1356.093480
 20
604.832940
 30
0.0
 10
1356.999555
 20
601.999440
 30
0.0
 10
1358.824830
 20
592.575690
 30
0.0
 10
1358.853555
 20
590.582940
 30
0.0
  0
SPLINE
  5
201
100
AcDbEntity
  8
0
 62
7
100
AcDbSpline
 70
8
 71
3
 72
8
 73
4
 74
0
 40
0
 40
0
 40
0
 40
0
 40
1
 40
1
 40
1
 40
1
 10
1358.853555
 20
590.582940
 30
0.0
 10
1358.865555
 20
589.757940
 30
0.0
 10
1359.400605
 20
583.682940
 30
0.0
 10
1360.042755
 20
577.082940
 30
0.0
  0
SPLINE
  5
202
100
AcDbEntity
  8
0
 62
7
100
AcDbSpline
 70
8
 71
3
 72
8
 73
4
 74
0
 40
0
 40
0
 40
0
 40
0
 40
1
 40
1
 40
1
 40
1
 10
1360.042755
 20
577.082940
 30
0.0
 10
1360.684905
 20
570.482940
 30
0.0
 10
1361.220180
 20
560.334690
 30
0.0
 10
1361.232255
 20
554.531940
 30
0.0
  0
SPLINE
  5
203
100
AcDbEntity
  8
0
 62
7
100
AcDbSpline
 70
8
 71
3
 72
8
 73
4
 74
0
 40
0
 40
0
 40
0
 40
0
 40
1
 40
1
 40
1
 40
1
 10
1361.232255
 20
554.531940
 30
0.0
 10
1361.248005
 20
547.048890
 30
0.0
 10
1361.606880
 20
542.795940
 30
0.0
 10
1362.466830
 20
539.906940
 30
0.0
  0
SPLINE
  5
204
100
AcDbEntity
  8
0
 62
7
100
AcDbSpline
 70
8
 71
3
 72
8
 73
4
 74
0
 40
0
 40
0
 40
0
 40
0
 40
1
 40
1
 40
1
 40
1
 10
1362.466830
 20
539.906940
 30
0.0
 10
1363.307130
 20
537.084240
 30
0.0
 10
1363.551555
 20
534.336390
 30
0.0
 10
1363.262880
 20
530.958690
 30
0.0
  0
SPLINE
  5
205
100
AcDbEntity
  8
0
 62
7
100
AcDbSpline
 70
8
 71
3
 72
8
 73
4
 74
0
 40
0
 40
0
 40
0
 40
0
 40
1
 40
1
 40
1
 40
1
 10
1363.262880
 20
530.958690
 30
0.0
 10
1362.820155
 20
525.777540
 30
0.0
 10
1364.030955
 20
517.058940
 30
0.0
 10
1365.970980
 20
511.458690
 30
0.0
  0
SPLINE
  5
206
100
AcDbEntity
  8
0
 62
7
100
AcDbSpline
 70
8
 71
3
 72
8
 73
4
 74
0
 40
0
 40
0
 40
0
 40
0
 40
1
 40
1
 40
1
 40
1
 10
1365.970980
 20
511.458690
 30
0.0
 10
1366.613955
 20
509.602440
 30
0.0
 10
1367.537730
 20
506.058690
 30
0.0
 10
1368.023730
 20
503.583690
 30
0.0
  0
SPLINE
  5
207
100
AcDbEntity
  8
0
 62
7
100
AcDbSpline
 70
8
 71
3
 72
8
 73
4
 74
0
 40
0
 40
0
 40
0
 40
0
 40
1
 40
1
 40
1
 40
1
 10
1368.023730
 20
503.583690
 30
0.0
 10
1370.351280
 20
491.730690
 30
0.0
 10
1370.913030
 20
489.548940
 30
0.0
 10
1371.942930
 20
488.361690
 30
0.0
  0
SPLINE
  5
208
100
AcDbEntity
  8
0
 62
7
100
AcDbSpline
 70
8
 71
3
 72
8
 73
4
 74
0
 40
0
 40
0
 40
0
 40
0
 40
1
 40
1
 40
1
 40
1
 10
1371.942930
 20
488.361690
 30
0.0
 10
1372.552530
 20
487.658940
 30
0.0
 10
1373.241705
 20
485.835540
 30
0.0
 10
1373.474430
 20
484.309740
 30
0.0
  0
SPLINE
  5
209
100
AcDbEntity
  8
0
 62
7
100
AcDbSpline
 70
8
 71
3
 72
8
 73
4
 74
0
 40
0
 40
0
 40
0
 40
0
 40
1
 40
1
 40
1
 40
1
 10
1373.474430
 20
484.309740
 30
0.0
 10
1373.707080
 20
482.783940
 30
0.0
 10
1374.456480
 20
480.357615
 30
0.0
 10
1375.139655
 20
478.917915
 30
0.0
  0
SPLINE
  5
20a
100
AcDbEntity
  8
0
 62
7
100
AcDbSpline
 70
8
 71
3
 72
8
 73
4
 74
0
 40
0
 40
0
 40
0
 40
0
 40
1
 40
1
 40
1
 40
1
 10
1375.139655
 20
478.917915
 30
0.0
 10
1375.822830
 20
477.478215
 30
0.0
 10
1376.244780
 20
475.689090
 30
0.0
 10
1376.077380
 20
474.942090
 30
0.0
  0
SPLINE
  5
20b
100
AcDbEntity
  8
0
 62
7
100
AcDbSpline
 70
8
 71
3
 72
8
 73
4
 74
0
 40
0
 40
0
 40
0
 40
0
 40
1
 40
1
 40
1
 40
1
 10
1376.077380
 20
474.942090
 30
0.0
 10
1375.909905
 20
474.195090
 30
0.0
 10
1376.512830
 20
472.065165
 30
0.0
 10
1377.417180
 20
470.208915
 30
0.0
  0
SPLINE
  5
20c
100
AcDbEntity
  8
0
 62
7
100
AcDbSpline
 70
8
 71
3
 72
8
 73
4
 74
0
 40
0
 40
0
 40
0
 40
0
 40
1
 40
1
 40
1
 40
1
 10
1377.417180
 20
470.208915
 30
0.0
 10
1378.321530
 20
468.352665
 30
0.0
 10
1379.671455
 20
464.133915
 30
0.0
 10
1380.417105
 20
460.833915
 30
0.0
  0
SPLINE
  5
20d
100
AcDbEntity
  8
0
 62
7
100
AcDbSpline
 70
8
 71
3
 72
8
 73
4
 74
0
 40
0
 40
0
 40
0
 40
0
 40
1
 40
1
 40
1
 40
1
 10
1380.417105
 20
460.833915
 30
0.0
 10
1381.162680
 20
457.533915
 30
0.0
 10
1382.272830
 20
453.821415
 30
0.0
 10
1382.884005
 20
452.583915
 30
0.0
  0
SPLINE
  5
20e
100
AcDbEntity
  8
0
 62
7
100
AcDbSpline
 70
8
 71
3
 72
8
 73
4
 74
0
 40
0
 40
0
 40
0
 40
0
 40
1
 40
1
 40
1
 40
1
 10
1382.884005
 20
452.583915
 30
0.0
 10
1383.495255
 20
451.346415
 30
0.0
 10
1384.458405
 20
447.971415
 30
0.0
 10
1385.024430
 20
445.083915
 30
0.0
  0
SPLINE
  5
20f
100
AcDbEntity
  8
0
 62
7
100
AcDbSpline
 70
8
 71
3
 72
8
 73
4
 74
0
 40
0
 40
0
 40
0
 40
0
 40
1
 40
1
 40
1
 40
1
 10
1385.024430
 20
445.083915
 30
0.0
 10
1385.590380
 20
442.196415
 30
0.0
 10
1386.252405
 20
438.885390
 30
0.0
 10
1386.495630
 20
437.726040
 30
0.0
  0
SPLINE
  5
210
100
AcDbEntity
  8
0
 62
7
100
AcDbSpline
 70
8
 71
3
 72
8
 73
4
 74
0
 40
0
 40
0
 40
0
 40
0
 40
1
 40
1
 40
1
 40
1
 10
1386.495630
 20
437.726040
 30
0.0
 10
1386.738855
 20
436.566690
 30
0.0
 10
1387.909005
 20
434.900040
 30
0.0
 10
1389.096030
 20
434.022465
 30
0.0
  0
SPLINE
  5
211
100
AcDbEntity
  8
0
 62
7
100
AcDbSpline
 70
8
 71
3
 72
8
 73
4
 74
0
 40
0
 40
0
 40
0
 40
0
 40
1
 40
1
 40
1
 40
1
 10
1389.096030
 20
434.022465
 30
0.0
 10
1390.353555
 20
433.092765
 30
0.0
 10
1391.254230
 20
431.727540
 30
0.0
 10
1391.254230
 20
430.751190
 30
0.0
  0
SPLINE
  5
212
100
AcDbEntity
  8
0
 62
7
100
AcDbSpline
 70
8
 71
3
 72
8
 73
4
 74
0
 40
0
 40
0
 40
0
 40
0
 40
1
 40
1
 40
1
 40
1
 10
1391.254230
 20
430.751190
 30
0.0
 10
1391.254230
 20
429.829590
 30
0.0
 10
1392.425805
 20
427.614915
 30
0.0
 10
1393.857780
 20
425.829690
 30
0.0
  0
SPLINE
  5
213
100
AcDbEntity
  8
0
 62
7
100
AcDbSpline
 70
8
 71
3
 72
8
 73
4
 74
0
 40
0
 40
0
 40
0
 40
0
 40
1
 40
1
 40
1
 40
1
 10
1393.857780
 20
425.829690
 30
0.0
 10
1395.289680
 20
424.044540
 30
0.0
 10
1397.159955
 20
421.304265
 30
0.0
 10
1398.013905
 20
419.740290
 30
0.0
  0
SPLINE
  5
214
100
AcDbEntity
  8
0
 62
7
100
AcDbSpline
 70
8
 71
3
 72
8
 73
4
 74
0
 40
0
 40
0
 40
0
 40
0
 40
1
 40
1
 40
1
 40
1
 10
1398.013905
 20
419.740290
 30
0.0
 10
1400.359455
 20
415.444290
 30
0.0
 10
1405.046055
 20
411.140040
 30
0.0
 10
1408.345905
 20
410.251290
 30
0.0
  0
SPLINE
  5
215
100
AcDbEntity
  8
0
 62
7
100
AcDbSpline
 70
8
 71
3
 72
8
 73
4
 74
0
 40
0
 40
0
 40
0
 40
0
 40
1
 40
1
 40
1
 40
1
 10
1408.345905
 20
410.251290
 30
0.0
 10
1409.952180
 20
409.818765
 30
0.0
 10
1411.878555
 20
408.788415
 30
0.0
 10
1412.626755
 20
407.961690
 30
0.0
  0
SPLINE
  5
216
100
AcDbEntity
  8
0
 62
7
100
AcDbSpline
 70
8
 71
3
 72
8
 73
4
 74
0
 40
0
 40
0
 40
0
 40
0
 40
1
 40
1
 40
1
 40
1
 10
1412.626755
 20
407.961690
 30
0.0
 10
1413.374955
 20
407.134965
 30
0.0
 10
1414.590480
 20
406.458540
 30
0.0
 10
1415.327955
 20
406.458540
 30
0.0
  0
SPLINE
  5
217
100
AcDbEntity
  8
0
 62
7
100
AcDbSpline
 70
8
 71
3
 72
8
 73
4
 74
0
 40
0
 40
0
 40
0
 40
0
 40
1
 40
1
 40
1
 40
1
 10
1415.327955
 20
406.458540
 30
0.0
 10
1416.065430
 20
406.458540
 30
0.0
 10
1417.785030
 20
405.820815
 30
0.0
 10
1419.149205
 20
405.041415
 30
0.0
  0
SPLINE
  5
218
100
AcDbEntity
  8
0
 62
7
100
AcDbSpline
 70
8
 71
3
 72
8
 73
4
 74
0
 40
0
 40
0
 40
0
 40
0
 40
1
 40
1
 40
1
 40
1
 10
1419.149205
 20
405.041415
 30
0.0
 10
1422.413730
 20
403.176315
 30
0.0
 10
1433.656455
 20
402.427365
 30
0.0
 10
1436.311455
 20
403.898115
 30
0.0
  0
SPLINE
  5
219
100
AcDbEntity
  8
0
 62
7
100
AcDbSpline
 70
8
 71
3
 72
8
 73
4
 74
0
 40
0
 40
0
 40
0
 40
0
 40
1
 40
1
 40
1
 40
1
 10
1436.311455
 20
403.898115
 30
0.0
 10
1437.311505
 20
404.452140
 30
0.0
 10
1439.479680
 20
404.922915
 30
0.0
 10
1441.129680
 20
404.944290
 30
0.0
  0
SPLINE
  5
21a
100
AcDbEntity
  8
0
 62
7
100
AcDbSpline
 70
8
 71
3
 72
8
 73
4
 74
0
 40
0
 40
0
 40
0
 40
0
 40
1
 40
1
 40
1
 40
1
 10
1441.129680
 20
404.944290
 30
0.0
 10
1442.854905
 20
404.966790
 30
0.0
 10
1445.296230
 20
405.695040
 30
0.0
 10
1446.874905
 20
406.658415
 30
0.0
  0
SPLINE
  5
21b
100
AcDbEntity
  8
0
 62
7
100
AcDbSpline
 70
8
 71
3
 72
8
 73
4
 74
0
 40
0
 40
0
 40
0
 40
0
 40
1
 40
1
 40
1
 40
1
 10
1446.874905
 20
406.658415
 30
0.0
 10
1448.384730
 20
407.579715
 30
0.0
 10
1451.253480
 20
409.322565
 30
0.0
 10
1453.249905
 20
410.531415
 30
0.0
  0
SPLINE
  5
21c
100
AcDbEntity
  8
0
 62
7
100
AcDbSpline
 70
8
 71
3
 72
8
 73
4
 74
0
 40
0
 40
0
 40
0
 40
0
 40
1
 40
1
 40
1
 40
1
 10
1453.249905
 20
410.531415
 30
0.0
 10
1461.419655
 20
415.478490
 30
0.0
 10
1472.770155
 20
425.930415
 30
0.0
 10
1476.697155
 20
432.122415
 30
0.0
  0
SPLINE
  5
21d
100
AcDbEntity
  8
0
 62
7
100
AcDbSpline
 70
8
 71
3
 72
8
 73
4
 74
0
 40
0
 40
0
 40
0
 40
0
 40
1
 40
1
 40
1
 40
1
 10
1476.697155
 20
432.122415
 30
0.0
 10
1480.188480
 20
437.627640
 30
0.0
 10
1489.974405
 20
441.987165
 30
0.0
 10
1494.948405
 20
440.253915
 30
0.0
  0
SPLINE
  5
21e
100
AcDbEntity
  8
0
 62
7
100
AcDbSpline
 70
8
 71
3
 72
8
 73
4
 74
0
 40
0
 40
0
 40
0
 40
0
 40
1
 40
1
 40
1
 40
1
 10
1494.948405
 20
440.253915
 30
0.0
 10
1496.202405
 20
439.816815
 30
0.0
 10
1498.813155
 20
439.459140
 30
0.0
 10
1500.750105
 20
439.459140
 30
0.0
  0
SPLINE
  5
21f
100
AcDbEntity
  8
0
 62
7
100
AcDbSpline
 70
8
 71
3
 72
8
 73
4
 74
0
 40
0
 40
0
 40
0
 40
0
 40
1
 40
1
 40
1
 40
1
 10
1500.750105
 20
439.459140
 30
0.0
 10
1505.844030
 20
439.459140
 30
0.0
 10
1513.789605
 20
435.363465
 30
0.0
 10
1514.112105
 20
432.571440
 30
0.0
  0
SPLINE
  5
220
100
AcDbEntity
  8
0
 62
7
100
AcDbSpline
 70
8
 71
3
 72
8
 73
4
 74
0
 40
0
 40
0
 40
0
 40
0
 40
1
 40
1
 40
1
 40
1
 10
1514.112105
 20
432.571440
 30
0.0
 10
1514.658780
 20
427.839390
 30
0.0
 10
1510.254330
 20
423.709440
 30
0.0
 10
1504.661355
 20
423.709440
 30
0.0
  0
SPLINE
  5
221
100
AcDbEntity
  8
0
 62
7
100
AcDbSpline
 70
8
 71
3
 72
8
 73
4
 74
0
 40
0
 40
0
 40
0
 40
0
 40
1
 40
1
 40
1
 40
1
 10
1504.661355
 20
423.709440
 30
0.0
 10
1496.849355
 20
423.709440
 30
0.0
 10
1482.614355
 20
411.833190
 30
0.0
 10
1475.178855
 20
399.111690
 30
0.0
  0
SPLINE
  5
222
100
AcDbEntity
  8
0
 62
7
100
AcDbSpline
 70
8
 71
3
 72
8
 73
4
 74
0
 40
0
 40
0
 40
0
 40
0
 40
1
 40
1
 40
1
 40
1
 10
1475.178855
 20
399.111690
 30
0.0
 10
1474.383855
 20
397.751565
 30
0.0
 10
1472.187105
 20
395.726565
 30
0.0
 10
1470.297105
 20
394.611690
 30
0.0
  0
SPLINE
  5
223
100
AcDbEntity
  8
0
 62
7
100
AcDbSpline
 70
8
 71
3
 72
8
 73
4
 74
0
 40
0
 40
0
 40
0
 40
0
 40
1
 40
1
 40
1
 40
1
 10
1470.297105
 20
394.611690
 30
0.0
 10
1468.407180
 20
393.496815
 30
0.0
 10
1465.218180
 20
391.234590
 30
0.0
 10
1463.210580
 20
389.584590
 30
0.0
  0
SPLINE
  5
224
100
AcDbEntity
  8
0
 62
7
100
AcDbSpline
 70
8
 71
3
 72
8
 73
4
 74
0
 40
0
 40
0
 40
0
 40
0
 40
1
 40
1
 40
1
 40
1
 10
1463.210580
 20
389.584590
 30
0.0
 10
1461.202905
 20
387.934590
 30
0.0
 10
1458.619605
 20
385.875390
 30
0.0
 10
1457.469855
 20
385.008540
 30
0.0
  0
SPLINE
  5
225
100
AcDbEntity
  8
0
 62
7
100
AcDbSpline
 70
8
 71
3
 72
8
 73
4
 74
0
 40
0
 40
0
 40
0
 40
0
 40
1
 40
1
 40
1
 40
1
 10
1457.469855
 20
385.008540
 30
0.0
 10
1453.627230
 20
382.111440
 30
0.0
 10
1445.399355
 20
378.143265
 30
0.0
 10
1441.368105
 20
377.243040
 30
0.0
  0
SPLINE
  5
226
100
AcDbEntity
  8
0
 62
7
100
AcDbSpline
 70
8
 71
3
 72
8
 73
4
 74
0
 40
0
 40
0
 40
0
 40
0
 40
1
 40
1
 40
1
 40
1
 10
1441.368105
 20
377.243040
 30
0.0
 10
1439.174430
 20
376.753065
 30
0.0
 10
1436.623080
 20
375.983415
 30
0.0
 10
1435.698480
 20
375.532665
 30
0.0
  0
SPLINE
  5
227
100
AcDbEntity
  8
0
 62
7
100
AcDbSpline
 70
8
 71
3
 72
8
 73
4
 74
0
 40
0
 40
0
 40
0
 40
0
 40
1
 40
1
 40
1
 40
1
 10
1435.698480
 20
375.532665
 30
0.0
 10
1434.565005
 20
374.980140
 30
0.0
 10
1433.465655
 20
374.952690
 30
0.0
 10
1432.323480
 20
375.448590
 30
0.0
  0
SPLINE
  5
228
100
AcDbEntity
  8
0
 62
7
100
AcDbSpline
 70
8
 71
3
 72
8
 73
4
 74
0
 40
0
 40
0
 40
0
 40
0
 40
1
 40
1
 40
1
 40
1
 10
1432.323480
 20
375.448590
 30
0.0
 10
1431.391830
 20
375.852990
 30
0.0
 10
1428.942105
 20
376.104240
 30
0.0
 10
1426.879605
 20
376.006890
 30
0.0
  0
SPLINE
  5
229
100
AcDbEntity
  8
0
 62
7
100
AcDbSpline
 70
8
 71
3
 72
8
 73
4
 74
0
 40
0
 40
0
 40
0
 40
0
 40
1
 40
1
 40
1
 40
1
 10
1426.879605
 20
376.006890
 30
0.0
 10
1424.817105
 20
375.909465
 30
0.0
 10
1421.948355
 20
376.119915
 30
0.0
 10
1420.504605
 20
376.474590
 30
0.0
  0
SPLINE
  5
22a
100
AcDbEntity
  8
0
 62
7
100
AcDbSpline
 70
8
 71
3
 72
8
 73
4
 74
0
 40
0
 40
0
 40
0
 40
0
 40
1
 40
1
 40
1
 40
1
 10
1420.504605
 20
376.474590
 30
0.0
 10
1419.060855
 20
376.829190
 30
0.0
 10
1415.517105
 20
377.687340
 30
0.0
 10
1412.629605
 20
378.381615
 30
0.0
  0
SPLINE
  5
22b
100
AcDbEntity
  8
0
 62
7
100
AcDbSpline
 70
8
 71
3
 72
8
 73
4
 74
0
 40
0
 40
0
 40
0
 40
0
 40
1
 40
1
 40
1
 40
1
 10
1412.629605
 20
378.381615
 30
0.0
 10
1406.182905
 20
379.931715
 30
0.0
 10
1404.300855
 20
380.868990
 30
0.0
 10
1399.518105
 20
384.912465
 30
0.0
  0
SPLINE
  5
22c
100
AcDbEntity
  8
0
 62
7
100
AcDbSpline
 70
8
 71
3
 72
8
 73
4
 74
0
 40
0
 40
0
 40
0
 40
0
 40
1
 40
1
 40
1
 40
1
 10
1399.518105
 20
384.912465
 30
0.0
 10
1392.390105
 20
390.937890
 30
0.0
 10
1390.861605
 20
392.021115
 30
0.0
 10
1386.116355
 20
394.409715
 30
0.0
  0
SPLINE
  5
22d
100
AcDbEntity
  8
0
 62
7
100
AcDbSpline
 70
8
 71
3
 72
8
 73
4
 74
0
 40
0
 40
0
 40
0
 40
0
 40
1
 40
1
 40
1
 40
1
 10
1386.116355
 20
394.409715
 30
0.0
 10
1380.194355
 20
397.391115
 30
0.0
 10
1380.223830
 20
397.450215
 30
0.0
 10
1384.414080
 20
390.998490
 30
0.0
  0
SPLINE
  5
22e
100
AcDbEntity
  8
0
 62
7
100
AcDbSpline
 70
8
 71
3
 72
8
 73
4
 74
0
 40
0
 40
0
 40
0
 40
0
 40
1
 40
1
 40
1
 40
1
 10
1384.414080
 20
390.998490
 30
0.0
 10
1386.320205
 20
388.063590
 30
0.0
 10
1388.723505
 20
384.248565
 30
0.0
 10
1389.754755
 20
382.520490
 30
0.0
  0
SPLINE
  5
22f
100
AcDbEntity
  8
0
 62
7
100
AcDbSpline
 70
8
 71
3
 72
8
 73
4
 74
0
 40
0
 40
0
 40
0
 40
0
 40
1
 40
1
 40
1
 40
1
 10
1389.754755
 20
382.520490
 30
0.0
 10
1399.902255
 20
365.516490
 30
0.0
 10
1416.445755
 20
343.568490
 30
0.0
 10
1425.792255
 20
334.710240
 30
0.0
  0
SPLINE
  5
230
100
AcDbEntity
  8
0
 62
7
100
AcDbSpline
 70
8
 71
3
 72
8
 73
4
 74
0
 40
0
 40
0
 40
0
 40
0
 40
1
 40
1
 40
1
 40
1
 10
1425.792255
 20
334.710240
 30
0.0
 10
1428.040305
 20
332.579490
 30
0.0
 10
1431.565005
 20
328.698240
 30
0.0
 10
1433.625255
 20
326.085240
 30
0.0
  0
SPLINE
  5
231
100
AcDbEntity
  8
0
 62
7
100
AcDbSpline
 70
8
 71
3
 72
8
 73
4
 74
0
 40
0
 40
0
 40
0
 40
0
 40
1
 40
1
 40
1
 40
1
 10
1433.625255
 20
326.085240
 30
0.0
 10
1440.869805
 20
316.895490
 30
0.0
 10
1445.569005
 20
311.561490
 30
0.0
 10
1448.412255
 20
309.303240
 30
0.0
  0
SPLINE
  5
232
100
AcDbEntity
  8
0
 62
7
100
AcDbSpline
 70
8
 71
3
 72
8
 73
4
 74
0
 40
0
 40
0
 40
0
 40
0
 40
1
 40
1
 40
1
 40
1
 10
1448.412255
 20
309.303240
 30
0.0
 10
1449.991605
 20
308.048490
 30
0.0
 10
1452.478530
 20
305.247690
 30
0.0
 10
1453.938780
 20
303.079440
 30
0.0
  0
SPLINE
  5
233
100
AcDbEntity
  8
0
 62
7
100
AcDbSpline
 70
8
 71
3
 72
8
 73
4
 74
0
 40
0
 40
0
 40
0
 40
0
 40
1
 40
1
 40
1
 40
1
 10
1453.938780
 20
303.079440
 30
0.0
 10
1455.398955
 20
300.911115
 30
0.0
 10
1457.401230
 20
298.769115
 30
0.0
 10
1458.388230
 20
298.319490
 30
0.0
  0
SPLINE
  5
234
100
AcDbEntity
  8
0
 62
7
100
AcDbSpline
 70
8
 71
3
 72
8
 73
4
 74
0
 40
0
 40
0
 40
0
 40
0
 40
1
 40
1
 40
1
 40
1
 10
1458.388230
 20
298.319490
 30
0.0
 10
1460.216505
 20
297.486465
 30
0.0
 10
1462.504980
 20
293.617440
 30
0.0
 10
1462.504980
 20
291.359490
 30
0.0
  0
SPLINE
  5
235
100
AcDbEntity
  8
0
 62
7
100
AcDbSpline
 70
8
 71
3
 72
8
 73
4
 74
0
 40
0
 40
0
 40
0
 40
0
 40
1
 40
1
 40
1
 40
1
 10
1462.504980
 20
291.359490
 30
0.0
 10
1462.504980
 20
290.672865
 30
0.0
 10
1462.851105
 20
289.464240
 30
0.0
 10
1463.274255
 20
288.673590
 30
0.0
  0
SPLINE
  5
236
100
AcDbEntity
  8
0
 62
7
100
AcDbSpline
 70
8
 71
3
 72
8
 73
4
 74
0
 40
0
 40
0
 40
0
 40
0
 40
1
 40
1
 40
1
 40
1
 10
1463.274255
 20
288.673590
 30
0.0
 10
1463.800755
 20
287.689890
 30
0.0
 10
1463.792205
 20
283.386540
 30
0.0
 10
1463.247255
 20
275.035590
 30
0.0
  0
SPLINE
  5
237
100
AcDbEntity
  8
0
 62
7
100
AcDbSpline
 70
8
 71
3
 72
8
 73
4
 74
0
 40
0
 40
0
 40
0
 40
0
 40
1
 40
1
 40
1
 40
1
 10
1463.247255
 20
275.035590
 30
0.0
 10
1462.315755
 20
260.764590
 30
0.0
 10
1462.312680
 20
263.231340
 30
0.0
 10
1463.278755
 20
250.084590
 30
0.0
  0
SPLINE
  5
238
100
AcDbEntity
  8
0
 62
7
100
AcDbSpline
 70
8
 71
3
 72
8
 73
4
 74
0
 40
0
 40
0
 40
0
 40
0
 40
1
 40
1
 40
1
 40
1
 10
1463.278755
 20
250.084590
 30
0.0
 10
1463.703030
 20
244.309590
 30
0.0
 10
1464.315480
 20
235.028340
 30
0.0
 10
1464.639705
 20
229.459590
 30
0.0
  0
SPLINE
  5
239
100
AcDbEntity
  8
0
 62
7
100
AcDbSpline
 70
8
 71
3
 72
8
 73
4
 74
0
 40
0
 40
0
 40
0
 40
0
 40
1
 40
1
 40
1
 40
1
 10
1464.639705
 20
229.459590
 30
0.0
 10
1465.088955
 20
221.742840
 30
0.0
 10
1465.619205
 20
218.395590
 30
0.0
 10
1466.868630
 20
215.385840
 30
0.0
  0
SPLINE
  5
23a
100
AcDbEntity
  8
0
 62
7
100
AcDbSpline
 70
8
 71
3
 72
8
 73
4
 74
0
 40
0
 40
0
 40
0
 40
0
 40
1
 40
1
 40
1
 40
1
 10
1466.868630
 20
215.385840
 30
0.0
 10
1467.770280
 20
213.213840
 30
0.0
 10
1468.511805
 20
210.345090
 30
0.0
 10
1468.516455
 20
209.010840
 30
0.0
  0
SPLINE
  5
23b
100
AcDbEntity
  8
0
 62
7
100
AcDbSpline
 70
8
 71
3
 72
8
 73
4
 74
0
 40
0
 40
0
 40
0
 40
0
 40
1
 40
1
 40
1
 40
1
 10
1468.516455
 20
209.010840
 30
0.0
 10
1468.597830
 20
185.733840
 30
0.0
 10
1467.029130
 20
158.036340
 30
0.0
 10
1465.467555
 20
155.178090
 30
0.0
  0
SPLINE
  5
23c
100
AcDbEntity
  8
0
 62
7
100
AcDbSpline
 70
8
 71
3
 72
8
 73
4
 74
0
 40
0
 40
0
 40
0
 40
0
 40
1
 40
1
 40
1
 40
1
 10
1465.467555
 20
155.178090
 30
0.0
 10
1464.913680
 20
154.164390
 30
0.0
 10
1464.042480
 20
150.466140
 30
0.0
 10
1463.531580
 20
146.959590
 30
0.0
  0
SPLINE
  5
23d
100
AcDbEntity
  8
0
 62
7
100
AcDbSpline
 70
8
 71
3
 72
8
 73
4
 74
0
 40
0
 40
0
 40
0
 40
0
 40
1
 40
1
 40
1
 40
1
 10
1463.531580
 20
146.959590
 30
0.0
 10
1463.020680
 20
143.453415
 30
0.0
 10
1462.204605
 20
138.728340
 30
0.0
 10
1461.718080
 20
136.459590
 30
0.0
  0
SPLINE
  5
23e
100
AcDbEntity
  8
0
 62
7
100
AcDbSpline
 70
8
 71
3
 72
8
 73
4
 74
0
 40
0
 40
0
 40
0
 40
0
 40
1
 40
1
 40
1
 40
1
 10
1461.718080
 20
136.459590
 30
0.0
 10
1460.673930
 20
131.590440
 30
0.0
 10
1461.240330
 20
112.936590
 30
0.0
 10
1462.572105
 20
108.334590
 30
0.0
  0
SPLINE
  5
23f
100
AcDbEntity
  8
0
 62
7
100
AcDbSpline
 70
8
 71
3
 72
8
 73
4
 74
0
 40
0
 40
0
 40
0
 40
0
 40
1
 40
1
 40
1
 40
1
 10
1462.572105
 20
108.334590
 30
0.0
 10
1463.847105
 20
103.928490
 30
0.0
 10
1463.983605
 20
90.140340
 30
0.0
 10
1462.783680
 20
86.959590
 30
0.0
  0
SPLINE
  5
240
100
AcDbEntity
  8
0
 62
7
100
AcDbSpline
 70
8
 71
3
 72
8
 73
4
 74
0
 40
0
 40
0
 40
0
 40
0
 40
1
 40
1
 40
1
 40
1
 10
1462.783680
 20
86.959590
 30
0.0
 10
1462.239030
 20
85.515915
 30
0.0
 10
1460.813805
 20
79.440840
 30
0.0
 10
1459.616505
 20
73.459590
 30
0.0
  0
SPLINE
  5
241
100
AcDbEntity
  8
0
 62
7
100
AcDbSpline
 70
8
 71
3
 72
8
 73
4
 74
0
 40
0
 40
0
 40
0
 40
0
 40
1
 40
1
 40
1
 40
1
 10
1459.616505
 20
73.459590
 30
0.0
 10
1456.868205
 20
59.730090
 30
0.0
 10
1452.954630
 20
50.809590
 30
0.0
 10
1449.415755
 20
50.208090
 30
0.0
  0
SPLINE
  5
242
100
AcDbEntity
  8
0
 62
7
100
AcDbSpline
 70
8
 71
3
 72
8
 73
4
 74
0
 40
0
 40
0
 40
0
 40
0
 40
1
 40
1
 40
1
 40
1
 10
1449.415755
 20
50.208090
 30
0.0
 10
1447.949355
 20
49.958940
 30
0.0
 10
1446.555630
 20
48.895740
 30
0.0
 10
1445.290755
 20
47.061240
 30
0.0
  0
SPLINE
  5
243
100
AcDbEntity
  8
0
 62
7
100
AcDbSpline
 70
8
 71
3
 72
8
 73
4
 74
0
 40
0
 40
0
 40
0
 40
0
 40
1
 40
1
 40
1
 40
1
 10
1445.290755
 20
47.061240
 30
0.0
 10
1443.585930
 20
44.588715
 30
0.0
 10
1432.033755
 20
35.115240
 30
0.0
 10
1428.262755
 20
33.096990
 30
0.0
  0
SPLINE
  5
244
100
AcDbEntity
  8
0
 62
7
100
AcDbSpline
 70
8
 71
3
 72
8
 73
4
 74
0
 40
0
 40
0
 40
0
 40
0
 40
1
 40
1
 40
1
 40
1
 10
1428.262755
 20
33.096990
 30
0.0
 10
1424.299380
 20
30.975840
 30
0.0
 10
1412.629755
 20
28.370115
 30
0.0
 10
1409.204505
 20
28.841265
 30
0.0
  0
SPLINE
  5
245
100
AcDbEntity
  8
0
 62
7
100
AcDbSpline
 70
8
 71
3
 72
8
 73
4
 74
0
 40
0
 40
0
 40
0
 40
0
 40
1
 40
1
 40
1
 40
1
 10
1409.204505
 20
28.841265
 30
0.0
 10
1406.309655
 20
29.239365
 30
0.0
 10
1405.019655
 20
28.988190
 30
0.0
 10
1401.937230
 20
27.426240
 30
0.0
  0
SPLINE
  5
246
100
AcDbEntity
  8
0
 62
7
100
AcDbSpline
 70
8
 71
3
 72
8
 73
4
 74
0
 40
0
 40
0
 40
0
 40
0
 40
1
 40
1
 40
1
 40
1
 10
1401.937230
 20
27.426240
 30
0.0
 10
1392.844980
 20
22.818840
 30
0.0
 10
1386.113730
 20
23.461965
 30
0.0
 10
1386.988980
 20
28.854390
 30
0.0
  0
SPLINE
  5
247
100
AcDbEntity
  8
0
 62
7
100
AcDbSpline
 70
8
 71
3
 72
8
 73
4
 74
0
 40
0
 40
0
 40
0
 40
0
 40
1
 40
1
 40
1
 40
1
 10
1386.988980
 20
28.854390
 30
0.0
 10
1387.477455
 20
31.864590
 30
0.0
 10
1386.584280
 20
32.364015
 30
0.0
 10
1383.217530
 20
30.963240
 30
0.0
  0
SPLINE
  5
248
100
AcDbEntity
  8
0
 62
7
100
AcDbSpline
 70
8
 71
3
 72
8
 73
4
 74
0
 40
0
 40
0
 40
0
 40
0
 40
1
 40
1
 40
1
 40
1
 10
1383.217530
 20
30.963240
 30
0.0
 10
1381.890180
 20
30.410940
 30
0.0
 10
1378.380030
 20
29.959140
 30
0.0
 10
1375.417530
 20
29.959140
 30
0.0
  0
SPLINE
  5
249
100
AcDbEntity
  8
0
 62
7
100
AcDbSpline
 70
8
 71
3
 72
8
 73
4
 74
0
 40
0
 40
0
 40
0
 40
0
 40
1
 40
1
 40
1
 40
1
 10
1375.417530
 20
29.959140
 30
0.0
 10
1371.098055
 20
29.959140
 30
0.0
 10
1369.217280
 20
29.561190
 30
0.0
 10
1365.925530
 20
27.950640
 30
0.0
  0
SPLINE
  5
24a
100
AcDbEntity
  8
0
 62
7
100
AcDbSpline
 70
8
 71
3
 72
8
 73
4
 74
0
 40
0
 40
0
 40
0
 40
0
 40
1
 40
1
 40
1
 40
1
 10
1365.925530
 20
27.950640
 30
0.0
 10
1363.667655
 20
26.845965
 30
0.0
 10
1360.090230
 20
25.802340
 30
0.0
 10
1357.975530
 20
25.631490
 30
0.0
  0
LWPOLYLINE
  5
24b
100
AcDbEntity
  8
0
 62
7
100
AcDbPolyline
 90
3
 70
0
 10
283.416855
 20
1266.018615
 30
0.0
 10
287.454855
 20
1265.180415
 30
0.0
 10
291.291855
 20
1268.108565
 30
0.0
  0
SPLINE
  5
24c
100
AcDbEntity
  8
0
 62
7
100
AcDbSpline
 70
8
 71
3
 72
8
 73
4
 74
0
 40
0
 40
0
 40
0
 40
0
 40
1
 40
1
 40
1
 40
1
 10
1351.663380
 20
30.662865
 30
0.0
 10
1350.306255
 20
33.600990
 30
0.0
 10
1349.387505
 20
36.315090
 30
0.0
 10
1349.621730
 20
36.694140
 30
0.0
  0
SPLINE
  5
24d
100
AcDbEntity
  8
0
 62
7
100
AcDbSpline
 70
8
 71
3
 72
8
 73
4
 74
0
 40
0
 40
0
 40
0
 40
0
 40
1
 40
1
 40
1
 40
1
 10
1349.621730
 20
36.694140
 30
0.0
 10
1349.856030
 20
37.073265
 30
0.0
 10
1349.025855
 20
38.138940
 30
0.0
 10
1347.776880
 20
39.062340
 30
0.0
  0
SPLINE
  5
24e
100
AcDbEntity
  8
0
 62
7
100
AcDbSpline
 70
8
 71
3
 72
8
 73
4
 74
0
 40
0
 40
0
 40
0
 40
0
 40
1
 40
1
 40
1
 40
1
 10
1347.776880
 20
39.062340
 30
0.0
 10
1345.273530
 20
40.913115
 30
0.0
 10
1344.962655
 20
42.349590
 30
0.0
 10
1346.569080
 20
44.643090
 30
0.0
  0
SPLINE
  5
24f
100
AcDbEntity
  8
0
 62
7
100
AcDbSpline
 70
8
 71
3
 72
8
 73
4
 74
0
 40
0
 40
0
 40
0
 40
0
 40
1
 40
1
 40
1
 40
1
 10
1346.569080
 20
44.643090
 30
0.0
 10
1348.617780
 20
47.568015
 30
0.0
 10
1348.909455
 20
51.744090
 30
0.0
 10
1347.098130
 20
52.218090
 30
0.0
  0
SPLINE
  5
250
100
AcDbEntity
  8
0
 62
7
100
AcDbSpline
 70
8
 71
3
 72
8
 73
4
 74
0
 40
0
 40
0
 40
0
 40
0
 40
1
 40
1
 40
1
 40
1
 10
1347.098130
 20
52.218090
 30
0.0
 10
1345.172880
 20
52.721565
 30
0.0
 10
1344.995805
 20
55.147290
 30
0.0
 10
1346.706030
 20
57.588990
 30
0.0
  0
SPLINE
  5
251
100
AcDbEntity
  8
0
 62
7
100
AcDbSpline
 70
8
 71
3
 72
8
 73
4
 74
0
 40
0
 40
0
 40
0
 40
0
 40
1
 40
1
 40
1
 40
1
 10
1346.706030
 20
57.588990
 30
0.0
 10
1347.366030
 20
58.531290
 30
0.0
 10
1347.906030
 20
60.420990
 30
0.0
 10
1347.906030
 20
61.788315
 30
0.0
  0
SPLINE
  5
252
100
AcDbEntity
  8
0
 62
7
100
AcDbSpline
 70
8
 71
3
 72
8
 73
4
 74
0
 40
0
 40
0
 40
0
 40
0
 40
1
 40
1
 40
1
 40
1
 10
1347.906030
 20
61.788315
 30
0.0
 10
1347.906030
 20
64.072065
 30
0.0
 10
1361.771280
 20
79.459815
 30
0.0
 10
1363.829280
 20
79.459815
 30
0.0
  0
SPLINE
  5
253
100
AcDbEntity
  8
0
 62
7
100
AcDbSpline
 70
8
 71
3
 72
8
 73
4
 74
0
 40
0
 40
0
 40
0
 40
0
 40
1
 40
1
 40
1
 40
1
 10
1363.829280
 20
79.459815
 30
0.0
 10
1365.606180
 20
79.459815
 30
0.0
 10
1372.673280
 20
85.486290
 30
0.0
 10
1373.982030
 20
88.117065
 30
0.0
  0
SPLINE
  5
254
100
AcDbEntity
  8
0
 62
7
100
AcDbSpline
 70
8
 71
3
 72
8
 73
4
 74
0
 40
0
 40
0
 40
0
 40
0
 40
1
 40
1
 40
1
 40
1
 10
1373.982030
 20
88.117065
 30
0.0
 10
1377.157080
 20
94.501290
 30
0.0
 10
1382.407530
 20
97.455315
 30
0.0
 10
1390.593780
 20
97.463565
 30
0.0
  0
SPLINE
  5
255
100
AcDbEntity
  8
0
 62
7
100
AcDbSpline
 70
8
 71
3
 72
8
 73
4
 74
0
 40
0
 40
0
 40
0
 40
0
 40
1
 40
1
 40
1
 40
1
 10
1390.593780
 20
97.463565
 30
0.0
 10
1399.531530
 20
97.472565
 30
0.0
 10
1406.527530
 20
104.503440
 30
0.0
 10
1405.160280
 20
112.102065
 30
0.0
  0
SPLINE
  5
256
100
AcDbEntity
  8
0
 62
7
100
AcDbSpline
 70
8
 71
3
 72
8
 73
4
 74
0
 40
0
 40
0
 40
0
 40
0
 40
1
 40
1
 40
1
 40
1
 10
1405.160280
 20
112.102065
 30
0.0
 10
1404.910830
 20
113.488665
 30
0.0
 10
1405.180530
 20
114.981165
 30
0.0
 10
1405.854780
 20
115.943565
 30
0.0
  0
SPLINE
  5
257
100
AcDbEntity
  8
0
 62
7
100
AcDbSpline
 70
8
 71
3
 72
8
 73
4
 74
0
 40
0
 40
0
 40
0
 40
0
 40
1
 40
1
 40
1
 40
1
 10
1405.854780
 20
115.943565
 30
0.0
 10
1409.564055
 20
121.239315
 30
0.0
 10
1411.798755
 20
147.138315
 30
0.0
 10
1408.998255
 20
152.374065
 30
0.0
  0
LWPOLYLINE
  5
258
100
AcDbEntity
  8
0
 62
7
100
AcDbPolyline
 90
3
 70
0
 10
1357.975530
 20
25.631490
 30
0.0
 10
1354.131030
 20
25.320840
 30
0.0
 10
1351.663380
 20
30.662865
 30
0.0
  0
SPLINE
  5
259
100
AcDbEntity
  8
0
 62
7
100
AcDbSpline
 70
8
 71
3
 72
8
 73
4
 74
0
 40
0
 40
0
 40
0
 40
0
 40
1
 40
1
 40
1
 40
1
 10
1409.424180
 20
157.081665
 30
0.0
 10
1412.566080
 20
160.223640
 30
0.0
 10
1413.659955
 20
180.253665
 30
0.0
 10
1411.185555
 20
189.334665
 30
0.0
  0
SPLINE
  5
25a
100
AcDbEntity
  8
0
 62
7
100
AcDbSpline
 70
8
 71
3
 72
8
 73
4
 74
0
 40
0
 40
0
 40
0
 40
0
 40
1
 40
1
 40
1
 40
1
 10
1411.185555
 20
189.334665
 30
0.0
 10
1410.623580
 20
191.397165
 30
0.0
 10
1409.951130
 20
195.615915
 30
0.0
 10
1409.691255
 20
198.709665
 30
0.0
  0
SPLINE
  5
25b
100
AcDbEntity
  8
0
 62
7
100
AcDbSpline
 70
8
 71
3
 72
8
 73
4
 74
0
 40
0
 40
0
 40
0
 40
0
 40
1
 40
1
 40
1
 40
1
 10
1409.691255
 20
198.709665
 30
0.0
 10
1409.431455
 20
201.803415
 30
0.0
 10
1408.735905
 20
205.684665
 30
0.0
 10
1408.145655
 20
207.334665
 30
0.0
  0
SPLINE
  5
25c
100
AcDbEntity
  8
0
 62
7
100
AcDbSpline
 70
8
 71
3
 72
8
 73
4
 74
0
 40
0
 40
0
 40
0
 40
0
 40
1
 40
1
 40
1
 40
1
 10
1408.145655
 20
207.334665
 30
0.0
 10
1407.555330
 20
208.984665
 30
0.0
 10
1407.057555
 20
211.463790
 30
0.0
 10
1407.039480
 20
212.843865
 30
0.0
  0
SPLINE
  5
25d
100
AcDbEntity
  8
0
 62
7
100
AcDbSpline
 70
8
 71
3
 72
8
 73
4
 74
0
 40
0
 40
0
 40
0
 40
0
 40
1
 40
1
 40
1
 40
1
 10
1407.039480
 20
212.843865
 30
0.0
 10
1407.021480
 20
214.223940
 30
0.0
 10
1406.342355
 20
216.285915
 30
0.0
 10
1405.530555
 20
217.425915
 30
0.0
  0
SPLINE
  5
25e
100
AcDbEntity
  8
0
 62
7
100
AcDbSpline
 70
8
 71
3
 72
8
 73
4
 74
0
 40
0
 40
0
 40
0
 40
0
 40
1
 40
1
 40
1
 40
1
 10
1405.530555
 20
217.425915
 30
0.0
 10
1403.424555
 20
220.383615
 30
0.0
 10
1398.006555
 20
231.771915
 30
0.0
 10
1398.006555
 20
233.241165
 30
0.0
  0
SPLINE
  5
25f
100
AcDbEntity
  8
0
 62
7
100
AcDbSpline
 70
8
 71
3
 72
8
 73
4
 74
0
 40
0
 40
0
 40
0
 40
0
 40
1
 40
1
 40
1
 40
1
 10
1398.006555
 20
233.241165
 30
0.0
 10
1398.006555
 20
233.920965
 30
0.0
 10
1397.378280
 20
235.045665
 30
0.0
 10
1396.610430
 20
235.740615
 30
0.0
  0
SPLINE
  5
260
100
AcDbEntity
  8
0
 62
7
100
AcDbSpline
 70
8
 71
3
 72
8
 73
4
 74
0
 40
0
 40
0
 40
0
 40
0
 40
1
 40
1
 40
1
 40
1
 10
1396.610430
 20
235.740615
 30
0.0
 10
1395.842580
 20
236.435490
 30
0.0
 10
1394.627280
 20
238.428390
 30
0.0
 10
1393.909755
 20
240.169290
 30
0.0
  0
SPLINE
  5
261
100
AcDbEntity
  8
0
 62
7
100
AcDbSpline
 70
8
 71
3
 72
8
 73
4
 74
0
 40
0
 40
0
 40
0
 40
0
 40
1
 40
1
 40
1
 40
1
 10
1393.909755
 20
240.169290
 30
0.0
 10
1390.486680
 20
248.474790
 30
0.0
 10
1387.277130
 20
253.808790
 30
0.0
 10
1382.629005
 20
258.917790
 30
0.0
  0
SPLINE
  5
262
100
AcDbEntity
  8
0
 62
7
100
AcDbSpline
 70
8
 71
3
 72
8
 73
4
 74
0
 40
0
 40
0
 40
0
 40
0
 40
1
 40
1
 40
1
 40
1
 10
1382.629005
 20
258.917790
 30
0.0
 10
1380.567930
 20
261.183090
 30
0.0
 10
1377.025380
 20
265.487265
 30
0.0
 10
1374.757005
 20
268.482540
 30
0.0
  0
SPLINE
  5
263
100
AcDbEntity
  8
0
 62
7
100
AcDbSpline
 70
8
 71
3
 72
8
 73
4
 74
0
 40
0
 40
0
 40
0
 40
0
 40
1
 40
1
 40
1
 40
1
 10
1374.757005
 20
268.482540
 30
0.0
 10
1372.488255
 20
271.477965
 30
0.0
 10
1369.708605
 20
274.614465
 30
0.0
 10
1368.580005
 20
275.452590
 30
0.0
  0
SPLINE
  5
264
100
AcDbEntity
  8
0
 62
7
100
AcDbSpline
 70
8
 71
3
 72
8
 73
4
 74
0
 40
0
 40
0
 40
0
 40
0
 40
1
 40
1
 40
1
 40
1
 10
1368.580005
 20
275.452590
 30
0.0
 10
1367.451405
 20
276.290715
 30
0.0
 10
1364.769405
 20
279.700815
 30
0.0
 10
1362.619980
 20
283.030590
 30
0.0
  0
SPLINE
  5
265
100
AcDbEntity
  8
0
 62
7
100
AcDbSpline
 70
8
 71
3
 72
8
 73
4
 74
0
 40
0
 40
0
 40
0
 40
0
 40
1
 40
1
 40
1
 40
1
 10
1362.619980
 20
283.030590
 30
0.0
 10
1360.470555
 20
286.360440
 30
0.0
 10
1356.443655
 20
291.346590
 30
0.0
 10
1353.670980
 20
294.111840
 30
0.0
  0
SPLINE
  5
266
100
AcDbEntity
  8
0
 62
7
100
AcDbSpline
 70
8
 71
3
 72
8
 73
4
 74
0
 40
0
 40
0
 40
0
 40
0
 40
1
 40
1
 40
1
 40
1
 10
1353.670980
 20
294.111840
 30
0.0
 10
1350.898605
 20
296.876565
 30
0.0
 10
1348.409730
 20
299.833890
 30
0.0
 10
1348.140030
 20
300.683640
 30
0.0
  0
SPLINE
  5
267
100
AcDbEntity
  8
0
 62
7
100
AcDbSpline
 70
8
 71
3
 72
8
 73
4
 74
0
 40
0
 40
0
 40
0
 40
0
 40
1
 40
1
 40
1
 40
1
 10
1348.140030
 20
300.683640
 30
0.0
 10
1347.870330
 20
301.533390
 30
0.0
 10
1346.499480
 20
303.010215
 30
0.0
 10
1345.093680
 20
303.965490
 30
0.0
  0
SPLINE
  5
268
100
AcDbEntity
  8
0
 62
7
100
AcDbSpline
 70
8
 71
3
 72
8
 73
4
 74
0
 40
0
 40
0
 40
0
 40
0
 40
1
 40
1
 40
1
 40
1
 10
1345.093680
 20
303.965490
 30
0.0
 10
1341.979080
 20
306.081915
 30
0.0
 10
1333.506930
 20
315.552240
 30
0.0
 10
1333.506930
 20
316.917240
 30
0.0
  0
SPLINE
  5
269
100
AcDbEntity
  8
0
 62
7
100
AcDbSpline
 70
8
 71
3
 72
8
 73
4
 74
0
 40
0
 40
0
 40
0
 40
0
 40
1
 40
1
 40
1
 40
1
 10
1333.506930
 20
316.917240
 30
0.0
 10
1333.506930
 20
317.832990
 30
0.0
 10
1332.070455
 20
319.514115
 30
0.0
 10
1324.581930
 20
327.361740
 30
0.0
  0
SPLINE
  5
26a
100
AcDbEntity
  8
0
 62
7
100
AcDbSpline
 70
8
 71
3
 72
8
 73
4
 74
0
 40
0
 40
0
 40
0
 40
0
 40
1
 40
1
 40
1
 40
1
 10
1324.581930
 20
327.361740
 30
0.0
 10
1322.993280
 20
329.026665
 30
0.0
 10
1320.469830
 20
332.301690
 30
0.0
 10
1318.974255
 20
334.639590
 30
0.0
  0
SPLINE
  5
26b
100
AcDbEntity
  8
0
 62
7
100
AcDbSpline
 70
8
 71
3
 72
8
 73
4
 74
0
 40
0
 40
0
 40
0
 40
0
 40
1
 40
1
 40
1
 40
1
 10
1318.974255
 20
334.639590
 30
0.0
 10
1317.478755
 20
336.977490
 30
0.0
 10
1314.886980
 20
339.989865
 30
0.0
 10
1313.214705
 20
341.333715
 30
0.0
  0
SPLINE
  5
26c
100
AcDbEntity
  8
0
 62
7
100
AcDbSpline
 70
8
 71
3
 72
8
 73
4
 74
0
 40
0
 40
0
 40
0
 40
0
 40
1
 40
1
 40
1
 40
1
 10
1313.214705
 20
341.333715
 30
0.0
 10
1310.043180
 20
343.882440
 30
0.0
 10
1300.034205
 20
355.236465
 30
0.0
 10
1296.941205
 20
359.794215
 30
0.0
  0
SPLINE
  5
26d
100
AcDbEntity
  8
0
 62
7
100
AcDbSpline
 70
8
 71
3
 72
8
 73
4
 74
0
 40
0
 40
0
 40
0
 40
0
 40
1
 40
1
 40
1
 40
1
 10
1296.941205
 20
359.794215
 30
0.0
 10
1295.957205
 20
361.244190
 30
0.0
 10
1292.780205
 20
364.827690
 30
0.0
 10
1289.881230
 20
367.757715
 30
0.0
  0
SPLINE
  5
26e
100
AcDbEntity
  8
0
 62
7
100
AcDbSpline
 70
8
 71
3
 72
8
 73
4
 74
0
 40
0
 40
0
 40
0
 40
0
 40
1
 40
1
 40
1
 40
1
 10
1289.881230
 20
367.757715
 30
0.0
 10
1286.982180
 20
370.687590
 30
0.0
 10
1281.911730
 20
376.367715
 30
0.0
 10
1278.613230
 20
380.379465
 30
0.0
  0
SPLINE
  5
26f
100
AcDbEntity
  8
0
 62
7
100
AcDbSpline
 70
8
 71
3
 72
8
 73
4
 74
0
 40
0
 40
0
 40
0
 40
0
 40
1
 40
1
 40
1
 40
1
 10
1278.613230
 20
380.379465
 30
0.0
 10
1275.315030
 20
384.391440
 30
0.0
 10
1271.466855
 20
388.384215
 30
0.0
 10
1270.061730
 20
389.252715
 30
0.0
  0
SPLINE
  5
270
100
AcDbEntity
  8
0
 62
7
100
AcDbSpline
 70
8
 71
3
 72
8
 73
4
 74
0
 40
0
 40
0
 40
0
 40
0
 40
1
 40
1
 40
1
 40
1
 10
1270.061730
 20
389.252715
 30
0.0
 10
1268.656530
 20
390.121140
 30
0.0
 10
1266.318480
 20
392.281965
 30
0.0
 10
1264.866030
 20
394.054515
 30
0.0
  0
SPLINE
  5
271
100
AcDbEntity
  8
0
 62
7
100
AcDbSpline
 70
8
 71
3
 72
8
 73
4
 74
0
 40
0
 40
0
 40
0
 40
0
 40
1
 40
1
 40
1
 40
1
 10
1264.866030
 20
394.054515
 30
0.0
 10
1262.186880
 20
397.323990
 30
0.0
 10
1261.573380
 20
397.790340
 30
0.0
 10
1250.256780
 20
405.159765
 30
0.0
  0
SPLINE
  5
272
100
AcDbEntity
  8
0
 62
7
100
AcDbSpline
 70
8
 71
3
 72
8
 73
4
 74
0
 40
0
 40
0
 40
0
 40
0
 40
1
 40
1
 40
1
 40
1
 10
1250.256780
 20
405.159765
 30
0.0
 10
1246.750530
 20
407.442990
 30
0.0
 10
1242.579030
 20
410.887290
 30
0.0
 10
1240.987530
 20
412.813515
 30
0.0
  0
SPLINE
  5
273
100
AcDbEntity
  8
0
 62
7
100
AcDbSpline
 70
8
 71
3
 72
8
 73
4
 74
0
 40
0
 40
0
 40
0
 40
0
 40
1
 40
1
 40
1
 40
1
 10
1240.987530
 20
412.813515
 30
0.0
 10
1239.395505
 20
414.739890
 30
0.0
 10
1237.367880
 20
416.646390
 30
0.0
 10
1236.481605
 20
417.050265
 30
0.0
  0
SPLINE
  5
274
100
AcDbEntity
  8
0
 62
7
100
AcDbSpline
 70
8
 71
3
 72
8
 73
4
 74
0
 40
0
 40
0
 40
0
 40
0
 40
1
 40
1
 40
1
 40
1
 10
1236.481605
 20
417.050265
 30
0.0
 10
1235.595330
 20
417.454065
 30
0.0
 10
1233.371880
 20
419.830965
 30
0.0
 10
1231.540605
 20
422.332215
 30
0.0
  0
SPLINE
  5
275
100
AcDbEntity
  8
0
 62
7
100
AcDbSpline
 70
8
 71
3
 72
8
 73
4
 74
0
 40
0
 40
0
 40
0
 40
0
 40
1
 40
1
 40
1
 40
1
 10
1231.540605
 20
422.332215
 30
0.0
 10
1227.875655
 20
427.338165
 30
0.0
 10
1217.662605
 20
437.959215
 30
0.0
 10
1216.513605
 20
437.959215
 30
0.0
  0
SPLINE
  5
276
100
AcDbEntity
  8
0
 62
7
100
AcDbSpline
 70
8
 71
3
 72
8
 73
4
 74
0
 40
0
 40
0
 40
0
 40
0
 40
1
 40
1
 40
1
 40
1
 10
1216.513605
 20
437.959215
 30
0.0
 10
1216.114380
 20
437.959215
 30
0.0
 10
1215.067755
 20
439.393590
 30
0.0
 10
1214.187855
 20
441.146715
 30
0.0
  0
SPLINE
  5
277
100
AcDbEntity
  8
0
 62
7
100
AcDbSpline
 70
8
 71
3
 72
8
 73
4
 74
0
 40
0
 40
0
 40
0
 40
0
 40
1
 40
1
 40
1
 40
1
 10
1214.187855
 20
441.146715
 30
0.0
 10
1213.307880
 20
442.899840
 30
0.0
 10
1211.967180
 20
445.013790
 30
0.0
 10
1211.208405
 20
445.844415
 30
0.0
  0
SPLINE
  5
278
100
AcDbEntity
  8
0
 62
7
100
AcDbSpline
 70
8
 71
3
 72
8
 73
4
 74
0
 40
0
 40
0
 40
0
 40
0
 40
1
 40
1
 40
1
 40
1
 10
1211.208405
 20
445.844415
 30
0.0
 10
1210.449630
 20
446.675115
 30
0.0
 10
1209.267855
 20
448.700115
 30
0.0
 10
1208.582205
 20
450.344415
 30
0.0
  0
SPLINE
  5
279
100
AcDbEntity
  8
0
 62
7
100
AcDbSpline
 70
8
 71
3
 72
8
 73
4
 74
0
 40
0
 40
0
 40
0
 40
0
 40
1
 40
1
 40
1
 40
1
 10
1208.582205
 20
450.344415
 30
0.0
 10
1207.896630
 20
451.988790
 30
0.0
 10
1206.676155
 20
454.262490
 30
0.0
 10
1205.870130
 20
455.397090
 30
0.0
  0
SPLINE
  5
27a
100
AcDbEntity
  8
0
 62
7
100
AcDbSpline
 70
8
 71
3
 72
8
 73
4
 74
0
 40
0
 40
0
 40
0
 40
0
 40
1
 40
1
 40
1
 40
1
 10
1205.870130
 20
455.397090
 30
0.0
 10
1204.498605
 20
457.327590
 30
0.0
 10
1201.077180
 20
463.572090
 30
0.0
 10
1196.110380
 20
473.209590
 30
0.0
  0
SPLINE
  5
27b
100
AcDbEntity
  8
0
 62
7
100
AcDbSpline
 70
8
 71
3
 72
8
 73
4
 74
0
 40
0
 40
0
 40
0
 40
0
 40
1
 40
1
 40
1
 40
1
 10
1196.110380
 20
473.209590
 30
0.0
 10
1194.941205
 20
475.478340
 30
0.0
 10
1191.627105
 20
480.458790
 30
0.0
 10
1188.745755
 20
484.277340
 30
0.0
  0
SPLINE
  5
27c
100
AcDbEntity
  8
0
 62
7
100
AcDbSpline
 70
8
 71
3
 72
8
 73
4
 74
0
 40
0
 40
0
 40
0
 40
0
 40
1
 40
1
 40
1
 40
1
 10
1188.745755
 20
484.277340
 30
0.0
 10
1185.864480
 20
488.095815
 30
0.0
 10
1183.506255
 20
491.639565
 30
0.0
 10
1183.505280
 20
492.152340
 30
0.0
  0
SPLINE
  5
27d
100
AcDbEntity
  8
0
 62
7
100
AcDbSpline
 70
8
 71
3
 72
8
 73
4
 74
0
 40
0
 40
0
 40
0
 40
0
 40
1
 40
1
 40
1
 40
1
 10
1183.505280
 20
492.152340
 30
0.0
 10
1183.505280
 20
492.665190
 30
0.0
 10
1180.867755
 20
496.797240
 30
0.0
 10
1177.646205
 20
501.334590
 30
0.0
  0
SPLINE
  5
27e
100
AcDbEntity
  8
0
 62
7
100
AcDbSpline
 70
8
 71
3
 72
8
 73
4
 74
0
 40
0
 40
0
 40
0
 40
0
 40
1
 40
1
 40
1
 40
1
 10
1177.646205
 20
501.334590
 30
0.0
 10
1169.956455
 20
512.166090
 30
0.0
 10
1165.767705
 20
519.428340
 30
0.0
 10
1164.615705
 20
523.926840
 30
0.0
  0
SPLINE
  5
27f
100
AcDbEntity
  8
0
 62
7
100
AcDbSpline
 70
8
 71
3
 72
8
 73
4
 74
0
 40
0
 40
0
 40
0
 40
0
 40
1
 40
1
 40
1
 40
1
 10
1164.615705
 20
523.926840
 30
0.0
 10
1163.519805
 20
528.207765
 30
0.0
 10
1160.648805
 20
533.209590
 30
0.0
 10
1159.287480
 20
533.209590
 30
0.0
  0
SPLINE
  5
280
100
AcDbEntity
  8
0
 62
7
100
AcDbSpline
 70
8
 71
3
 72
8
 73
4
 74
0
 40
0
 40
0
 40
0
 40
0
 40
1
 40
1
 40
1
 40
1
 10
1159.287480
 20
533.209590
 30
0.0
 10
1155.032730
 20
533.209590
 30
0.0
 10
1156.052580
 20
493.180590
 30
0.0
 10
1160.592855
 20
481.970340
 30
0.0
  0
SPLINE
  5
281
100
AcDbEntity
  8
0
 62
7
100
AcDbSpline
 70
8
 71
3
 72
8
 73
4
 74
0
 40
0
 40
0
 40
0
 40
0
 40
1
 40
1
 40
1
 40
1
 10
1160.592855
 20
481.970340
 30
0.0
 10
1161.124230
 20
480.658290
 30
0.0
 10
1161.775905
 20
477.638265
 30
0.0
 10
1162.041030
 20
475.259040
 30
0.0
  0
SPLINE
  5
282
100
AcDbEntity
  8
0
 62
7
100
AcDbSpline
 70
8
 71
3
 72
8
 73
4
 74
0
 40
0
 40
0
 40
0
 40
0
 40
1
 40
1
 40
1
 40
1
 10
1162.041030
 20
475.259040
 30
0.0
 10
1162.567305
 20
470.535540
 30
0.0
 10
1166.019255
 20
459.575790
 30
0.0
 10
1168.464780
 20
454.863540
 30
0.0
  0
SPLINE
  5
283
100
AcDbEntity
  8
0
 62
7
100
AcDbSpline
 70
8
 71
3
 72
8
 73
4
 74
0
 40
0
 40
0
 40
0
 40
0
 40
1
 40
1
 40
1
 40
1
 10
1168.464780
 20
454.863540
 30
0.0
 10
1169.312880
 20
453.229440
 30
0.0
 10
1170.006780
 20
451.279140
 30
0.0
 10
1170.006780
 20
450.529590
 30
0.0
  0
SPLINE
  5
284
100
AcDbEntity
  8
0
 62
7
100
AcDbSpline
 70
8
 71
3
 72
8
 73
4
 74
0
 40
0
 40
0
 40
0
 40
0
 40
1
 40
1
 40
1
 40
1
 10
1170.006780
 20
450.529590
 30
0.0
 10
1170.006780
 20
449.780115
 30
0.0
 10
1171.019280
 20
447.161040
 30
0.0
 10
1172.256780
 20
444.709590
 30
0.0
  0
SPLINE
  5
285
100
AcDbEntity
  8
0
 62
7
100
AcDbSpline
 70
8
 71
3
 72
8
 73
4
 74
0
 40
0
 40
0
 40
0
 40
0
 40
1
 40
1
 40
1
 40
1
 10
1172.256780
 20
444.709590
 30
0.0
 10
1173.494280
 20
442.258140
 30
0.0
 10
1174.506780
 20
439.885140
 30
0.0
 10
1174.506780
 20
439.436265
 30
0.0
  0
SPLINE
  5
286
100
AcDbEntity
  8
0
 62
7
100
AcDbSpline
 70
8
 71
3
 72
8
 73
4
 74
0
 40
0
 40
0
 40
0
 40
0
 40
1
 40
1
 40
1
 40
1
 10
1174.506780
 20
439.436265
 30
0.0
 10
1174.506780
 20
438.987465
 30
0.0
 10
1175.856780
 20
435.791715
 30
0.0
 10
1177.506780
 20
432.334590
 30
0.0
  0
SPLINE
  5
287
100
AcDbEntity
  8
0
 62
7
100
AcDbSpline
 70
8
 71
3
 72
8
 73
4
 74
0
 40
0
 40
0
 40
0
 40
0
 40
1
 40
1
 40
1
 40
1
 10
1177.506780
 20
432.334590
 30
0.0
 10
1179.156780
 20
428.877465
 30
0.0
 10
1180.506780
 20
425.850990
 30
0.0
 10
1180.506780
 20
425.609040
 30
0.0
  0
SPLINE
  5
288
100
AcDbEntity
  8
0
 62
7
100
AcDbSpline
 70
8
 71
3
 72
8
 73
4
 74
0
 40
0
 40
0
 40
0
 40
0
 40
1
 40
1
 40
1
 40
1
 10
1180.506780
 20
425.609040
 30
0.0
 10
1180.506780
 20
425.367090
 30
0.0
 10
1182.342180
 20
422.124615
 30
0.0
 10
1184.585430
 20
418.403490
 30
0.0
  0
SPLINE
  5
289
100
AcDbEntity
  8
0
 62
7
100
AcDbSpline
 70
8
 71
3
 72
8
 73
4
 74
0
 40
0
 40
0
 40
0
 40
0
 40
1
 40
1
 40
1
 40
1
 10
1184.585430
 20
418.403490
 30
0.0
 10
1186.828680
 20
414.682440
 30
0.0
 10
1189.060080
 20
410.388240
 30
0.0
 10
1189.544055
 20
408.861240
 30
0.0
  0
SPLINE
  5
28a
100
AcDbEntity
  8
0
 62
7
100
AcDbSpline
 70
8
 71
3
 72
8
 73
4
 74
0
 40
0
 40
0
 40
0
 40
0
 40
1
 40
1
 40
1
 40
1
 10
1189.544055
 20
408.861240
 30
0.0
 10
1190.027955
 20
407.334090
 30
0.0
 10
1190.966955
 20
405.240840
 30
0.0
 10
1191.630630
 20
404.209590
 30
0.0
  0
SPLINE
  5
28b
100
AcDbEntity
  8
0
 62
7
100
AcDbSpline
 70
8
 71
3
 72
8
 73
4
 74
0
 40
0
 40
0
 40
0
 40
0
 40
1
 40
1
 40
1
 40
1
 10
1191.630630
 20
404.209590
 30
0.0
 10
1192.294305
 20
403.178340
 30
0.0
 10
1193.353530
 20
401.413440
 30
0.0
 10
1193.984505
 20
400.287615
 30
0.0
  0
SPLINE
  5
28c
100
AcDbEntity
  8
0
 62
7
100
AcDbSpline
 70
8
 71
3
 72
8
 73
4
 74
0
 40
0
 40
0
 40
0
 40
0
 40
1
 40
1
 40
1
 40
1
 10
1193.984505
 20
400.287615
 30
0.0
 10
1200.054255
 20
389.457615
 30
0.0
 10
1202.021505
 20
386.240115
 30
0.0
 10
1203.875505
 20
384.108615
 30
0.0
  0
SPLINE
  5
28d
100
AcDbEntity
  8
0
 62
7
100
AcDbSpline
 70
8
 71
3
 72
8
 73
4
 74
0
 40
0
 40
0
 40
0
 40
0
 40
1
 40
1
 40
1
 40
1
 10
1203.875505
 20
384.108615
 30
0.0
 10
1205.060130
 20
382.746690
 30
0.0
 10
1207.376580
 20
379.034190
 30
0.0
 10
1209.023205
 20
375.858615
 30
0.0
  0
SPLINE
  5
28e
100
AcDbEntity
  8
0
 62
7
100
AcDbSpline
 70
8
 71
3
 72
8
 73
4
 74
0
 40
0
 40
0
 40
0
 40
0
 40
1
 40
1
 40
1
 40
1
 10
1209.023205
 20
375.858615
 30
0.0
 10
1213.144305
 20
367.910865
 30
0.0
 10
1214.682555
 20
365.293365
 30
0.0
 10
1216.324530
 20
363.431865
 30
0.0
  0
SPLINE
  5
28f
100
AcDbEntity
  8
0
 62
7
100
AcDbSpline
 70
8
 71
3
 72
8
 73
4
 74
0
 40
0
 40
0
 40
0
 40
0
 40
1
 40
1
 40
1
 40
1
 10
1216.324530
 20
363.431865
 30
0.0
 10
1217.099505
 20
362.553465
 30
0.0
 10
1219.395030
 20
359.356365
 30
0.0
 10
1221.425655
 20
356.327190
 30
0.0
  0
SPLINE
  5
290
100
AcDbEntity
  8
0
 62
7
100
AcDbSpline
 70
8
 71
3
 72
8
 73
4
 74
0
 40
0
 40
0
 40
0
 40
0
 40
1
 40
1
 40
1
 40
1
 10
1221.425655
 20
356.327190
 30
0.0
 10
1223.456205
 20
353.298015
 30
0.0
 10
1225.685955
 20
350.515440
 30
0.0
 10
1226.380680
 20
350.143665
 30
0.0
  0
SPLINE
  5
291
100
AcDbEntity
  8
0
 62
7
100
AcDbSpline
 70
8
 71
3
 72
8
 73
4
 74
0
 40
0
 40
0
 40
0
 40
0
 40
1
 40
1
 40
1
 40
1
 10
1226.380680
 20
350.143665
 30
0.0
 10
1227.075330
 20
349.771890
 30
0.0
 10
1228.906080
 20
347.389515
 30
0.0
 10
1230.449055
 20
344.849490
 30
0.0
  0
SPLINE
  5
292
100
AcDbEntity
  8
0
 62
7
100
AcDbSpline
 70
8
 71
3
 72
8
 73
4
 74
0
 40
0
 40
0
 40
0
 40
0
 40
1
 40
1
 40
1
 40
1
 10
1230.449055
 20
344.849490
 30
0.0
 10
1231.992030
 20
342.309540
 30
0.0
 10
1234.717605
 20
338.583990
 30
0.0
 10
1236.505755
 20
336.570240
 30
0.0
  0
SPLINE
  5
293
100
AcDbEntity
  8
0
 62
7
100
AcDbSpline
 70
8
 71
3
 72
8
 73
4
 74
0
 40
0
 40
0
 40
0
 40
0
 40
1
 40
1
 40
1
 40
1
 10
1236.505755
 20
336.570240
 30
0.0
 10
1238.293980
 20
334.556790
 30
0.0
 10
1239.757080
 20
332.611515
 30
0.0
 10
1239.757080
 20
332.247390
 30
0.0
  0
SPLINE
  5
294
100
AcDbEntity
  8
0
 62
7
100
AcDbSpline
 70
8
 71
3
 72
8
 73
4
 74
0
 40
0
 40
0
 40
0
 40
0
 40
1
 40
1
 40
1
 40
1
 10
1239.757080
 20
332.247390
 30
0.0
 10
1239.757080
 20
331.883265
 30
0.0
 10
1241.133555
 20
330.122640
 30
0.0
 10
1242.815880
 20
328.334940
 30
0.0
  0
SPLINE
  5
295
100
AcDbEntity
  8
0
 62
7
100
AcDbSpline
 70
8
 71
3
 72
8
 73
4
 74
0
 40
0
 40
0
 40
0
 40
0
 40
1
 40
1
 40
1
 40
1
 10
1242.815880
 20
328.334940
 30
0.0
 10
1244.498205
 20
326.547165
 30
0.0
 10
1246.357980
 20
324.166365
 30
0.0
 10
1246.948680
 20
323.044215
 30
0.0
  0
SPLINE
  5
296
100
AcDbEntity
  8
0
 62
7
100
AcDbSpline
 70
8
 71
3
 72
8
 73
4
 74
0
 40
0
 40
0
 40
0
 40
0
 40
1
 40
1
 40
1
 40
1
 10
1246.948680
 20
323.044215
 30
0.0
 10
1247.539305
 20
321.922065
 30
0.0
 10
1248.660180
 20
320.662740
 30
0.0
 10
1249.439430
 20
320.245740
 30
0.0
  0
SPLINE
  5
297
100
AcDbEntity
  8
0
 62
7
100
AcDbSpline
 70
8
 71
3
 72
8
 73
4
 74
0
 40
0
 40
0
 40
0
 40
0
 40
1
 40
1
 40
1
 40
1
 10
1249.439430
 20
320.245740
 30
0.0
 10
1250.218680
 20
319.828665
 30
0.0
 10
1252.289955
 20
317.371890
 30
0.0
 10
1254.042330
 20
314.785965
 30
0.0
  0
SPLINE
  5
298
100
AcDbEntity
  8
0
 62
7
100
AcDbSpline
 70
8
 71
3
 72
8
 73
4
 74
0
 40
0
 40
0
 40
0
 40
0
 40
1
 40
1
 40
1
 40
1
 10
1254.042330
 20
314.785965
 30
0.0
 10
1255.794705
 20
312.200190
 30
0.0
 10
1258.369080
 20
308.807790
 30
0.0
 10
1259.763180
 20
307.246965
 30
0.0
  0
SPLINE
  5
299
100
AcDbEntity
  8
0
 62
7
100
AcDbSpline
 70
8
 71
3
 72
8
 73
4
 74
0
 40
0
 40
0
 40
0
 40
0
 40
1
 40
1
 40
1
 40
1
 10
1259.763180
 20
307.246965
 30
0.0
 10
1261.157280
 20
305.686515
 30
0.0
 10
1263.083730
 20
302.649015
 30
0.0
 10
1264.044180
 20
300.496965
 30
0.0
  0
SPLINE
  5
29a
100
AcDbEntity
  8
0
 62
7
100
AcDbSpline
 70
8
 71
3
 72
8
 73
4
 74
0
 40
0
 40
0
 40
0
 40
0
 40
1
 40
1
 40
1
 40
1
 10
1264.044180
 20
300.496965
 30
0.0
 10
1265.004630
 20
298.344990
 30
0.0
 10
1266.514230
 20
295.941315
 30
0.0
 10
1267.398780
 20
295.155465
 30
0.0
  0
SPLINE
  5
29b
100
AcDbEntity
  8
0
 62
7
100
AcDbSpline
 70
8
 71
3
 72
8
 73
4
 74
0
 40
0
 40
0
 40
0
 40
0
 40
1
 40
1
 40
1
 40
1
 10
1267.398780
 20
295.155465
 30
0.0
 10
1268.283330
 20
294.369690
 30
0.0
 10
1269.007080
 20
293.277690
 30
0.0
 10
1269.007080
 20
292.728915
 30
0.0
  0
SPLINE
  5
29c
100
AcDbEntity
  8
0
 62
7
100
AcDbSpline
 70
8
 71
3
 72
8
 73
4
 74
0
 40
0
 40
0
 40
0
 40
0
 40
1
 40
1
 40
1
 40
1
 10
1269.007080
 20
292.728915
 30
0.0
 10
1269.007080
 20
292.180140
 30
0.0
 10
1270.058280
 20
289.725690
 30
0.0
 10
1271.343180
 20
287.274540
 30
0.0
  0
SPLINE
  5
29d
100
AcDbEntity
  8
0
 62
7
100
AcDbSpline
 70
8
 71
3
 72
8
 73
4
 74
0
 40
0
 40
0
 40
0
 40
0
 40
1
 40
1
 40
1
 40
1
 10
1271.343180
 20
287.274540
 30
0.0
 10
1275.405855
 20
279.524040
 30
0.0
 10
1274.296455
 20
265.166040
 30
0.0
 10
1269.076380
 20
257.936790
 30
0.0
  0
SPLINE
  5
29e
100
AcDbEntity
  8
0
 62
7
100
AcDbSpline
 70
8
 71
3
 72
8
 73
4
 74
0
 40
0
 40
0
 40
0
 40
0
 40
1
 40
1
 40
1
 40
1
 10
1269.076380
 20
257.936790
 30
0.0
 10
1267.428555
 20
255.654840
 30
0.0
 10
1263.714105
 20
247.154790
 30
0.0
 10
1261.876155
 20
241.459290
 30
0.0
  0
SPLINE
  5
29f
100
AcDbEntity
  8
0
 62
7
100
AcDbSpline
 70
8
 71
3
 72
8
 73
4
 74
0
 40
0
 40
0
 40
0
 40
0
 40
1
 40
1
 40
1
 40
1
 10
1261.876155
 20
241.459290
 30
0.0
 10
1261.144005
 20
239.190540
 30
0.0
 10
1260.086430
 20
236.061840
 30
0.0
 10
1259.526030
 20
234.506640
 30
0.0
  0
SPLINE
  5
2a0
100
AcDbEntity
  8
0
 62
7
100
AcDbSpline
 70
8
 71
3
 72
8
 73
4
 74
0
 40
0
 40
0
 40
0
 40
0
 40
1
 40
1
 40
1
 40
1
 10
1259.526030
 20
234.506640
 30
0.0
 10
1258.965630
 20
232.951365
 30
0.0
 10
1258.507080
 20
230.557365
 30
0.0
 10
1258.507080
 20
229.186515
 30
0.0
  0
SPLINE
  5
2a1
100
AcDbEntity
  8
0
 62
7
100
AcDbSpline
 70
8
 71
3
 72
8
 73
4
 74
0
 40
0
 40
0
 40
0
 40
0
 40
1
 40
1
 40
1
 40
1
 10
1258.507080
 20
229.186515
 30
0.0
 10
1258.507080
 20
226.417590
 30
0.0
 10
1256.462205
 20
220.162515
 30
0.0
 10
1254.069555
 20
215.613015
 30
0.0
  0
SPLINE
  5
2a2
100
AcDbEntity
  8
0
 62
7
100
AcDbSpline
 70
8
 71
3
 72
8
 73
4
 74
0
 40
0
 40
0
 40
0
 40
0
 40
1
 40
1
 40
1
 40
1
 10
1254.069555
 20
215.613015
 30
0.0
 10
1253.210205
 20
213.978915
 30
0.0
 10
1252.507080
 20
211.597590
 30
0.0
 10
1252.507080
 20
210.321165
 30
0.0
  0
SPLINE
  5
2a3
100
AcDbEntity
  8
0
 62
7
100
AcDbSpline
 70
8
 71
3
 72
8
 73
4
 74
0
 40
0
 40
0
 40
0
 40
0
 40
1
 40
1
 40
1
 40
1
 10
1252.507080
 20
210.321165
 30
0.0
 10
1252.507080
 20
209.012415
 30
0.0
 10
1251.675405
 20
206.874090
 30
0.0
 10
1250.599680
 20
205.417290
 30
0.0
  0
SPLINE
  5
2a4
100
AcDbEntity
  8
0
 62
7
100
AcDbSpline
 70
8
 71
3
 72
8
 73
4
 74
0
 40
0
 40
0
 40
0
 40
0
 40
1
 40
1
 40
1
 40
1
 10
1250.599680
 20
205.417290
 30
0.0
 10
1249.550580
 20
203.996490
 30
0.0
 10
1248.192405
 20
201.116490
 30
0.0
 10
1247.581530
 20
199.017315
 30
0.0
  0
SPLINE
  5
2a5
100
AcDbEntity
  8
0
 62
7
100
AcDbSpline
 70
8
 71
3
 72
8
 73
4
 74
0
 40
0
 40
0
 40
0
 40
0
 40
1
 40
1
 40
1
 40
1
 10
1247.581530
 20
199.017315
 30
0.0
 10
1246.970655
 20
196.918065
 30
0.0
 10
1244.959380
 20
193.054065
 30
0.0
 10
1243.111980
 20
190.430565
 30
0.0
  0
SPLINE
  5
2a6
100
AcDbEntity
  8
0
 62
7
100
AcDbSpline
 70
8
 71
3
 72
8
 73
4
 74
0
 40
0
 40
0
 40
0
 40
0
 40
1
 40
1
 40
1
 40
1
 10
1243.111980
 20
190.430565
 30
0.0
 10
1241.264655
 20
187.807065
 30
0.0
 10
1239.079080
 20
183.858990
 30
0.0
 10
1238.255205
 20
181.657065
 30
0.0
  0
SPLINE
  5
2a7
100
AcDbEntity
  8
0
 62
7
100
AcDbSpline
 70
8
 71
3
 72
8
 73
4
 74
0
 40
0
 40
0
 40
0
 40
0
 40
1
 40
1
 40
1
 40
1
 10
1238.255205
 20
181.657065
 30
0.0
 10
1237.350405
 20
179.238690
 30
0.0
 10
1235.483880
 20
176.402415
 30
0.0
 10
1233.541155
 20
174.493815
 30
0.0
  0
SPLINE
  5
2a8
100
AcDbEntity
  8
0
 62
7
100
AcDbSpline
 70
8
 71
3
 72
8
 73
4
 74
0
 40
0
 40
0
 40
0
 40
0
 40
1
 40
1
 40
1
 40
1
 10
1233.541155
 20
174.493815
 30
0.0
 10
1231.772355
 20
172.756065
 30
0.0
 10
1229.515530
 20
170.152965
 30
0.0
 10
1228.526055
 20
168.709215
 30
0.0
  0
SPLINE
  5
2a9
100
AcDbEntity
  8
0
 62
7
100
AcDbSpline
 70
8
 71
3
 72
8
 73
4
 74
0
 40
0
 40
0
 40
0
 40
0
 40
1
 40
1
 40
1
 40
1
 10
1228.526055
 20
168.709215
 30
0.0
 10
1227.536655
 20
167.265465
 30
0.0
 10
1225.169205
 20
164.227965
 30
0.0
 10
1223.265180
 20
161.959215
 30
0.0
  0
SPLINE
  5
2aa
100
AcDbEntity
  8
0
 62
7
100
AcDbSpline
 70
8
 71
3
 72
8
 73
4
 74
0
 40
0
 40
0
 40
0
 40
0
 40
1
 40
1
 40
1
 40
1
 10
1223.265180
 20
161.959215
 30
0.0
 10
1219.859505
 20
157.901265
 30
0.0
 10
1215.401430
 20
151.391715
 30
0.0
 10
1213.505430
 20
147.709215
 30
0.0
  0
SPLINE
  5
2ab
100
AcDbEntity
  8
0
 62
7
100
AcDbSpline
 70
8
 71
3
 72
8
 73
4
 74
0
 40
0
 40
0
 40
0
 40
0
 40
1
 40
1
 40
1
 40
1
 10
1213.505430
 20
147.709215
 30
0.0
 10
1212.974505
 20
146.677965
 30
0.0
 10
1211.252580
 20
144.146715
 30
0.0
 10
1209.678855
 20
142.084215
 30
0.0
  0
SPLINE
  5
2ac
100
AcDbEntity
  8
0
 62
7
100
AcDbSpline
 70
8
 71
3
 72
8
 73
4
 74
0
 40
0
 40
0
 40
0
 40
0
 40
1
 40
1
 40
1
 40
1
 10
1209.678855
 20
142.084215
 30
0.0
 10
1201.503855
 20
131.369715
 30
0.0
 10
1195.506855
 20
122.273715
 30
0.0
 10
1195.506855
 20
120.588465
 30
0.0
  0
SPLINE
  5
2ad
100
AcDbEntity
  8
0
 62
7
100
AcDbSpline
 70
8
 71
3
 72
8
 73
4
 74
0
 40
0
 40
0
 40
0
 40
0
 40
1
 40
1
 40
1
 40
1
 10
1195.506855
 20
120.588465
 30
0.0
 10
1195.506855
 20
119.893065
 30
0.0
 10
1194.710580
 20
118.370115
 30
0.0
 10
1193.737380
 20
117.204090
 30
0.0
  0
SPLINE
  5
2ae
100
AcDbEntity
  8
0
 62
7
100
AcDbSpline
 70
8
 71
3
 72
8
 73
4
 74
0
 40
0
 40
0
 40
0
 40
0
 40
1
 40
1
 40
1
 40
1
 10
1193.737380
 20
117.204090
 30
0.0
 10
1192.764180
 20
116.038065
 30
0.0
 10
1191.435705
 20
114.071565
 30
0.0
 10
1190.785155
 20
112.834065
 30
0.0
  0
SPLINE
  5
2af
100
AcDbEntity
  8
0
 62
7
100
AcDbSpline
 70
8
 71
3
 72
8
 73
4
 74
0
 40
0
 40
0
 40
0
 40
0
 40
1
 40
1
 40
1
 40
1
 10
1190.785155
 20
112.834065
 30
0.0
 10
1190.134680
 20
111.596565
 30
0.0
 10
1188.065430
 20
108.559065
 30
0.0
 10
1186.186905
 20
106.084065
 30
0.0
  0
SPLINE
  5
2b0
100
AcDbEntity
  8
0
 62
7
100
AcDbSpline
 70
8
 71
3
 72
8
 73
4
 74
0
 40
0
 40
0
 40
0
 40
0
 40
1
 40
1
 40
1
 40
1
 10
1186.186905
 20
106.084065
 30
0.0
 10
1184.308305
 20
103.609065
 30
0.0
 10
1182.243330
 20
100.006890
 30
0.0
 10
1181.597955
 20
98.079315
 30
0.0
  0
SPLINE
  5
2b1
100
AcDbEntity
  8
0
 62
7
100
AcDbSpline
 70
8
 71
3
 72
8
 73
4
 74
0
 40
0
 40
0
 40
0
 40
0
 40
1
 40
1
 40
1
 40
1
 10
1181.597955
 20
98.079315
 30
0.0
 10
1180.952655
 20
96.151665
 30
0.0
 10
1179.882330
 20
94.126665
 30
0.0
 10
1179.219480
 20
93.579315
 30
0.0
  0
SPLINE
  5
2b2
100
AcDbEntity
  8
0
 62
7
100
AcDbSpline
 70
8
 71
3
 72
8
 73
4
 74
0
 40
0
 40
0
 40
0
 40
0
 40
1
 40
1
 40
1
 40
1
 10
1179.219480
 20
93.579315
 30
0.0
 10
1178.556630
 20
93.031890
 30
0.0
 10
1177.261530
 20
90.896565
 30
0.0
 10
1176.341505
 20
88.834065
 30
0.0
  0
SPLINE
  5
2b3
100
AcDbEntity
  8
0
 62
7
100
AcDbSpline
 70
8
 71
3
 72
8
 73
4
 74
0
 40
0
 40
0
 40
0
 40
0
 40
1
 40
1
 40
1
 40
1
 10
1176.341505
 20
88.834065
 30
0.0
 10
1175.421405
 20
86.771565
 30
0.0
 10
1173.747855
 20
84.240315
 30
0.0
 10
1172.622330
 20
83.209065
 30
0.0
  0
SPLINE
  5
2b4
100
AcDbEntity
  8
0
 62
7
100
AcDbSpline
 70
8
 71
3
 72
8
 73
4
 74
0
 40
0
 40
0
 40
0
 40
0
 40
1
 40
1
 40
1
 40
1
 10
1172.622330
 20
83.209065
 30
0.0
 10
1171.496880
 20
82.177815
 30
0.0
 10
1169.917605
 20
79.815315
 30
0.0
 10
1169.112855
 20
77.959065
 30
0.0
  0
SPLINE
  5
2b5
100
AcDbEntity
  8
0
 62
7
100
AcDbSpline
 70
8
 71
3
 72
8
 73
4
 74
0
 40
0
 40
0
 40
0
 40
0
 40
1
 40
1
 40
1
 40
1
 10
1169.112855
 20
77.959065
 30
0.0
 10
1167.509205
 20
74.260140
 30
0.0
 10
1162.332255
 20
67.104315
 30
0.0
 10
1159.738605
 20
65.002065
 30
0.0
  0
SPLINE
  5
2b6
100
AcDbEntity
  8
0
 62
7
100
AcDbSpline
 70
8
 71
3
 72
8
 73
4
 74
0
 40
0
 40
0
 40
0
 40
0
 40
1
 40
1
 40
1
 40
1
 10
1159.738605
 20
65.002065
 30
0.0
 10
1158.834855
 20
64.269465
 30
0.0
 10
1157.874330
 20
62.973240
 30
0.0
 10
1157.604030
 20
62.121690
 30
0.0
  0
SPLINE
  5
2b7
100
AcDbEntity
  8
0
 62
7
100
AcDbSpline
 70
8
 71
3
 72
8
 73
4
 74
0
 40
0
 40
0
 40
0
 40
0
 40
1
 40
1
 40
1
 40
1
 10
1157.604030
 20
62.121690
 30
0.0
 10
1157.098530
 20
60.529065
 30
0.0
 10
1150.507530
 20
56.979915
 30
0.0
 10
1148.030280
 20
56.966490
 30
0.0
  0
SPLINE
  5
2b8
100
AcDbEntity
  8
0
 62
7
100
AcDbSpline
 70
8
 71
3
 72
8
 73
4
 74
0
 40
0
 40
0
 40
0
 40
0
 40
1
 40
1
 40
1
 40
1
 10
1148.030280
 20
56.966490
 30
0.0
 10
1147.287030
 20
56.958990
 30
0.0
 10
1145.430780
 20
56.321040
 30
0.0
 10
1143.905280
 20
55.541190
 30
0.0
  0
SPLINE
  5
2b9
100
AcDbEntity
  8
0
 62
7
100
AcDbSpline
 70
8
 71
3
 72
8
 73
4
 74
0
 40
0
 40
0
 40
0
 40
0
 40
1
 40
1
 40
1
 40
1
 10
1143.905280
 20
55.541190
 30
0.0
 10
1137.595305
 20
52.315290
 30
0.0
 10
1132.365030
 20
50.209140
 30
0.0
 10
1130.664030
 20
50.209140
 30
0.0
  0
SPLINE
  5
2ba
100
AcDbEntity
  8
0
 62
7
100
AcDbSpline
 70
8
 71
3
 72
8
 73
4
 74
0
 40
0
 40
0
 40
0
 40
0
 40
1
 40
1
 40
1
 40
1
 10
1130.664030
 20
50.209140
 30
0.0
 10
1129.668780
 20
50.209140
 30
0.0
 10
1127.904405
 20
49.821315
 30
0.0
 10
1126.743180
 20
49.347240
 30
0.0
  0
SPLINE
  5
2bb
100
AcDbEntity
  8
0
 62
7
100
AcDbSpline
 70
8
 71
3
 72
8
 73
4
 74
0
 40
0
 40
0
 40
0
 40
0
 40
1
 40
1
 40
1
 40
1
 10
1126.743180
 20
49.347240
 30
0.0
 10
1124.407980
 20
48.393990
 30
0.0
 10
1118.151930
 20
47.779065
 30
0.0
 10
1096.818180
 20
46.405815
 30
0.0
  0
SPLINE
  5
2bc
100
AcDbEntity
  8
0
 62
7
100
AcDbSpline
 70
8
 71
3
 72
8
 73
4
 74
0
 40
0
 40
0
 40
0
 40
0
 40
1
 40
1
 40
1
 40
1
 10
1096.818180
 20
46.405815
 30
0.0
 10
1078.766430
 20
45.243840
 30
0.0
 10
1075.737930
 20
45.925065
 30
0.0
 10
1076.737680
 20
50.922765
 30
0.0
  0
LWPOLYLINE
  5
2bd
100
AcDbEntity
  8
0
 62
7
100
AcDbPolyline
 90
3
 70
0
 10
1408.998255
 20
152.374065
 30
0.0
 10
1407.506130
 20
155.163615
 30
0.0
 10
1409.424180
 20
157.081665
 30
0.0
  0
SPLINE
  5
2be
100
AcDbEntity
  8
0
 62
7
100
AcDbSpline
 70
8
 71
3
 72
8
 73
4
 74
0
 40
0
 40
0
 40
0
 40
0
 40
1
 40
1
 40
1
 40
1
 10
1070.900655
 20
52.684365
 30
0.0
 10
1066.570455
 20
52.412190
 30
0.0
 10
1063.820880
 20
51.825090
 30
0.0
 10
1062.007155
 20
50.785590
 30
0.0
  0
SPLINE
  5
2bf
100
AcDbEntity
  8
0
 62
7
100
AcDbSpline
 70
8
 71
3
 72
8
 73
4
 74
0
 40
0
 40
0
 40
0
 40
0
 40
1
 40
1
 40
1
 40
1
 10
1062.007155
 20
50.785590
 30
0.0
 10
1048.971405
 20
43.312890
 30
0.0
 10
1038.883155
 20
47.609190
 30
0.0
 10
1045.852155
 20
57.665265
 30
0.0
  0
SPLINE
  5
2c0
100
AcDbEntity
  8
0
 62
7
100
AcDbSpline
 70
8
 71
3
 72
8
 73
4
 74
0
 40
0
 40
0
 40
0
 40
0
 40
1
 40
1
 40
1
 40
1
 10
1045.852155
 20
57.665265
 30
0.0
 10
1048.296180
 20
61.192065
 30
0.0
 10
1048.249755
 20
61.890840
 30
0.0
 10
1045.507530
 20
62.846790
 30
0.0
  0
SPLINE
  5
2c1
100
AcDbEntity
  8
0
 62
7
100
AcDbSpline
 70
8
 71
3
 72
8
 73
4
 74
0
 40
0
 40
0
 40
0
 40
0
 40
1
 40
1
 40
1
 40
1
 10
1045.507530
 20
62.846790
 30
0.0
 10
1041.999705
 20
64.069590
 30
0.0
 10
1044.499455
 20
70.062615
 30
0.0
 10
1050.503130
 20
74.823540
 30
0.0
  0
SPLINE
  5
2c2
100
AcDbEntity
  8
0
 62
7
100
AcDbSpline
 70
8
 71
3
 72
8
 73
4
 74
0
 40
0
 40
0
 40
0
 40
0
 40
1
 40
1
 40
1
 40
1
 10
1050.503130
 20
74.823540
 30
0.0
 10
1051.897755
 20
75.929415
 30
0.0
 10
1053.838905
 20
78.037215
 30
0.0
 10
1054.816755
 20
79.507590
 30
0.0
  0
SPLINE
  5
2c3
100
AcDbEntity
  8
0
 62
7
100
AcDbSpline
 70
8
 71
3
 72
8
 73
4
 74
0
 40
0
 40
0
 40
0
 40
0
 40
1
 40
1
 40
1
 40
1
 10
1054.816755
 20
79.507590
 30
0.0
 10
1055.794605
 20
80.977965
 30
0.0
 10
1057.559655
 20
83.171715
 30
0.0
 10
1058.739105
 20
84.382590
 30
0.0
  0
SPLINE
  5
2c4
100
AcDbEntity
  8
0
 62
7
100
AcDbSpline
 70
8
 71
3
 72
8
 73
4
 74
0
 40
0
 40
0
 40
0
 40
0
 40
1
 40
1
 40
1
 40
1
 10
1058.739105
 20
84.382590
 30
0.0
 10
1062.514155
 20
88.258290
 30
0.0
 10
1067.576355
 20
95.528340
 30
0.0
 10
1069.213605
 20
99.425340
 30
0.0
  0
SPLINE
  5
2c5
100
AcDbEntity
  8
0
 62
7
100
AcDbSpline
 70
8
 71
3
 72
8
 73
4
 74
0
 40
0
 40
0
 40
0
 40
0
 40
1
 40
1
 40
1
 40
1
 10
1069.213605
 20
99.425340
 30
0.0
 10
1070.008080
 20
101.316390
 30
0.0
 10
1070.870730
 20
101.935815
 30
0.0
 10
1073.703180
 20
102.648990
 30
0.0
  0
SPLINE
  5
2c6
100
AcDbEntity
  8
0
 62
7
100
AcDbSpline
 70
8
 71
3
 72
8
 73
4
 74
0
 40
0
 40
0
 40
0
 40
0
 40
1
 40
1
 40
1
 40
1
 10
1073.703180
 20
102.648990
 30
0.0
 10
1075.631505
 20
103.134615
 30
0.0
 10
1078.500480
 20
104.190615
 30
0.0
 10
1080.078630
 20
104.995665
 30
0.0
  0
SPLINE
  5
2c7
100
AcDbEntity
  8
0
 62
7
100
AcDbSpline
 70
8
 71
3
 72
8
 73
4
 74
0
 40
0
 40
0
 40
0
 40
0
 40
1
 40
1
 40
1
 40
1
 10
1080.078630
 20
104.995665
 30
0.0
 10
1081.684755
 20
105.815115
 30
0.0
 10
1084.456230
 20
106.459515
 30
0.0
 10
1086.374205
 20
106.459515
 30
0.0
  0
SPLINE
  5
2c8
100
AcDbEntity
  8
0
 62
7
100
AcDbSpline
 70
8
 71
3
 72
8
 73
4
 74
0
 40
0
 40
0
 40
0
 40
0
 40
1
 40
1
 40
1
 40
1
 10
1086.374205
 20
106.459515
 30
0.0
 10
1088.714580
 20
106.459515
 30
0.0
 10
1091.258880
 20
107.195715
 30
0.0
 10
1094.402205
 20
108.782415
 30
0.0
  0
SPLINE
  5
2c9
100
AcDbEntity
  8
0
 62
7
100
AcDbSpline
 70
8
 71
3
 72
8
 73
4
 74
0
 40
0
 40
0
 40
0
 40
0
 40
1
 40
1
 40
1
 40
1
 10
1094.402205
 20
108.782415
 30
0.0
 10
1099.918830
 20
111.567165
 30
0.0
 10
1105.016205
 20
113.190315
 30
0.0
 10
1108.280955
 20
113.201415
 30
0.0
  0
SPLINE
  5
2ca
100
AcDbEntity
  8
0
 62
7
100
AcDbSpline
 70
8
 71
3
 72
8
 73
4
 74
0
 40
0
 40
0
 40
0
 40
0
 40
1
 40
1
 40
1
 40
1
 10
1108.280955
 20
113.201415
 30
0.0
 10
1109.599755
 20
113.208915
 30
0.0
 10
1112.265630
 20
114.053265
 30
0.0
 10
1114.205130
 20
115.084515
 30
0.0
  0
SPLINE
  5
2cb
100
AcDbEntity
  8
0
 62
7
100
AcDbSpline
 70
8
 71
3
 72
8
 73
4
 74
0
 40
0
 40
0
 40
0
 40
0
 40
1
 40
1
 40
1
 40
1
 10
1114.205130
 20
115.084515
 30
0.0
 10
1116.144630
 20
116.115765
 30
0.0
 10
1118.817030
 20
116.959515
 30
0.0
 10
1120.143705
 20
116.959515
 30
0.0
  0
SPLINE
  5
2cc
100
AcDbEntity
  8
0
 62
7
100
AcDbSpline
 70
8
 71
3
 72
8
 73
4
 74
0
 40
0
 40
0
 40
0
 40
0
 40
1
 40
1
 40
1
 40
1
 10
1120.143705
 20
116.959515
 30
0.0
 10
1123.606605
 20
116.959515
 30
0.0
 10
1133.258205
 20
127.169265
 30
0.0
 10
1133.258205
 20
130.832265
 30
0.0
  0
SPLINE
  5
2cd
100
AcDbEntity
  8
0
 62
7
100
AcDbSpline
 70
8
 71
3
 72
8
 73
4
 74
0
 40
0
 40
0
 40
0
 40
0
 40
1
 40
1
 40
1
 40
1
 10
1133.258205
 20
130.832265
 30
0.0
 10
1133.258205
 20
131.132715
 30
0.0
 10
1134.125880
 20
132.437340
 30
0.0
 10
1135.186455
 20
133.731465
 30
0.0
  0
SPLINE
  5
2ce
100
AcDbEntity
  8
0
 62
7
100
AcDbSpline
 70
8
 71
3
 72
8
 73
4
 74
0
 40
0
 40
0
 40
0
 40
0
 40
1
 40
1
 40
1
 40
1
 10
1135.186455
 20
133.731465
 30
0.0
 10
1137.700230
 20
136.798965
 30
0.0
 10
1140.097755
 20
140.366340
 30
0.0
 10
1143.068205
 20
145.459215
 30
0.0
  0
SPLINE
  5
2cf
100
AcDbEntity
  8
0
 62
7
100
AcDbSpline
 70
8
 71
3
 72
8
 73
4
 74
0
 40
0
 40
0
 40
0
 40
0
 40
1
 40
1
 40
1
 40
1
 10
1143.068205
 20
145.459215
 30
0.0
 10
1144.391505
 20
147.727965
 30
0.0
 10
1146.730380
 20
150.934215
 30
0.0
 10
1148.265705
 20
152.584215
 30
0.0
  0
SPLINE
  5
2d0
100
AcDbEntity
  8
0
 62
7
100
AcDbSpline
 70
8
 71
3
 72
8
 73
4
 74
0
 40
0
 40
0
 40
0
 40
0
 40
1
 40
1
 40
1
 40
1
 10
1148.265705
 20
152.584215
 30
0.0
 10
1151.655405
 20
156.227115
 30
0.0
 10
1155.008055
 20
161.191215
 30
0.0
 10
1155.008055
 20
162.568215
 30
0.0
  0
SPLINE
  5
2d1
100
AcDbEntity
  8
0
 62
7
100
AcDbSpline
 70
8
 71
3
 72
8
 73
4
 74
0
 40
0
 40
0
 40
0
 40
0
 40
1
 40
1
 40
1
 40
1
 10
1155.008055
 20
162.568215
 30
0.0
 10
1155.008055
 20
163.124040
 30
0.0
 10
1156.457955
 20
166.505040
 30
0.0
 10
1158.229980
 20
170.081715
 30
0.0
  0
SPLINE
  5
2d2
100
AcDbEntity
  8
0
 62
7
100
AcDbSpline
 70
8
 71
3
 72
8
 73
4
 74
0
 40
0
 40
0
 40
0
 40
0
 40
1
 40
1
 40
1
 40
1
 10
1158.229980
 20
170.081715
 30
0.0
 10
1160.002080
 20
173.658315
 30
0.0
 10
1162.249755
 20
178.778715
 30
0.0
 10
1163.224905
 20
181.459215
 30
0.0
  0
SPLINE
  5
2d3
100
AcDbEntity
  8
0
 62
7
100
AcDbSpline
 70
8
 71
3
 72
8
 73
4
 74
0
 40
0
 40
0
 40
0
 40
0
 40
1
 40
1
 40
1
 40
1
 10
1163.224905
 20
181.459215
 30
0.0
 10
1164.200055
 20
184.140465
 30
0.0
 10
1165.474380
 20
186.893790
 30
0.0
 10
1166.056755
 20
187.577715
 30
0.0
  0
SPLINE
  5
2d4
100
AcDbEntity
  8
0
 62
7
100
AcDbSpline
 70
8
 71
3
 72
8
 73
4
 74
0
 40
0
 40
0
 40
0
 40
0
 40
1
 40
1
 40
1
 40
1
 10
1166.056755
 20
187.577715
 30
0.0
 10
1168.221405
 20
190.119765
 30
0.0
 10
1172.822805
 20
202.349715
 30
0.0
 10
1175.271255
 20
212.068965
 30
0.0
  0
SPLINE
  5
2d5
100
AcDbEntity
  8
0
 62
7
100
AcDbSpline
 70
8
 71
3
 72
8
 73
4
 74
0
 40
0
 40
0
 40
0
 40
0
 40
1
 40
1
 40
1
 40
1
 10
1175.271255
 20
212.068965
 30
0.0
 10
1176.031230
 20
215.085765
 30
0.0
 10
1176.992280
 20
217.962765
 30
0.0
 10
1177.406955
 20
218.462340
 30
0.0
  0
SPLINE
  5
2d6
100
AcDbEntity
  8
0
 62
7
100
AcDbSpline
 70
8
 71
3
 72
8
 73
4
 74
0
 40
0
 40
0
 40
0
 40
0
 40
1
 40
1
 40
1
 40
1
 10
1177.406955
 20
218.462340
 30
0.0
 10
1178.572080
 20
219.866265
 30
0.0
 10
1180.750005
 20
226.534590
 30
0.0
 10
1180.998330
 20
229.458840
 30
0.0
  0
SPLINE
  5
2d7
100
AcDbEntity
  8
0
 62
7
100
AcDbSpline
 70
8
 71
3
 72
8
 73
4
 74
0
 40
0
 40
0
 40
0
 40
0
 40
1
 40
1
 40
1
 40
1
 10
1180.998330
 20
229.458840
 30
0.0
 10
1181.120955
 20
230.902590
 30
0.0
 10
1181.713005
 20
236.808840
 30
0.0
 10
1182.313905
 20
242.583840
 30
0.0
  0
SPLINE
  5
2d8
100
AcDbEntity
  8
0
 62
7
100
AcDbSpline
 70
8
 71
3
 72
8
 73
4
 74
0
 40
0
 40
0
 40
0
 40
0
 40
1
 40
1
 40
1
 40
1
 10
1182.313905
 20
242.583840
 30
0.0
 10
1184.978655
 20
268.190340
 30
0.0
 10
1183.676055
 20
274.697340
 30
0.0
 10
1173.455655
 20
286.833840
 30
0.0
  0
SPLINE
  5
2d9
100
AcDbEntity
  8
0
 62
7
100
AcDbSpline
 70
8
 71
3
 72
8
 73
4
 74
0
 40
0
 40
0
 40
0
 40
0
 40
1
 40
1
 40
1
 40
1
 10
1173.455655
 20
286.833840
 30
0.0
 10
1172.413530
 20
288.071340
 30
0.0
 10
1169.777130
 20
291.418065
 30
0.0
 10
1167.596955
 20
294.270990
 30
0.0
  0
SPLINE
  5
2da
100
AcDbEntity
  8
0
 62
7
100
AcDbSpline
 70
8
 71
3
 72
8
 73
4
 74
0
 40
0
 40
0
 40
0
 40
0
 40
1
 40
1
 40
1
 40
1
 10
1167.596955
 20
294.270990
 30
0.0
 10
1165.416780
 20
297.123915
 30
0.0
 10
1161.945480
 20
301.375065
 30
0.0
 10
1159.883205
 20
303.717990
 30
0.0
  0
SPLINE
  5
2db
100
AcDbEntity
  8
0
 62
7
100
AcDbSpline
 70
8
 71
3
 72
8
 73
4
 74
0
 40
0
 40
0
 40
0
 40
0
 40
1
 40
1
 40
1
 40
1
 10
1159.883205
 20
303.717990
 30
0.0
 10
1154.387880
 20
309.960240
 30
0.0
 10
1151.691705
 20
313.720740
 30
0.0
 10
1146.799455
 20
321.968490
 30
0.0
  0
SPLINE
  5
2dc
100
AcDbEntity
  8
0
 62
7
100
AcDbSpline
 70
8
 71
3
 72
8
 73
4
 74
0
 40
0
 40
0
 40
0
 40
0
 40
1
 40
1
 40
1
 40
1
 10
1146.799455
 20
321.968490
 30
0.0
 10
1144.390230
 20
326.029965
 30
0.0
 10
1140.469530
 20
331.518990
 30
0.0
 10
1138.086705
 20
334.167240
 30
0.0
  0
SPLINE
  5
2dd
100
AcDbEntity
  8
0
 62
7
100
AcDbSpline
 70
8
 71
3
 72
8
 73
4
 74
0
 40
0
 40
0
 40
0
 40
0
 40
1
 40
1
 40
1
 40
1
 10
1138.086705
 20
334.167240
 30
0.0
 10
1135.704030
 20
336.815040
 30
0.0
 10
1131.533430
 20
342.960240
 30
0.0
 10
1128.818955
 20
347.823990
 30
0.0
  0
SPLINE
  5
2de
100
AcDbEntity
  8
0
 62
7
100
AcDbSpline
 70
8
 71
3
 72
8
 73
4
 74
0
 40
0
 40
0
 40
0
 40
0
 40
1
 40
1
 40
1
 40
1
 10
1128.818955
 20
347.823990
 30
0.0
 10
1126.104255
 20
352.687515
 30
0.0
 10
1122.786330
 20
357.990990
 30
0.0
 10
1121.445705
 20
359.608740
 30
0.0
  0
SPLINE
  5
2df
100
AcDbEntity
  8
0
 62
7
100
AcDbSpline
 70
8
 71
3
 72
8
 73
4
 74
0
 40
0
 40
0
 40
0
 40
0
 40
1
 40
1
 40
1
 40
1
 10
1121.445705
 20
359.608740
 30
0.0
 10
1120.105080
 20
361.226865
 30
0.0
 10
1119.006405
 20
362.895765
 30
0.0
 10
1119.004230
 20
363.317340
 30
0.0
  0
SPLINE
  5
2e0
100
AcDbEntity
  8
0
 62
7
100
AcDbSpline
 70
8
 71
3
 72
8
 73
4
 74
0
 40
0
 40
0
 40
0
 40
0
 40
1
 40
1
 40
1
 40
1
 10
1119.004230
 20
363.317340
 30
0.0
 10
1119.004230
 20
363.738990
 30
0.0
 10
1115.880180
 20
367.344465
 30
0.0
 10
1112.066730
 20
371.329590
 30
0.0
  0
SPLINE
  5
2e1
100
AcDbEntity
  8
0
 62
7
100
AcDbSpline
 70
8
 71
3
 72
8
 73
4
 74
0
 40
0
 40
0
 40
0
 40
0
 40
1
 40
1
 40
1
 40
1
 10
1112.066730
 20
371.329590
 30
0.0
 10
1108.253280
 20
375.314565
 30
0.0
 10
1103.716230
 20
380.545590
 30
0.0
 10
1101.983730
 20
382.954590
 30
0.0
  0
SPLINE
  5
2e2
100
AcDbEntity
  8
0
 62
7
100
AcDbSpline
 70
8
 71
3
 72
8
 73
4
 74
0
 40
0
 40
0
 40
0
 40
0
 40
1
 40
1
 40
1
 40
1
 10
1101.983730
 20
382.954590
 30
0.0
 10
1100.251380
 20
385.363365
 30
0.0
 10
1097.382630
 20
389.237265
 30
0.0
 10
1095.608730
 20
391.563090
 30
0.0
  0
SPLINE
  5
2e3
100
AcDbEntity
  8
0
 62
7
100
AcDbSpline
 70
8
 71
3
 72
8
 73
4
 74
0
 40
0
 40
0
 40
0
 40
0
 40
1
 40
1
 40
1
 40
1
 10
1095.608730
 20
391.563090
 30
0.0
 10
1093.834905
 20
393.889140
 30
0.0
 10
1090.243155
 20
398.698515
 30
0.0
 10
1087.627230
 20
402.250590
 30
0.0
  0
SPLINE
  5
2e4
100
AcDbEntity
  8
0
 62
7
100
AcDbSpline
 70
8
 71
3
 72
8
 73
4
 74
0
 40
0
 40
0
 40
0
 40
0
 40
1
 40
1
 40
1
 40
1
 10
1087.627230
 20
402.250590
 30
0.0
 10
1085.011230
 20
405.802740
 30
0.0
 10
1082.608605
 20
408.708990
 30
0.0
 10
1082.288130
 20
408.708990
 30
0.0
  0
SPLINE
  5
2e5
100
AcDbEntity
  8
0
 62
7
100
AcDbSpline
 70
8
 71
3
 72
8
 73
4
 74
0
 40
0
 40
0
 40
0
 40
0
 40
1
 40
1
 40
1
 40
1
 10
1082.288130
 20
408.708990
 30
0.0
 10
1081.967580
 20
408.708990
 30
0.0
 10
1079.889255
 20
410.952015
 30
0.0
 10
1077.669480
 20
413.693565
 30
0.0
  0
SPLINE
  5
2e6
100
AcDbEntity
  8
0
 62
7
100
AcDbSpline
 70
8
 71
3
 72
8
 73
4
 74
0
 40
0
 40
0
 40
0
 40
0
 40
1
 40
1
 40
1
 40
1
 10
1077.669480
 20
413.693565
 30
0.0
 10
1075.449780
 20
416.435115
 30
0.0
 10
1072.261005
 20
420.231990
 30
0.0
 10
1070.583330
 20
422.131065
 30
0.0
  0
SPLINE
  5
2e7
100
AcDbEntity
  8
0
 62
7
100
AcDbSpline
 70
8
 71
3
 72
8
 73
4
 74
0
 40
0
 40
0
 40
0
 40
0
 40
1
 40
1
 40
1
 40
1
 10
1070.583330
 20
422.131065
 30
0.0
 10
1068.905655
 20
424.030140
 30
0.0
 10
1066.643730
 20
427.440240
 30
0.0
 10
1065.556755
 20
429.709065
 30
0.0
  0
SPLINE
  5
2e8
100
AcDbEntity
  8
0
 62
7
100
AcDbSpline
 70
8
 71
3
 72
8
 73
4
 74
0
 40
0
 40
0
 40
0
 40
0
 40
1
 40
1
 40
1
 40
1
 10
1065.556755
 20
429.709065
 30
0.0
 10
1064.469855
 20
431.977815
 30
0.0
 10
1062.298755
 20
435.218040
 30
0.0
 10
1060.732080
 20
436.909515
 30
0.0
  0
SPLINE
  5
2e9
100
AcDbEntity
  8
0
 62
7
100
AcDbSpline
 70
8
 71
3
 72
8
 73
4
 74
0
 40
0
 40
0
 40
0
 40
0
 40
1
 40
1
 40
1
 40
1
 10
1060.732080
 20
436.909515
 30
0.0
 10
1055.197980
 20
442.884690
 30
0.0
 10
1047.373830
 20
453.009765
 30
0.0
 10
1046.605830
 20
455.190015
 30
0.0
  0
SPLINE
  5
2ea
100
AcDbEntity
  8
0
 62
7
100
AcDbSpline
 70
8
 71
3
 72
8
 73
4
 74
0
 40
0
 40
0
 40
0
 40
0
 40
1
 40
1
 40
1
 40
1
 10
1046.605830
 20
455.190015
 30
0.0
 10
1046.177955
 20
456.404490
 30
0.0
 10
1045.133055
 20
458.171340
 30
0.0
 10
1044.283830
 20
459.116340
 30
0.0
  0
SPLINE
  5
2eb
100
AcDbEntity
  8
0
 62
7
100
AcDbSpline
 70
8
 71
3
 72
8
 73
4
 74
0
 40
0
 40
0
 40
0
 40
0
 40
1
 40
1
 40
1
 40
1
 10
1044.283830
 20
459.116340
 30
0.0
 10
1040.893230
 20
462.889290
 30
0.0
 10
1032.601080
 20
474.944340
 30
0.0
 10
1029.688830
 20
480.334590
 30
0.0
  0
SPLINE
  5
2ec
100
AcDbEntity
  8
0
 62
7
100
AcDbSpline
 70
8
 71
3
 72
8
 73
4
 74
0
 40
0
 40
0
 40
0
 40
0
 40
1
 40
1
 40
1
 40
1
 10
1029.688830
 20
480.334590
 30
0.0
 10
1028.797305
 20
481.984590
 30
0.0
 10
1026.657030
 20
484.853940
 30
0.0
 10
1024.932555
 20
486.710865
 30
0.0
  0
SPLINE
  5
2ed
100
AcDbEntity
  8
0
 62
7
100
AcDbSpline
 70
8
 71
3
 72
8
 73
4
 74
0
 40
0
 40
0
 40
0
 40
0
 40
1
 40
1
 40
1
 40
1
 10
1024.932555
 20
486.710865
 30
0.0
 10
1023.208155
 20
488.567865
 30
0.0
 10
1020.326955
 20
492.561990
 30
0.0
 10
1018.530030
 20
495.587115
 30
0.0
  0
SPLINE
  5
2ee
100
AcDbEntity
  8
0
 62
7
100
AcDbSpline
 70
8
 71
3
 72
8
 73
4
 74
0
 40
0
 40
0
 40
0
 40
0
 40
1
 40
1
 40
1
 40
1
 10
1018.530030
 20
495.587115
 30
0.0
 10
1016.733030
 20
498.611865
 30
0.0
 10
1014.433980
 20
501.629715
 30
0.0
 10
1013.420955
 20
502.293465
 30
0.0
  0
SPLINE
  5
2ef
100
AcDbEntity
  8
0
 62
7
100
AcDbSpline
 70
8
 71
3
 72
8
 73
4
 74
0
 40
0
 40
0
 40
0
 40
0
 40
1
 40
1
 40
1
 40
1
 10
1013.420955
 20
502.293465
 30
0.0
 10
1011.180780
 20
503.761290
 30
0.0
 10
1000.963455
 20
516.760965
 30
0.0
 10
995.091705
 20
525.613965
 30
0.0
  0
SPLINE
  5
2f0
100
AcDbEntity
  8
0
 62
7
100
AcDbSpline
 70
8
 71
3
 72
8
 73
4
 74
0
 40
0
 40
0
 40
0
 40
0
 40
1
 40
1
 40
1
 40
1
 10
995.091705
 20
525.613965
 30
0.0
 10
992.731155
 20
529.173165
 30
0.0
 10
989.777055
 20
533.469465
 30
0.0
 10
988.527180
 20
535.161465
 30
0.0
  0
SPLINE
  5
2f1
100
AcDbEntity
  8
0
 62
7
100
AcDbSpline
 70
8
 71
3
 72
8
 73
4
 74
0
 40
0
 40
0
 40
0
 40
0
 40
1
 40
1
 40
1
 40
1
 10
988.527180
 20
535.161465
 30
0.0
 10
987.277230
 20
536.853315
 30
0.0
 10
985.614480
 20
540.059640
 30
0.0
 10
984.832080
 20
542.286540
 30
0.0
  0
SPLINE
  5
2f2
100
AcDbEntity
  8
0
 62
7
100
AcDbSpline
 70
8
 71
3
 72
8
 73
4
 74
0
 40
0
 40
0
 40
0
 40
0
 40
1
 40
1
 40
1
 40
1
 10
984.832080
 20
542.286540
 30
0.0
 10
984.049680
 20
544.513440
 30
0.0
 10
982.332105
 20
548.866740
 30
0.0
 10
981.015180
 20
551.960790
 30
0.0
  0
SPLINE
  5
2f3
100
AcDbEntity
  8
0
 62
7
100
AcDbSpline
 70
8
 71
3
 72
8
 73
4
 74
0
 40
0
 40
0
 40
0
 40
0
 40
1
 40
1
 40
1
 40
1
 10
981.015180
 20
551.960790
 30
0.0
 10
979.698330
 20
555.054540
 30
0.0
 10
978.373455
 20
558.767040
 30
0.0
 10
978.071130
 20
560.210790
 30
0.0
  0
SPLINE
  5
2f4
100
AcDbEntity
  8
0
 62
7
100
AcDbSpline
 70
8
 71
3
 72
8
 73
4
 74
0
 40
0
 40
0
 40
0
 40
0
 40
1
 40
1
 40
1
 40
1
 10
978.071130
 20
560.210790
 30
0.0
 10
977.768730
 20
561.654540
 30
0.0
 10
977.091030
 20
563.635965
 30
0.0
 10
976.565130
 20
564.613965
 30
0.0
  0
SPLINE
  5
2f5
100
AcDbEntity
  8
0
 62
7
100
AcDbSpline
 70
8
 71
3
 72
8
 73
4
 74
0
 40
0
 40
0
 40
0
 40
0
 40
1
 40
1
 40
1
 40
1
 10
976.565130
 20
564.613965
 30
0.0
 10
976.039230
 20
565.591965
 30
0.0
 10
975.168855
 20
568.966965
 30
0.0
 10
974.630955
 20
572.113965
 30
0.0
  0
SPLINE
  5
2f6
100
AcDbEntity
  8
0
 62
7
100
AcDbSpline
 70
8
 71
3
 72
8
 73
4
 74
0
 40
0
 40
0
 40
0
 40
0
 40
1
 40
1
 40
1
 40
1
 10
974.630955
 20
572.113965
 30
0.0
 10
974.093055
 20
575.260965
 30
0.0
 10
973.111380
 20
579.803715
 30
0.0
 10
972.449430
 20
582.209715
 30
0.0
  0
SPLINE
  5
2f7
100
AcDbEntity
  8
0
 62
7
100
AcDbSpline
 70
8
 71
3
 72
8
 73
4
 74
0
 40
0
 40
0
 40
0
 40
0
 40
1
 40
1
 40
1
 40
1
 10
972.449430
 20
582.209715
 30
0.0
 10
971.787480
 20
584.615265
 30
0.0
 10
971.442105
 20
586.900965
 30
0.0
 10
971.681955
 20
587.289090
 30
0.0
  0
SPLINE
  5
2f8
100
AcDbEntity
  8
0
 62
7
100
AcDbSpline
 70
8
 71
3
 72
8
 73
4
 74
0
 40
0
 40
0
 40
0
 40
0
 40
1
 40
1
 40
1
 40
1
 10
971.681955
 20
587.289090
 30
0.0
 10
971.921805
 20
587.677185
 30
0.0
 10
971.567655
 20
589.651890
 30
0.0
 10
970.894905
 20
591.677265
 30
0.0
  0
SPLINE
  5
2f9
100
AcDbEntity
  8
0
 62
7
100
AcDbSpline
 70
8
 71
3
 72
8
 73
4
 74
0
 40
0
 40
0
 40
0
 40
0
 40
1
 40
1
 40
1
 40
1
 10
970.894905
 20
591.677265
 30
0.0
 10
970.120380
 20
594.009165
 30
0.0
 10
969.852555
 20
596.323215
 30
0.0
 10
970.164555
 20
597.986565
 30
0.0
  0
SPLINE
  5
2fa
100
AcDbEntity
  8
0
 62
7
100
AcDbSpline
 70
8
 71
3
 72
8
 73
4
 74
0
 40
0
 40
0
 40
0
 40
0
 40
1
 40
1
 40
1
 40
1
 10
970.164555
 20
597.986565
 30
0.0
 10
970.435605
 20
599.431215
 30
0.0
 10
970.271430
 20
601.782540
 30
0.0
 10
969.799755
 20
603.211740
 30
0.0
  0
SPLINE
  5
2fb
100
AcDbEntity
  8
0
 62
7
100
AcDbSpline
 70
8
 71
3
 72
8
 73
4
 74
0
 40
0
 40
0
 40
0
 40
0
 40
1
 40
1
 40
1
 40
1
 10
969.799755
 20
603.211740
 30
0.0
 10
969.328080
 20
604.640865
 30
0.0
 10
968.664030
 20
607.447290
 30
0.0
 10
968.324055
 20
609.448140
 30
0.0
  0
SPLINE
  5
2fc
100
AcDbEntity
  8
0
 62
7
100
AcDbSpline
 70
8
 71
3
 72
8
 73
4
 74
0
 40
0
 40
0
 40
0
 40
0
 40
1
 40
1
 40
1
 40
1
 10
968.324055
 20
609.448140
 30
0.0
 10
967.311180
 20
615.408990
 30
0.0
 10
964.468980
 20
625.525890
 30
0.0
 10
962.455830
 20
630.336390
 30
0.0
  0
SPLINE
  5
2fd
100
AcDbEntity
  8
0
 62
7
100
AcDbSpline
 70
8
 71
3
 72
8
 73
4
 74
0
 40
0
 40
0
 40
0
 40
0
 40
1
 40
1
 40
1
 40
1
 10
962.455830
 20
630.336390
 30
0.0
 10
958.887630
 20
638.862390
 30
0.0
 10
959.669655
 20
654.230640
 30
0.0
 10
964.222305
 20
665.049390
 30
0.0
  0
SPLINE
  5
2fe
100
AcDbEntity
  8
0
 62
7
100
AcDbSpline
 70
8
 71
3
 72
8
 73
4
 74
0
 40
0
 40
0
 40
0
 40
0
 40
1
 40
1
 40
1
 40
1
 10
964.222305
 20
665.049390
 30
0.0
 10
964.792305
 20
666.404040
 30
0.0
 10
965.266155
 20
668.766540
 30
0.0
 10
965.275230
 20
670.299390
 30
0.0
  0
SPLINE
  5
2ff
100
AcDbEntity
  8
0
 62
7
100
AcDbSpline
 70
8
 71
3
 72
8
 73
4
 74
0
 40
0
 40
0
 40
0
 40
0
 40
1
 40
1
 40
1
 40
1
 10
965.275230
 20
670.299390
 30
0.0
 10
965.284230
 20
671.832240
 30
0.0
 10
965.960580
 20
674.560665
 30
0.0
 10
966.778230
 20
676.362540
 30
0.0
  0
SPLINE
  5
300
100
AcDbEntity
  8
0
 62
7
100
AcDbSpline
 70
8
 71
3
 72
8
 73
4
 74
0
 40
0
 40
0
 40
0
 40
0
 40
1
 40
1
 40
1
 40
1
 10
966.778230
 20
676.362540
 30
0.0
 10
970.356405
 20
684.248040
 30
0.0
 10
969.417405
 20
693.665040
 30
0.0
 10
964.484580
 20
699.364290
 30
0.0
  0
SPLINE
  5
301
100
AcDbEntity
  8
0
 62
7
100
AcDbSpline
 70
8
 71
3
 72
8
 73
4
 74
0
 40
0
 40
0
 40
0
 40
0
 40
1
 40
1
 40
1
 40
1
 10
964.484580
 20
699.364290
 30
0.0
 10
962.847855
 20
701.255340
 30
0.0
 10
961.508730
 20
703.118640
 30
0.0
 10
961.508730
 20
703.504890
 30
0.0
  0
SPLINE
  5
302
100
AcDbEntity
  8
0
 62
7
100
AcDbSpline
 70
8
 71
3
 72
8
 73
4
 74
0
 40
0
 40
0
 40
0
 40
0
 40
1
 40
1
 40
1
 40
1
 10
961.508730
 20
703.504890
 30
0.0
 10
961.508730
 20
703.891110
 30
0.0
 10
960.280755
 20
705.566340
 30
0.0
 10
958.779855
 20
707.227665
 30
0.0
  0
SPLINE
  5
303
100
AcDbEntity
  8
0
 62
7
100
AcDbSpline
 70
8
 71
3
 72
8
 73
4
 74
0
 40
0
 40
0
 40
0
 40
0
 40
1
 40
1
 40
1
 40
1
 10
958.779855
 20
707.227665
 30
0.0
 10
957.278955
 20
708.888990
 30
0.0
 10
955.506630
 20
711.336840
 30
0.0
 10
954.841455
 20
712.667340
 30
0.0
  0
SPLINE
  5
304
100
AcDbEntity
  8
0
 62
7
100
AcDbSpline
 70
8
 71
3
 72
8
 73
4
 74
0
 40
0
 40
0
 40
0
 40
0
 40
1
 40
1
 40
1
 40
1
 10
954.841455
 20
712.667340
 30
0.0
 10
952.765230
 20
716.820015
 30
0.0
 10
947.799180
 20
716.066490
 30
0.0
 10
933.609705
 20
709.445640
 30
0.0
  0
SPLINE
  5
305
100
AcDbEntity
  8
0
 62
7
100
AcDbSpline
 70
8
 71
3
 72
8
 73
4
 74
0
 40
0
 40
0
 40
0
 40
0
 40
1
 40
1
 40
1
 40
1
 10
933.609705
 20
709.445640
 30
0.0
 10
914.789955
 20
700.664640
 30
0.0
 10
904.952955
 20
695.834640
 30
0.0
 10
903.743955
 20
694.783140
 30
0.0
  0
SPLINE
  5
306
100
AcDbEntity
  8
0
 62
7
100
AcDbSpline
 70
8
 71
3
 72
8
 73
4
 74
0
 40
0
 40
0
 40
0
 40
0
 40
1
 40
1
 40
1
 40
1
 10
903.743955
 20
694.783140
 30
0.0
 10
903.116805
 20
694.237485
 30
0.0
 10
899.378430
 20
692.153790
 30
0.0
 10
895.436205
 20
690.152715
 30
0.0
  0
SPLINE
  5
307
100
AcDbEntity
  8
0
 62
7
100
AcDbSpline
 70
8
 71
3
 72
8
 73
4
 74
0
 40
0
 40
0
 40
0
 40
0
 40
1
 40
1
 40
1
 40
1
 10
895.436205
 20
690.152715
 30
0.0
 10
891.494130
 20
688.151640
 30
0.0
 10
886.944705
 20
685.440240
 30
0.0
 10
885.326205
 20
684.127440
 30
0.0
  0
SPLINE
  5
308
100
AcDbEntity
  8
0
 62
7
100
AcDbSpline
 70
8
 71
3
 72
8
 73
4
 74
0
 40
0
 40
0
 40
0
 40
0
 40
1
 40
1
 40
1
 40
1
 10
885.326205
 20
684.127440
 30
0.0
 10
883.707855
 20
682.814640
 30
0.0
 10
880.865055
 20
680.501565
 30
0.0
 10
879.008805
 20
678.987390
 30
0.0
  0
SPLINE
  5
309
100
AcDbEntity
  8
0
 62
7
100
AcDbSpline
 70
8
 71
3
 72
8
 73
4
 74
0
 40
0
 40
0
 40
0
 40
0
 40
1
 40
1
 40
1
 40
1
 10
879.008805
 20
678.987390
 30
0.0
 10
877.152555
 20
677.473215
 30
0.0
 10
874.214355
 20
675.601290
 30
0.0
 10
872.479455
 20
674.827515
 30
0.0
  0
SPLINE
  5
30a
100
AcDbEntity
  8
0
 62
7
100
AcDbSpline
 70
8
 71
3
 72
8
 73
4
 74
0
 40
0
 40
0
 40
0
 40
0
 40
1
 40
1
 40
1
 40
1
 10
872.479455
 20
674.827515
 30
0.0
 10
870.744555
 20
674.053815
 30
0.0
 10
868.888305
 20
672.990240
 30
0.0
 10
868.354455
 20
672.464040
 30
0.0
  0
SPLINE
  5
30b
100
AcDbEntity
  8
0
 62
7
100
AcDbSpline
 70
8
 71
3
 72
8
 73
4
 74
0
 40
0
 40
0
 40
0
 40
0
 40
1
 40
1
 40
1
 40
1
 10
868.354455
 20
672.464040
 30
0.0
 10
867.402105
 20
671.525415
 30
0.0
 10
861.602355
 20
667.446990
 30
0.0
 10
849.095955
 20
658.921290
 30
0.0
  0
SPLINE
  5
30c
100
AcDbEntity
  8
0
 62
7
100
AcDbSpline
 70
8
 71
3
 72
8
 73
4
 74
0
 40
0
 40
0
 40
0
 40
0
 40
1
 40
1
 40
1
 40
1
 10
849.095955
 20
658.921290
 30
0.0
 10
845.637630
 20
656.563815
 30
0.0
 10
841.084455
 20
653.761440
 30
0.0
 10
838.976955
 20
652.693740
 30
0.0
  0
SPLINE
  5
30d
100
AcDbEntity
  8
0
 62
7
100
AcDbSpline
 70
8
 71
3
 72
8
 73
4
 74
0
 40
0
 40
0
 40
0
 40
0
 40
1
 40
1
 40
1
 40
1
 10
838.976955
 20
652.693740
 30
0.0
 10
836.869980
 20
651.626040
 30
0.0
 10
833.653230
 20
649.280790
 30
0.0
 10
831.828630
 20
647.481915
 30
0.0
  0
SPLINE
  5
30e
100
AcDbEntity
  8
0
 62
7
100
AcDbSpline
 70
8
 71
3
 72
8
 73
4
 74
0
 40
0
 40
0
 40
0
 40
0
 40
1
 40
1
 40
1
 40
1
 10
831.828630
 20
647.481915
 30
0.0
 10
830.004030
 20
645.683115
 30
0.0
 10
828.101205
 20
644.211315
 30
0.0
 10
827.600055
 20
644.211315
 30
0.0
  0
SPLINE
  5
30f
100
AcDbEntity
  8
0
 62
7
100
AcDbSpline
 70
8
 71
3
 72
8
 73
4
 74
0
 40
0
 40
0
 40
0
 40
0
 40
1
 40
1
 40
1
 40
1
 10
827.600055
 20
644.211315
 30
0.0
 10
827.098905
 20
644.211315
 30
0.0
 10
824.732955
 20
642.692565
 30
0.0
 10
822.342480
 20
640.836315
 30
0.0
  0
SPLINE
  5
310
100
AcDbEntity
  8
0
 62
7
100
AcDbSpline
 70
8
 71
3
 72
8
 73
4
 74
0
 40
0
 40
0
 40
0
 40
0
 40
1
 40
1
 40
1
 40
1
 10
822.342480
 20
640.836315
 30
0.0
 10
819.952005
 20
638.980065
 30
0.0
 10
817.668255
 20
637.461315
 30
0.0
 10
817.267530
 20
637.461315
 30
0.0
  0
SPLINE
  5
311
100
AcDbEntity
  8
0
 62
7
100
AcDbSpline
 70
8
 71
3
 72
8
 73
4
 74
0
 40
0
 40
0
 40
0
 40
0
 40
1
 40
1
 40
1
 40
1
 10
817.267530
 20
637.461315
 30
0.0
 10
816.866805
 20
637.461315
 30
0.0
 10
814.948755
 20
635.973915
 30
0.0
 10
813.005130
 20
634.155915
 30
0.0
  0
SPLINE
  5
312
100
AcDbEntity
  8
0
 62
7
100
AcDbSpline
 70
8
 71
3
 72
8
 73
4
 74
0
 40
0
 40
0
 40
0
 40
0
 40
1
 40
1
 40
1
 40
1
 10
813.005130
 20
634.155915
 30
0.0
 10
811.061580
 20
632.337915
 30
0.0
 10
807.989130
 20
630.107040
 30
0.0
 10
806.177355
 20
629.198415
 30
0.0
  0
SPLINE
  5
313
100
AcDbEntity
  8
0
 62
7
100
AcDbSpline
 70
8
 71
3
 72
8
 73
4
 74
0
 40
0
 40
0
 40
0
 40
0
 40
1
 40
1
 40
1
 40
1
 10
806.177355
 20
629.198415
 30
0.0
 10
804.365655
 20
628.289715
 30
0.0
 10
802.039605
 20
626.757615
 30
0.0
 10
801.008355
 20
625.793640
 30
0.0
  0
SPLINE
  5
314
100
AcDbEntity
  8
0
 62
7
100
AcDbSpline
 70
8
 71
3
 72
8
 73
4
 74
0
 40
0
 40
0
 40
0
 40
0
 40
1
 40
1
 40
1
 40
1
 10
801.008355
 20
625.793640
 30
0.0
 10
799.977105
 20
624.829665
 30
0.0
 10
797.879355
 20
623.517090
 30
0.0
 10
796.346730
 20
622.876890
 30
0.0
  0
SPLINE
  5
315
100
AcDbEntity
  8
0
 62
7
100
AcDbSpline
 70
8
 71
3
 72
8
 73
4
 74
0
 40
0
 40
0
 40
0
 40
0
 40
1
 40
1
 40
1
 40
1
 10
796.346730
 20
622.876890
 30
0.0
 10
794.814105
 20
622.236667
 30
0.0
 10
791.849730
 20
620.193765
 30
0.0
 10
789.759180
 20
618.337140
 30
0.0
  0
SPLINE
  5
316
100
AcDbEntity
  8
0
 62
7
100
AcDbSpline
 70
8
 71
3
 72
8
 73
4
 74
0
 40
0
 40
0
 40
0
 40
0
 40
1
 40
1
 40
1
 40
1
 10
789.759180
 20
618.337140
 30
0.0
 10
787.668705
 20
616.480515
 30
0.0
 10
785.443080
 20
614.961390
 30
0.0
 10
784.813455
 20
614.961390
 30
0.0
  0
SPLINE
  5
317
100
AcDbEntity
  8
0
 62
7
100
AcDbSpline
 70
8
 71
3
 72
8
 73
4
 74
0
 40
0
 40
0
 40
0
 40
0
 40
1
 40
1
 40
1
 40
1
 10
784.813455
 20
614.961390
 30
0.0
 10
784.183755
 20
614.961390
 30
0.0
 10
781.884255
 20
613.273890
 30
0.0
 10
779.703480
 20
611.211390
 30
0.0
  0
SPLINE
  5
318
100
AcDbEntity
  8
0
 62
7
100
AcDbSpline
 70
8
 71
3
 72
8
 73
4
 74
0
 40
0
 40
0
 40
0
 40
0
 40
1
 40
1
 40
1
 40
1
 10
779.703480
 20
611.211390
 30
0.0
 10
777.522705
 20
609.148890
 30
0.0
 10
775.466580
 20
607.461390
 30
0.0
 10
775.134255
 20
607.461390
 30
0.0
  0
SPLINE
  5
319
100
AcDbEntity
  8
0
 62
7
100
AcDbSpline
 70
8
 71
3
 72
8
 73
4
 74
0
 40
0
 40
0
 40
0
 40
0
 40
1
 40
1
 40
1
 40
1
 10
775.134255
 20
607.461390
 30
0.0
 10
774.802005
 20
607.461390
 30
0.0
 10
773.147130
 20
606.435465
 30
0.0
 10
771.456780
 20
605.181540
 30
0.0
  0
SPLINE
  5
31a
100
AcDbEntity
  8
0
 62
7
100
AcDbSpline
 70
8
 71
3
 72
8
 73
4
 74
0
 40
0
 40
0
 40
0
 40
0
 40
1
 40
1
 40
1
 40
1
 10
771.456780
 20
605.181540
 30
0.0
 10
769.766355
 20
603.927615
 30
0.0
 10
765.514605
 20
601.197315
 30
0.0
 10
762.008280
 20
599.114190
 30
0.0
  0
SPLINE
  5
31b
100
AcDbEntity
  8
0
 62
7
100
AcDbSpline
 70
8
 71
3
 72
8
 73
4
 74
0
 40
0
 40
0
 40
0
 40
0
 40
1
 40
1
 40
1
 40
1
 10
762.008280
 20
599.114190
 30
0.0
 10
758.502030
 20
597.031065
 30
0.0
 10
754.958280
 20
594.721965
 30
0.0
 10
754.133280
 20
593.982915
 30
0.0
  0
SPLINE
  5
31c
100
AcDbEntity
  8
0
 62
7
100
AcDbSpline
 70
8
 71
3
 72
8
 73
4
 74
0
 40
0
 40
0
 40
0
 40
0
 40
1
 40
1
 40
1
 40
1
 10
754.133280
 20
593.982915
 30
0.0
 10
753.308280
 20
593.243835
 30
0.0
 10
749.427030
 20
591.078465
 30
0.0
 10
745.508280
 20
589.170915
 30
0.0
  0
SPLINE
  5
31d
100
AcDbEntity
  8
0
 62
7
100
AcDbSpline
 70
8
 71
3
 72
8
 73
4
 74
0
 40
0
 40
0
 40
0
 40
0
 40
1
 40
1
 40
1
 40
1
 10
745.508280
 20
589.170915
 30
0.0
 10
741.589530
 20
587.263365
 30
0.0
 10
736.864530
 20
584.707815
 30
0.0
 10
735.008280
 20
583.491840
 30
0.0
  0
SPLINE
  5
31e
100
AcDbEntity
  8
0
 62
7
100
AcDbSpline
 70
8
 71
3
 72
8
 73
4
 74
0
 40
0
 40
0
 40
0
 40
0
 40
1
 40
1
 40
1
 40
1
 10
735.008280
 20
583.491840
 30
0.0
 10
730.320780
 20
580.611840
 30
0.0
 10
713.730780
 20
572.369340
 30
0.0
 10
712.253280
 20
572.369340
 30
0.0
  0
SPLINE
  5
31f
100
AcDbEntity
  8
0
 62
7
100
AcDbSpline
 70
8
 71
3
 72
8
 73
4
 74
0
 40
0
 40
0
 40
0
 40
0
 40
1
 40
1
 40
1
 40
1
 10
712.253280
 20
572.369340
 30
0.0
 10
711.590858
 20
572.369340
 30
0.0
 10
710.880855
 20
572.097480
 30
0.0
 10
710.675505
 20
571.765200
 30
0.0
  0
SPLINE
  5
320
100
AcDbEntity
  8
0
 62
7
100
AcDbSpline
 70
8
 71
3
 72
8
 73
4
 74
0
 40
0
 40
0
 40
0
 40
0
 40
1
 40
1
 40
1
 40
1
 10
710.675505
 20
571.765200
 30
0.0
 10
709.839480
 20
570.412500
 30
0.0
 10
689.245755
 20
560.680950
 30
0.0
 10
678.710505
 20
556.660200
 30
0.0
  0
SPLINE
  5
321
100
AcDbEntity
  8
0
 62
7
100
AcDbSpline
 70
8
 71
3
 72
8
 73
4
 74
0
 40
0
 40
0
 40
0
 40
0
 40
1
 40
1
 40
1
 40
1
 10
678.710505
 20
556.660200
 30
0.0
 10
676.854255
 20
555.951742
 30
0.0
 10
674.491755
 20
555.015600
 30
0.0
 10
673.460505
 20
554.579775
 30
0.0
  0
SPLINE
  5
322
100
AcDbEntity
  8
0
 62
7
100
AcDbSpline
 70
8
 71
3
 72
8
 73
4
 74
0
 40
0
 40
0
 40
0
 40
0
 40
1
 40
1
 40
1
 40
1
 10
673.460505
 20
554.579775
 30
0.0
 10
672.429255
 20
554.144010
 30
0.0
 10
669.898005
 20
553.458975
 30
0.0
 10
667.835505
 20
553.057425
 30
0.0
  0
SPLINE
  5
323
100
AcDbEntity
  8
0
 62
7
100
AcDbSpline
 70
8
 71
3
 72
8
 73
4
 74
0
 40
0
 40
0
 40
0
 40
0
 40
1
 40
1
 40
1
 40
1
 10
667.835505
 20
553.057425
 30
0.0
 10
663.798855
 20
552.271575
 30
0.0
 10
658.391505
 20
550.499700
 30
0.0
 10
653.585505
 20
548.387925
 30
0.0
  0
SPLINE
  5
324
100
AcDbEntity
  8
0
 62
7
100
AcDbSpline
 70
8
 71
3
 72
8
 73
4
 74
0
 40
0
 40
0
 40
0
 40
0
 40
1
 40
1
 40
1
 40
1
 10
653.585505
 20
548.387925
 30
0.0
 10
651.935505
 20
547.662900
 30
0.0
 10
649.235505
 20
546.524100
 30
0.0
 10
647.585505
 20
545.857350
 30
0.0
  0
SPLINE
  5
325
100
AcDbEntity
  8
0
 62
7
100
AcDbSpline
 70
8
 71
3
 72
8
 73
4
 74
0
 40
0
 40
0
 40
0
 40
0
 40
1
 40
1
 40
1
 40
1
 10
647.585505
 20
545.857350
 30
0.0
 10
644.128230
 20
544.460175
 30
0.0
 10
634.327755
 20
542.371125
 30
0.0
 10
631.226505
 20
542.370225
 30
0.0
  0
SPLINE
  5
326
100
AcDbEntity
  8
0
 62
7
100
AcDbSpline
 70
8
 71
3
 72
8
 73
4
 74
0
 40
0
 40
0
 40
0
 40
0
 40
1
 40
1
 40
1
 40
1
 10
631.226505
 20
542.370225
 30
0.0
 10
630.066480
 20
542.369887
 30
0.0
 10
627.535230
 20
541.885515
 30
0.0
 10
625.601505
 20
541.293825
 30
0.0
  0
SPLINE
  5
327
100
AcDbEntity
  8
0
 62
7
100
AcDbSpline
 70
8
 71
3
 72
8
 73
4
 74
0
 40
0
 40
0
 40
0
 40
0
 40
1
 40
1
 40
1
 40
1
 10
625.601505
 20
541.293825
 30
0.0
 10
623.667705
 20
540.702150
 30
0.0
 10
620.829855
 20
540.013725
 30
0.0
 10
619.295130
 20
539.763975
 30
0.0
  0
SPLINE
  5
328
100
AcDbEntity
  8
0
 62
7
100
AcDbSpline
 70
8
 71
3
 72
8
 73
4
 74
0
 40
0
 40
0
 40
0
 40
0
 40
1
 40
1
 40
1
 40
1
 10
619.295130
 20
539.763975
 30
0.0
 10
617.760405
 20
539.514232
 30
0.0
 10
615.517905
 20
538.479525
 30
0.0
 10
614.311830
 20
537.464775
 30
0.0
  0
SPLINE
  5
329
100
AcDbEntity
  8
0
 62
7
100
AcDbSpline
 70
8
 71
3
 72
8
 73
4
 74
0
 40
0
 40
0
 40
0
 40
0
 40
1
 40
1
 40
1
 40
1
 10
614.311830
 20
537.464775
 30
0.0
 10
611.846655
 20
535.390500
 30
0.0
 10
610.069230
 20
535.103100
 30
0.0
 10
609.463755
 20
536.680950
 30
0.0
  0
SPLINE
  5
32a
100
AcDbEntity
  8
0
 62
7
100
AcDbSpline
 70
8
 71
3
 72
8
 73
4
 74
0
 40
0
 40
0
 40
0
 40
0
 40
1
 40
1
 40
1
 40
1
 10
609.463755
 20
536.680950
 30
0.0
 10
609.134108
 20
537.540000
 30
0.0
 10
606.581430
 20
537.740625
 30
0.0
 10
596.071005
 20
537.733575
 30
0.0
  0
SPLINE
  5
32b
100
AcDbEntity
  8
0
 62
7
100
AcDbSpline
 70
8
 71
3
 72
8
 73
4
 74
0
 40
0
 40
0
 40
0
 40
0
 40
1
 40
1
 40
1
 40
1
 10
596.071005
 20
537.733575
 30
0.0
 10
588.928980
 20
537.726075
 30
0.0
 10
579.373005
 20
538.069950
 30
0.0
 10
574.835505
 20
538.491825
 30
0.0
  0
SPLINE
  5
32c
100
AcDbEntity
  8
0
 62
7
100
AcDbSpline
 70
8
 71
3
 72
8
 73
4
 74
0
 40
0
 40
0
 40
0
 40
0
 40
1
 40
1
 40
1
 40
1
 10
574.835505
 20
538.491825
 30
0.0
 10
558.568005
 20
540.004200
 30
0.0
 10
550.223505
 20
540.927375
 30
0.0
 10
549.657255
 20
541.277550
 30
0.0
  0
SPLINE
  5
32d
100
AcDbEntity
  8
0
 62
7
100
AcDbSpline
 70
8
 71
3
 72
8
 73
4
 74
0
 40
0
 40
0
 40
0
 40
0
 40
1
 40
1
 40
1
 40
1
 10
549.657255
 20
541.277550
 30
0.0
 10
549.032708
 20
541.663537
 30
0.0
 10
542.372055
 20
542.437425
 30
0.0
 10
536.960505
 20
542.752725
 30
0.0
  0
SPLINE
  5
32e
100
AcDbEntity
  8
0
 62
7
100
AcDbSpline
 70
8
 71
3
 72
8
 73
4
 74
0
 40
0
 40
0
 40
0
 40
0
 40
1
 40
1
 40
1
 40
1
 10
536.960505
 20
542.752725
 30
0.0
 10
535.104255
 20
542.860882
 30
0.0
 10
530.940180
 20
543.493927
 30
0.0
 10
527.707005
 20
544.159500
 30
0.0
  0
SPLINE
  5
32f
100
AcDbEntity
  8
0
 62
7
100
AcDbSpline
 70
8
 71
3
 72
8
 73
4
 74
0
 40
0
 40
0
 40
0
 40
0
 40
1
 40
1
 40
1
 40
1
 10
527.707005
 20
544.159500
 30
0.0
 10
519.050505
 20
545.941500
 30
0.0
 10
519.149505
 20
546.056400
 30
0.0
 10
522.710505
 20
538.363125
 30
0.0
  0
SPLINE
  5
330
100
AcDbEntity
  8
0
 62
7
100
AcDbSpline
 70
8
 71
3
 72
8
 73
4
 74
0
 40
0
 40
0
 40
0
 40
0
 40
1
 40
1
 40
1
 40
1
 10
522.710505
 20
538.363125
 30
0.0
 10
525.372555
 20
532.611675
 30
0.0
 10
525.415080
 20
531.925650
 30
0.0
 10
523.460505
 20
526.244625
 30
0.0
  0
SPLINE
  5
331
100
AcDbEntity
  8
0
 62
7
100
AcDbSpline
 70
8
 71
3
 72
8
 73
4
 74
0
 40
0
 40
0
 40
0
 40
0
 40
1
 40
1
 40
1
 40
1
 10
523.460505
 20
526.244625
 30
0.0
 10
522.635505
 20
523.846725
 30
0.0
 10
521.960505
 20
521.135175
 30
0.0
 10
521.960505
 20
520.219050
 30
0.0
  0
SPLINE
  5
332
100
AcDbEntity
  8
0
 62
7
100
AcDbSpline
 70
8
 71
3
 72
8
 73
4
 74
0
 40
0
 40
0
 40
0
 40
0
 40
1
 40
1
 40
1
 40
1
 10
521.960505
 20
520.219050
 30
0.0
 10
521.960505
 20
519.302850
 30
0.0
 10
521.454255
 20
518.133150
 30
0.0
 10
520.835505
 20
517.619625
 30
0.0
  0
SPLINE
  5
333
100
AcDbEntity
  8
0
 62
7
100
AcDbSpline
 70
8
 71
3
 72
8
 73
4
 74
0
 40
0
 40
0
 40
0
 40
0
 40
1
 40
1
 40
1
 40
1
 10
520.835505
 20
517.619625
 30
0.0
 10
520.216755
 20
517.106100
 30
0.0
 10
519.710505
 20
516.257175
 30
0.0
 10
519.710505
 20
515.733000
 30
0.0
  0
SPLINE
  5
334
100
AcDbEntity
  8
0
 62
7
100
AcDbSpline
 70
8
 71
3
 72
8
 73
4
 74
0
 40
0
 40
0
 40
0
 40
0
 40
1
 40
1
 40
1
 40
1
 10
519.710505
 20
515.733000
 30
0.0
 10
519.710505
 20
515.208900
 30
0.0
 10
520.216755
 20
514.585875
 30
0.0
 10
520.835505
 20
514.348425
 30
0.0
  0
SPLINE
  5
335
100
AcDbEntity
  8
0
 62
7
100
AcDbSpline
 70
8
 71
3
 72
8
 73
4
 74
0
 40
0
 40
0
 40
0
 40
0
 40
1
 40
1
 40
1
 40
1
 10
520.835505
 20
514.348425
 30
0.0
 10
522.656355
 20
513.649650
 30
0.0
 10
522.136980
 20
511.877475
 30
0.0
 10
519.447180
 20
509.611725
 30
0.0
  0
SPLINE
  5
336
100
AcDbEntity
  8
0
 62
7
100
AcDbSpline
 70
8
 71
3
 72
8
 73
4
 74
0
 40
0
 40
0
 40
0
 40
0
 40
1
 40
1
 40
1
 40
1
 10
519.447180
 20
509.611725
 30
0.0
 10
516.273330
 20
506.938275
 30
0.0
 10
513.194730
 20
498.996225
 30
0.0
 10
512.521230
 20
491.744475
 30
0.0
  0
SPLINE
  5
337
100
AcDbEntity
  8
0
 62
7
100
AcDbSpline
 70
8
 71
3
 72
8
 73
4
 74
0
 40
0
 40
0
 40
0
 40
0
 40
1
 40
1
 40
1
 40
1
 10
512.521230
 20
491.744475
 30
0.0
 10
512.253038
 20
488.856975
 30
0.0
 10
511.386480
 20
484.990125
 30
0.0
 10
510.595455
 20
483.151725
 30
0.0
  0
SPLINE
  5
338
100
AcDbEntity
  8
0
 62
7
100
AcDbSpline
 70
8
 71
3
 72
8
 73
4
 74
0
 40
0
 40
0
 40
0
 40
0
 40
1
 40
1
 40
1
 40
1
 10
510.595455
 20
483.151725
 30
0.0
 10
509.398005
 20
480.368325
 30
0.0
 10
509.305230
 20
479.451675
 30
0.0
 10
510.040988
 20
477.675375
 30
0.0
  0
SPLINE
  5
339
100
AcDbEntity
  8
0
 62
7
100
AcDbSpline
 70
8
 71
3
 72
8
 73
4
 74
0
 40
0
 40
0
 40
0
 40
0
 40
1
 40
1
 40
1
 40
1
 10
510.040988
 20
477.675375
 30
0.0
 10
510.729443
 20
476.013300
 30
0.0
 10
510.711960
 20
474.846450
 30
0.0
 10
509.961855
 20
472.393350
 30
0.0
  0
SPLINE
  5
33a
100
AcDbEntity
  8
0
 62
7
100
AcDbSpline
 70
8
 71
3
 72
8
 73
4
 74
0
 40
0
 40
0
 40
0
 40
0
 40
1
 40
1
 40
1
 40
1
 10
509.961855
 20
472.393350
 30
0.0
 10
508.036530
 20
466.097100
 30
0.0
 10
506.853555
 20
458.527350
 30
0.0
 10
506.192505
 20
448.274850
 30
0.0
  0
SPLINE
  5
33b
100
AcDbEntity
  8
0
 62
7
100
AcDbSpline
 70
8
 71
3
 72
8
 73
4
 74
0
 40
0
 40
0
 40
0
 40
0
 40
1
 40
1
 40
1
 40
1
 10
506.192505
 20
448.274850
 30
0.0
 10
505.821240
 20
442.516725
 30
0.0
 10
505.150830
 20
436.103850
 30
0.0
 10
504.702705
 20
434.024850
 30
0.0
  0
SPLINE
  5
33c
100
AcDbEntity
  8
0
 62
7
100
AcDbSpline
 70
8
 71
3
 72
8
 73
4
 74
0
 40
0
 40
0
 40
0
 40
0
 40
1
 40
1
 40
1
 40
1
 10
504.702705
 20
434.024850
 30
0.0
 10
503.987295
 20
430.705350
 30
0.0
 10
502.880730
 20
415.579350
 30
0.0
 10
502.972155
 20
410.369100
 30
0.0
  0
SPLINE
  5
33d
100
AcDbEntity
  8
0
 62
7
100
AcDbSpline
 70
8
 71
3
 72
8
 73
4
 74
0
 40
0
 40
0
 40
0
 40
0
 40
1
 40
1
 40
1
 40
1
 10
502.972155
 20
410.369100
 30
0.0
 10
502.990230
 20
409.337850
 30
0.0
 10
503.166878
 20
403.094100
 30
0.0
 10
503.364660
 20
396.494100
 30
0.0
  0
SPLINE
  5
33e
100
AcDbEntity
  8
0
 62
7
100
AcDbSpline
 70
8
 71
3
 72
8
 73
4
 74
0
 40
0
 40
0
 40
0
 40
0
 40
1
 40
1
 40
1
 40
1
 10
503.364660
 20
396.494100
 30
0.0
 10
503.562450
 20
389.894100
 30
0.0
 10
503.462550
 20
383.772600
 30
0.0
 10
503.142653
 20
382.889850
 30
0.0
  0
SPLINE
  5
33f
100
AcDbEntity
  8
0
 62
7
100
AcDbSpline
 70
8
 71
3
 72
8
 73
4
 74
0
 40
0
 40
0
 40
0
 40
0
 40
1
 40
1
 40
1
 40
1
 10
503.142653
 20
382.889850
 30
0.0
 10
502.822763
 20
382.007550
 30
0.0
 10
502.362278
 20
374.245350
 30
0.0
 10
502.119353
 20
365.639850
 30
0.0
  0
SPLINE
  5
340
100
AcDbEntity
  8
0
 62
7
100
AcDbSpline
 70
8
 71
3
 72
8
 73
4
 74
0
 40
0
 40
0
 40
0
 40
0
 40
1
 40
1
 40
1
 40
1
 10
502.119353
 20
365.639850
 30
0.0
 10
501.876428
 20
357.034350
 30
0.0
 10
501.474915
 20
343.750350
 30
0.0
 10
501.227078
 20
336.119100
 30
0.0
  0
SPLINE
  5
341
100
AcDbEntity
  8
0
 62
7
100
AcDbSpline
 70
8
 71
3
 72
8
 73
4
 74
0
 40
0
 40
0
 40
0
 40
0
 40
1
 40
1
 40
1
 40
1
 10
501.227078
 20
336.119100
 30
0.0
 10
500.979270
 20
328.487850
 30
0.0
 10
500.865998
 20
320.387850
 30
0.0
 10
500.975363
 20
318.119100
 30
0.0
  0
SPLINE
  5
342
100
AcDbEntity
  8
0
 62
7
100
AcDbSpline
 70
8
 71
3
 72
8
 73
4
 74
0
 40
0
 40
0
 40
0
 40
0
 40
1
 40
1
 40
1
 40
1
 10
500.975363
 20
318.119100
 30
0.0
 10
501.157418
 20
314.342325
 30
0.0
 10
501.251520
 20
299.712600
 30
0.0
 10
501.190043
 20
284.744100
 30
0.0
  0
SPLINE
  5
343
100
AcDbEntity
  8
0
 62
7
100
AcDbSpline
 70
8
 71
3
 72
8
 73
4
 74
0
 40
0
 40
0
 40
0
 40
0
 40
1
 40
1
 40
1
 40
1
 10
501.190043
 20
284.744100
 30
0.0
 10
501.176468
 20
281.444100
 30
0.0
 10
501.159293
 20
276.044100
 30
0.0
 10
501.151868
 20
272.744100
 30
0.0
  0
SPLINE
  5
344
100
AcDbEntity
  8
0
 62
7
100
AcDbSpline
 70
8
 71
3
 72
8
 73
4
 74
0
 40
0
 40
0
 40
0
 40
0
 40
1
 40
1
 40
1
 40
1
 10
501.151868
 20
272.744100
 30
0.0
 10
501.144368
 20
269.444100
 30
0.0
 10
500.931983
 20
256.450350
 30
0.0
 10
500.679758
 20
243.869100
 30
0.0
  0
SPLINE
  5
345
100
AcDbEntity
  8
0
 62
7
100
AcDbSpline
 70
8
 71
3
 72
8
 73
4
 74
0
 40
0
 40
0
 40
0
 40
0
 40
1
 40
1
 40
1
 40
1
 10
500.679758
 20
243.869100
 30
0.0
 10
500.427533
 20
231.287850
 30
0.0
 10
500.262473
 20
219.812850
 30
0.0
 10
500.312963
 20
218.369100
 30
0.0
  0
SPLINE
  5
346
100
AcDbEntity
  8
0
 62
7
100
AcDbSpline
 70
8
 71
3
 72
8
 73
4
 74
0
 40
0
 40
0
 40
0
 40
0
 40
1
 40
1
 40
1
 40
1
 10
500.312963
 20
218.369100
 30
0.0
 10
500.491020
 20
213.277050
 30
0.0
 10
500.370038
 20
199.069350
 30
0.0
 10
500.019098
 20
183.869100
 30
0.0
  0
SPLINE
  5
347
100
AcDbEntity
  8
0
 62
7
100
AcDbSpline
 70
8
 71
3
 72
8
 73
4
 74
0
 40
0
 40
0
 40
0
 40
0
 40
1
 40
1
 40
1
 40
1
 10
500.019098
 20
183.869100
 30
0.0
 10
499.820055
 20
175.247100
 30
0.0
 10
499.996598
 20
166.352850
 30
0.0
 10
500.420955
 20
163.619100
 30
0.0
  0
SPLINE
  5
348
100
AcDbEntity
  8
0
 62
7
100
AcDbSpline
 70
8
 71
3
 72
8
 73
4
 74
0
 40
0
 40
0
 40
0
 40
0
 40
1
 40
1
 40
1
 40
1
 10
500.420955
 20
163.619100
 30
0.0
 10
501.890355
 20
154.153350
 30
0.0
 10
501.246780
 20
133.917600
 30
0.0
 10
499.323555
 20
129.119100
 30
0.0
  0
SPLINE
  5
349
100
AcDbEntity
  8
0
 62
7
100
AcDbSpline
 70
8
 71
3
 72
8
 73
4
 74
0
 40
0
 40
0
 40
0
 40
0
 40
1
 40
1
 40
1
 40
1
 10
499.323555
 20
129.119100
 30
0.0
 10
497.962680
 20
125.723325
 30
0.0
 10
493.993605
 20
123.131850
 30
0.0
 10
489.242805
 20
122.537475
 30
0.0
  0
LWPOLYLINE
  5
34a
100
AcDbEntity
  8
0
 62
7
100
AcDbPolyline
 90
3
 70
0
 10
1076.737680
 20
50.922765
 30
0.0
 10
1077.168780
 20
53.078340
 30
0.0
 10
1070.900655
 20
52.684365
 30
0.0
  0
SPLINE
  5
34b
100
AcDbEntity
  8
0
 62
7
100
AcDbSpline
 70
8
 71
3
 72
8
 73
4
 74
0
 40
0
 40
0
 40
0
 40
0
 40
1
 40
1
 40
1
 40
1
 10
481.285605
 20
115.994100
 30
0.0
 10
479.297655
 20
112.694100
 30
0.0
 10
477.343155
 20
109.319100
 30
0.0
 10
476.942430
 20
108.494100
 30
0.0
  0
SPLINE
  5
34c
100
AcDbEntity
  8
0
 62
7
100
AcDbSpline
 70
8
 71
3
 72
8
 73
4
 74
0
 40
0
 40
0
 40
0
 40
0
 40
1
 40
1
 40
1
 40
1
 10
476.942430
 20
108.494100
 30
0.0
 10
476.541653
 20
107.669100
 30
0.0
 10
475.909230
 20
106.487850
 30
0.0
 10
475.536930
 20
105.869100
 30
0.0
  0
SPLINE
  5
34d
100
AcDbEntity
  8
0
 62
7
100
AcDbSpline
 70
8
 71
3
 72
8
 73
4
 74
0
 40
0
 40
0
 40
0
 40
0
 40
1
 40
1
 40
1
 40
1
 10
475.536930
 20
105.869100
 30
0.0
 10
473.432580
 20
102.371175
 30
0.0
 10
467.960430
 20
89.380350
 30
0.0
 10
467.960430
 20
87.883350
 30
0.0
  0
SPLINE
  5
34e
100
AcDbEntity
  8
0
 62
7
100
AcDbSpline
 70
8
 71
3
 72
8
 73
4
 74
0
 40
0
 40
0
 40
0
 40
0
 40
1
 40
1
 40
1
 40
1
 10
467.960430
 20
87.883350
 30
0.0
 10
467.960430
 20
87.165750
 30
0.0
 10
467.159130
 20
85.397925
 30
0.0
 10
466.179855
 20
83.954775
 30
0.0
  0
SPLINE
  5
34f
100
AcDbEntity
  8
0
 62
7
100
AcDbSpline
 70
8
 71
3
 72
8
 73
4
 74
0
 40
0
 40
0
 40
0
 40
0
 40
1
 40
1
 40
1
 40
1
 10
466.179855
 20
83.954775
 30
0.0
 10
465.200505
 20
82.511700
 30
0.0
 10
464.206755
 20
80.186475
 30
0.0
 10
463.971480
 20
78.787650
 30
0.0
  0
SPLINE
  5
350
100
AcDbEntity
  8
0
 62
7
100
AcDbSpline
 70
8
 71
3
 72
8
 73
4
 74
0
 40
0
 40
0
 40
0
 40
0
 40
1
 40
1
 40
1
 40
1
 10
463.971480
 20
78.787650
 30
0.0
 10
463.736205
 20
77.388825
 30
0.0
 10
463.202805
 20
74.725575
 30
0.0
 10
462.786105
 20
72.869325
 30
0.0
  0
SPLINE
  5
351
100
AcDbEntity
  8
0
 62
7
100
AcDbSpline
 70
8
 71
3
 72
8
 73
4
 74
0
 40
0
 40
0
 40
0
 40
0
 40
1
 40
1
 40
1
 40
1
 10
462.786105
 20
72.869325
 30
0.0
 10
460.716930
 20
63.651075
 30
0.0
 10
459.035580
 20
55.068075
 30
0.0
 10
459.000030
 20
53.541825
 30
0.0
  0
SPLINE
  5
352
100
AcDbEntity
  8
0
 62
7
100
AcDbSpline
 70
8
 71
3
 72
8
 73
4
 74
0
 40
0
 40
0
 40
0
 40
0
 40
1
 40
1
 40
1
 40
1
 10
459.000030
 20
53.541825
 30
0.0
 10
458.978205
 20
52.605525
 30
0.0
 10
458.142480
 20
50.543775
 30
0.0
 10
457.142805
 20
48.960225
 30
0.0
  0
SPLINE
  5
353
100
AcDbEntity
  8
0
 62
7
100
AcDbSpline
 70
8
 71
3
 72
8
 73
4
 74
0
 40
0
 40
0
 40
0
 40
0
 40
1
 40
1
 40
1
 40
1
 10
457.142805
 20
48.960225
 30
0.0
 10
456.143130
 20
47.376600
 30
0.0
 10
454.963305
 20
44.736900
 30
0.0
 10
454.520955
 20
43.094175
 30
0.0
  0
SPLINE
  5
354
100
AcDbEntity
  8
0
 62
7
100
AcDbSpline
 70
8
 71
3
 72
8
 73
4
 74
0
 40
0
 40
0
 40
0
 40
0
 40
1
 40
1
 40
1
 40
1
 10
454.520955
 20
43.094175
 30
0.0
 10
454.078620
 20
41.451525
 30
0.0
 10
453.060330
 20
39.513450
 30
0.0
 10
452.258055
 20
38.787375
 30
0.0
  0
SPLINE
  5
355
100
AcDbEntity
  8
0
 62
7
100
AcDbSpline
 70
8
 71
3
 72
8
 73
4
 74
0
 40
0
 40
0
 40
0
 40
0
 40
1
 40
1
 40
1
 40
1
 10
452.258055
 20
38.787375
 30
0.0
 10
451.338030
 20
37.954800
 30
0.0
 10
450.614355
 20
35.986725
 30
0.0
 10
450.298455
 20
33.458100
 30
0.0
  0
SPLINE
  5
356
100
AcDbEntity
  8
0
 62
7
100
AcDbSpline
 70
8
 71
3
 72
8
 73
4
 74
0
 40
0
 40
0
 40
0
 40
0
 40
1
 40
1
 40
1
 40
1
 10
450.298455
 20
33.458100
 30
0.0
 10
449.925218
 20
30.470775
 30
0.0
 10
449.177355
 20
28.722000
 30
0.0
 10
447.364230
 20
26.596575
 30
0.0
  0
SPLINE
  5
357
100
AcDbEntity
  8
0
 62
7
100
AcDbSpline
 70
8
 71
3
 72
8
 73
4
 74
0
 40
0
 40
0
 40
0
 40
0
 40
1
 40
1
 40
1
 40
1
 10
447.364230
 20
26.596575
 30
0.0
 10
446.025930
 20
25.027800
 30
0.0
 10
444.383730
 20
22.680825
 30
0.0
 10
443.714880
 20
21.381150
 30
0.0
  0
SPLINE
  5
358
100
AcDbEntity
  8
0
 62
7
100
AcDbSpline
 70
8
 71
3
 72
8
 73
4
 74
0
 40
0
 40
0
 40
0
 40
0
 40
1
 40
1
 40
1
 40
1
 10
443.714880
 20
21.381150
 30
0.0
 10
443.046068
 20
20.081475
 30
0.0
 10
440.718330
 20
17.534925
 30
0.0
 10
438.542130
 20
15.722175
 30
0.0
  0
SPLINE
  5
359
100
AcDbEntity
  8
0
 62
7
100
AcDbSpline
 70
8
 71
3
 72
8
 73
4
 74
0
 40
0
 40
0
 40
0
 40
0
 40
1
 40
1
 40
1
 40
1
 10
438.542130
 20
15.722175
 30
0.0
 10
426.596130
 20
5.771175
 30
0.0
 10
414.746880
 20
2.706675
 30
0.0
 10
393.192630
 20
3.992925
 30
0.0
  0
SPLINE
  5
35a
100
AcDbEntity
  8
0
 62
7
100
AcDbSpline
 70
8
 71
3
 72
8
 73
4
 74
0
 40
0
 40
0
 40
0
 40
0
 40
1
 40
1
 40
1
 40
1
 10
393.192630
 20
3.992925
 30
0.0
 10
391.642905
 20
4.085400
 30
0.0
 10
389.779155
 20
3.428250
 30
0.0
 10
387.902280
 20
2.127600
 30
0.0
  0
SPLINE
  5
35b
100
AcDbEntity
  8
0
 62
7
100
AcDbSpline
 70
8
 71
3
 72
8
 73
4
 74
0
 40
0
 40
0
 40
0
 40
0
 40
1
 40
1
 40
1
 40
1
 10
387.902280
 20
2.127600
 30
0.0
 10
384.535005
 20
-0.205950
 30
0.0
 10
377.937030
 20
-0.681300
 30
0.0
 10
375.230280
 20
1.214625
 30
0.0
  0
LWPOLYLINE
  5
35c
100
AcDbEntity
  8
0
 62
7
100
AcDbPolyline
 90
3
 70
0
 10
489.242805
 20
122.537475
 30
0.0
 10
484.900155
 20
121.994100
 30
0.0
 10
481.285605
 20
115.994100
 30
0.0
  0
SPLINE
  5
35d
100
AcDbEntity
  8
0
 62
7
100
AcDbSpline
 70
8
 71
3
 72
8
 73
4
 74
0
 40
0
 40
0
 40
0
 40
0
 40
1
 40
1
 40
1
 40
1
 10
402.695250
 20
83.752500
 30
0.0
 10
403.550175
 20
84.839325
 30
0.0
 10
404.249700
 20
86.398350
 30
0.0
 10
404.249700
 20
87.216825
 30
0.0
  0
SPLINE
  5
35e
100
AcDbEntity
  8
0
 62
7
100
AcDbSpline
 70
8
 71
3
 72
8
 73
4
 74
0
 40
0
 40
0
 40
0
 40
0
 40
1
 40
1
 40
1
 40
1
 10
404.249700
 20
87.216825
 30
0.0
 10
404.249700
 20
88.035375
 30
0.0
 10
405.414900
 20
90.623175
 30
0.0
 10
406.839000
 20
92.967525
 30
0.0
  0
SPLINE
  5
35f
100
AcDbEntity
  8
0
 62
7
100
AcDbSpline
 70
8
 71
3
 72
8
 73
4
 74
0
 40
0
 40
0
 40
0
 40
0
 40
1
 40
1
 40
1
 40
1
 10
406.839000
 20
92.967525
 30
0.0
 10
408.263100
 20
95.311800
 30
0.0
 10
409.910250
 20
99.405975
 30
0.0
 10
410.499375
 20
102.065775
 30
0.0
  0
SPLINE
  5
360
100
AcDbEntity
  8
0
 62
7
100
AcDbSpline
 70
8
 71
3
 72
8
 73
4
 74
0
 40
0
 40
0
 40
0
 40
0
 40
1
 40
1
 40
1
 40
1
 10
410.499375
 20
102.065775
 30
0.0
 10
411.573075
 20
106.913175
 30
0.0
 10
412.556625
 20
110.019525
 30
0.0
 10
414.472725
 20
114.614775
 30
0.0
  0
SPLINE
  5
361
100
AcDbEntity
  8
0
 62
7
100
AcDbSpline
 70
8
 71
3
 72
8
 73
4
 74
0
 40
0
 40
0
 40
0
 40
0
 40
1
 40
1
 40
1
 40
1
 10
414.472725
 20
114.614775
 30
0.0
 10
415.892175
 20
118.018800
 30
0.0
 10
415.792725
 20
121.461525
 30
0.0
 10
414.257955
 20
122.050425
 30
0.0
  0
SPLINE
  5
362
100
AcDbEntity
  8
0
 62
7
100
AcDbSpline
 70
8
 71
3
 72
8
 73
4
 74
0
 40
0
 40
0
 40
0
 40
0
 40
1
 40
1
 40
1
 40
1
 10
414.257955
 20
122.050425
 30
0.0
 10
412.715955
 20
122.642175
 30
0.0
 10
410.249805
 20
119.802375
 30
0.0
 10
410.249805
 20
117.435000
 30
0.0
  0
SPLINE
  5
363
100
AcDbEntity
  8
0
 62
7
100
AcDbSpline
 70
8
 71
3
 72
8
 73
4
 74
0
 40
0
 40
0
 40
0
 40
0
 40
1
 40
1
 40
1
 40
1
 10
410.249805
 20
117.435000
 30
0.0
 10
410.249805
 20
116.513400
 30
0.0
 10
409.595588
 20
115.167300
 30
0.0
 10
408.796005
 20
114.443625
 30
0.0
  0
SPLINE
  5
364
100
AcDbEntity
  8
0
 62
7
100
AcDbSpline
 70
8
 71
3
 72
8
 73
4
 74
0
 40
0
 40
0
 40
0
 40
0
 40
1
 40
1
 40
1
 40
1
 10
408.796005
 20
114.443625
 30
0.0
 10
407.996430
 20
113.720025
 30
0.0
 10
406.979505
 20
111.437025
 30
0.0
 10
406.536330
 20
109.370325
 30
0.0
  0
SPLINE
  5
365
100
AcDbEntity
  8
0
 62
7
100
AcDbSpline
 70
8
 71
3
 72
8
 73
4
 74
0
 40
0
 40
0
 40
0
 40
0
 40
1
 40
1
 40
1
 40
1
 10
406.536330
 20
109.370325
 30
0.0
 10
406.079378
 20
107.239575
 30
0.0
 10
404.455080
 20
103.781025
 30
0.0
 10
402.784680
 20
101.382075
 30
0.0
  0
SPLINE
  5
366
100
AcDbEntity
  8
0
 62
7
100
AcDbSpline
 70
8
 71
3
 72
8
 73
4
 74
0
 40
0
 40
0
 40
0
 40
0
 40
1
 40
1
 40
1
 40
1
 10
402.784680
 20
101.382075
 30
0.0
 10
399.079005
 20
96.060450
 30
0.0
 10
396.102180
 20
84.174075
 30
0.0
 10
397.999830
 20
82.276575
 30
0.0
  0
SPLINE
  5
367
100
AcDbEntity
  8
0
 62
7
100
AcDbSpline
 70
8
 71
3
 72
8
 73
4
 74
0
 40
0
 40
0
 40
0
 40
0
 40
1
 40
1
 40
1
 40
1
 10
397.999830
 20
82.276575
 30
0.0
 10
399.077880
 20
81.198450
 30
0.0
 10
401.214630
 20
81.870150
 30
0.0
 10
402.695430
 20
83.752725
 30
0.0
  0
LWPOLYLINE
  5
368
100
AcDbEntity
  8
0
 62
7
100
AcDbPolyline
 90
2
 70
0
 10
375.230280
 20
1.214625
 30
0.0
 10
375.270000
 20
1.125000
 30
0.0
  0
LWPOLYLINE
  5
369
100
AcDbEntity
  8
0
 62
7
100
AcDbPolyline
 90
2
 70
0
 10
402.695430
 20
83.752725
 30
0.0
 10
402.695250
 20
83.752500
 30
0.0
  0
ENDSEC
  0
SECTION
  2
OBJECTS
  0
DICTIONARY
  5
C
330
0
100
AcDbDictionary
  3
ACAD_GROUP
350
D
  3
ACAD_MLINESTYLE
350
17
  0
DICTIONARY
  5
D
330
C
100
AcDbDictionary
  0
DICTIONARY
  5
1A
330
C
100
AcDbDictionary
  0
DICTIONARY
  5
17
330
C
100
AcDbDictionary
  3
STANDARD
350
18
  0
DICTIONARY
  5
19
330
C
100
AcDbDictionary
  0
ENDSEC
  0
EOF
